<svg width="48" height="48" viewBox="0 0 48 48" fill="none" xmlns="http://www.w3.org/2000/svg">
<g clip-path="url(#clip0_1123_6110)">
<path d="M6.00012 -0.00012207H42.0001C45.3241 -0.00012207 48.0001 2.67583 48.0001 5.99984V41.9998C48.0001 45.3238 45.3241 47.9999 42.0001 47.9999H6.00012C2.67611 47.9999 0.00012207 45.3238 0.00012207 41.9998V5.99984C0.00012207 2.67583 2.67611 -0.00012207 6.00012 -0.00012207Z" fill="#1A1A1A"/>
<path d="M8.80941 3.74585H39.1907C41.9959 3.74585 44.2542 6.0042 44.2542 8.80941V39.1907C44.2542 41.9959 41.9959 44.2542 39.1907 44.2542H8.80941C6.0042 44.2542 3.74585 41.9959 3.74585 39.1907V8.80941C3.74585 6.0042 6.0042 3.74585 8.80941 3.74585Z" fill="#1A1A1A"/>
<path d="M37.147 14.6532C25.1329 14.7943 16.3531 42.7879 3.74597 29.4966V39.1906C3.74597 41.9958 6.00406 44.254 8.80925 44.254H39.1908C41.996 44.254 44.254 41.9958 44.254 39.1906V17.9349C41.742 15.5736 39.3881 14.6269 37.147 14.6532Z" fill="white"/>
<path d="M11.6957 24.4398C13.8899 24.4398 15.6687 22.661 15.6687 20.4667C15.6687 18.2725 13.8899 16.4937 11.6957 16.4937C9.50144 16.4937 7.72266 18.2725 7.72266 20.4667C7.72266 22.661 9.50144 24.4398 11.6957 24.4398Z" fill="white"/>
<path d="M35.7459 31.4325C37.9401 31.4325 39.7189 29.6536 39.7189 27.4594C39.7189 25.2651 37.9401 23.4863 35.7459 23.4863C33.5516 23.4863 31.7728 25.2651 31.7728 27.4594C31.7728 29.6536 33.5516 31.4325 35.7459 31.4325Z" fill="#1A1A1A"/>
</g>
<defs>
<clipPath id="clip0_1123_6110">
<rect width="48" height="48" fill="white"/>
</clipPath>
</defs>
</svg>
