<svg width="48" height="48" viewBox="0 0 48 48" fill="none" xmlns="http://www.w3.org/2000/svg">
<g clip-path="url(#clip0_1123_6050)">
<path fill-rule="evenodd" clip-rule="evenodd" d="M1.24998 17.5709C0.00710206 20.6407 -0.318093 24.0186 0.315567 27.2776C0.949151 30.5364 2.51314 33.5299 4.80962 35.8794C7.10611 38.2289 10.0321 39.829 13.2174 40.4772C16.4029 41.1255 19.7046 40.7927 22.7052 39.5212C25.7057 38.2496 28.2703 36.0963 30.0746 33.3336C30.1228 33.2599 30.1703 33.1859 30.2172 33.1115C30.2503 33.059 30.2832 33.0063 30.3158 32.9533V40.8H31.579C34.8268 40.8 38.0016 39.8147 40.702 37.9686C43.4024 36.1228 45.5071 33.4989 46.75 30.429C47.9929 27.3593 48.3181 23.9814 47.6844 20.7225C47.0508 17.4636 45.487 14.4701 43.1904 12.1206C40.8938 9.77107 37.9679 8.17107 34.7826 7.52286C31.5971 6.87458 28.2954 7.20728 25.2948 8.47884C22.2943 9.75041 19.7297 11.9037 17.9254 14.6664C17.8433 14.7922 17.7629 14.919 17.6842 15.0467V7.20002H16.421C13.1732 7.20002 9.99841 8.18534 7.29802 10.0314C4.59761 11.8773 2.49287 14.5011 1.24998 17.5709ZM15.1579 24V9.84348C12.8556 10.0585 10.6349 10.8588 8.70156 12.1803C6.41657 13.7423 4.6357 15.9625 3.58402 18.56C2.53234 21.1576 2.25718 24.0157 2.79331 26.7733C3.32945 29.5308 4.65282 32.0638 6.59597 34.0518C8.5392 36.0398 11.015 37.3937 13.7104 37.9422C16.4057 38.4907 19.1994 38.2092 21.7384 37.1333C24.1753 36.1006 26.2724 34.3805 27.7871 32.1768C26.6392 32.7343 25.3552 33.0462 24 33.0462C19.1167 33.0462 15.1579 28.996 15.1579 24ZM32.8421 38.1565V24C32.8421 19.004 28.8833 14.9539 24 14.9539C22.6448 14.9539 21.3608 15.2657 20.2129 15.8232C21.7276 13.6195 23.8247 11.8994 26.2616 10.8667C28.8006 9.79079 31.5943 9.50928 34.2896 10.0578C36.985 10.6063 39.4608 11.9602 41.4041 13.9482C43.3472 15.9363 44.6706 18.4692 45.2066 21.2267C45.7428 23.9843 45.4676 26.8425 44.416 29.44C43.3644 32.0375 41.5835 34.2577 39.2984 35.8197C37.3651 37.1412 35.1444 37.9415 32.8421 38.1565ZM23.8736 30.4603C20.4858 30.3923 17.752 27.5952 17.6855 24.1293H20.0749C21.9599 24.5688 23.4438 26.0868 23.8736 28.0153V30.4603ZM24.1262 30.4603C27.5141 30.3923 30.248 27.5952 30.3145 24.1293H27.9251C26.0399 24.5688 24.556 26.0871 24.1262 28.0158V30.4603ZM30.3145 23.8708C30.248 20.4048 27.5141 17.6077 24.1262 17.5397V19.9842C24.556 21.9129 26.0398 23.4311 27.9247 23.8708H30.3145ZM23.8736 17.5397C20.4859 17.6077 17.752 20.4048 17.6855 23.8708H20.0753C21.9601 23.4311 23.4439 21.9131 23.8736 19.9847V17.5397Z" fill="#8046FD"/>
</g>
<defs>
<clipPath id="clip0_1123_6050">
<rect width="48" height="33.6" fill="white" transform="translate(0 7.20001)"/>
</clipPath>
</defs>
</svg>
