<svg width="48" height="48" viewBox="0 0 48 48" fill="none" xmlns="http://www.w3.org/2000/svg">
<g clip-path="url(#clip0_1123_6041)">
<path d="M12.3718 34.9124C12.3718 31.6088 9.69374 28.9308 6.39023 28.9308C3.08672 28.9308 0.408691 31.6088 0.408691 34.9124V41.5462C0.408691 44.8497 3.08672 47.5277 6.39023 47.5277C9.69374 47.5277 12.3718 44.8497 12.3718 41.5462V34.9124Z" fill="#4A3AFF"/>
<path d="M12.3718 6.4473C12.3718 3.14379 9.69374 0.465759 6.39023 0.465759C3.08672 0.465759 0.408691 3.14379 0.408691 6.4473C0.408691 9.75081 3.08672 12.4288 6.39023 12.4288C9.69374 12.4288 12.3718 9.75081 12.3718 6.4473Z" fill="#9328FF"/>
<path d="M29.778 20.2917C29.778 16.9882 27.1 14.3102 23.7965 14.3102C20.493 14.3102 17.8149 16.9882 17.8149 20.2917V41.5463C17.8149 44.8499 20.493 47.5279 23.7965 47.5279C27.1 47.5279 29.778 44.8499 29.778 41.5463V20.2917Z" fill="#4A3AFF"/>
<path d="M47.1843 6.4473C47.1843 3.14379 44.5062 0.465759 41.2027 0.465759C37.8992 0.465759 35.2212 3.14379 35.2212 6.4473V41.546C35.2212 44.8495 37.8992 47.5275 41.2027 47.5275C44.5062 47.5275 47.1843 44.8495 47.1843 41.546V6.4473Z" fill="#4A3AFF"/>
</g>
<defs>
<clipPath id="clip0_1123_6041">
<rect width="48" height="48" fill="white"/>
</clipPath>
</defs>
</svg>
