<svg width="48" height="48" viewBox="0 0 48 48" fill="none" xmlns="http://www.w3.org/2000/svg">
<g clip-path="url(#clip0_1123_6049)">
<path fill-rule="evenodd" clip-rule="evenodd" d="M30 39C31.5758 39 33.1363 38.6896 34.5922 38.0866C36.0481 37.4834 37.371 36.5996 38.4853 35.4853C39.5996 34.371 40.4834 33.0481 41.0866 31.5922C41.6896 30.1363 42 28.5758 42 27C42 22.2262 40.1035 17.6477 36.7279 14.2721C33.3523 10.8964 28.7738 9 24 9C19.2262 9 14.6477 10.8964 11.2721 14.2721C7.89642 17.6477 6 22.2262 6 27C6 28.5758 6.31039 30.1363 6.91344 31.5922C7.5165 33.0481 8.40042 34.371 9.51472 35.4853C10.629 36.5996 11.9519 37.4834 13.4078 38.0866C14.8637 38.6896 16.4242 39 18 39H30ZM24 13.8C20.4991 13.8 17.1416 15.1907 14.6662 17.6662C12.1907 20.1416 10.8 23.4991 10.8 27C10.8 27.9455 10.9862 28.8817 11.3481 29.7553C11.7099 30.6289 12.2402 31.4226 12.9089 32.0911C13.5774 32.7598 14.3711 33.29 15.2447 33.652C16.1183 34.0138 17.0545 34.2 18 34.2H30C30.9455 34.2 31.8817 34.0138 32.7553 33.652C33.6289 33.29 34.4226 32.7598 35.0911 32.0911C35.7598 31.4226 36.29 30.6289 36.652 29.7553C37.0138 28.8817 37.2 27.9455 37.2 27C37.2 23.4991 35.8093 20.1416 33.3338 17.6662C30.8584 15.1907 27.5009 13.8 24 13.8Z" fill="#3064E8"/>
<path fill-rule="evenodd" clip-rule="evenodd" d="M15.6 45C13.5514 45 11.5229 44.5344 9.63014 43.6298C7.7375 42.7253 6.01776 41.3994 4.56913 39.7279C3.12056 38.0564 1.97147 36.0722 1.18748 33.8884C0.403508 31.7045 0 29.3638 0 27C0 20.6348 2.52857 14.5303 7.02944 10.0294C11.5303 5.52857 17.6348 3 24 3C30.3652 3 36.4697 5.52857 40.9705 10.0294C45.4715 14.5303 48 20.6348 48 27C48 29.3638 47.5964 31.7045 46.8125 33.8884C46.0285 36.0722 44.8794 38.0564 43.4309 39.7279C41.9822 41.3994 40.2625 42.7253 38.3699 43.6298C36.4771 44.5344 34.4486 45 32.4 45H15.6ZM10.4235 13.4235C14.0243 9.82285 18.9078 7.8 24 7.8C29.0922 7.8 33.9757 9.82285 37.5764 13.4235C41.1772 17.0243 43.2 21.9078 43.2 27C43.2 28.8215 42.8885 30.6128 42.2948 32.2666C41.7012 33.9202 40.8451 35.3825 39.8035 36.5843C38.7631 37.7848 37.5654 38.6942 36.3 39.299C35.0377 39.9024 33.7148 40.2 32.4 40.2H15.6C14.2852 40.2 12.9623 39.9024 11.7 39.299C10.4346 38.6942 9.23688 37.7848 8.19644 36.5843C7.1549 35.3825 6.29884 33.9202 5.7052 32.2666C5.11153 30.6128 4.8 28.8215 4.8 27C4.8 21.9078 6.82285 17.0243 10.4235 13.4235Z" fill="#3064E8"/>
<path d="M30 33H23.9947C23.5915 32.9996 23.1913 32.9586 22.8 32.8788C22.0416 32.724 21.3164 32.423 20.6666 31.9888C19.6799 31.3295 18.9108 30.3925 18.4567 29.2961C18.3095 28.9405 18.1974 28.5734 18.1212 28.2C17.9623 27.4218 17.9588 26.6159 18.1153 25.8294C18.3468 24.6655 18.9182 23.5964 19.7574 22.7574C20.5964 21.9182 21.6655 21.3468 22.8294 21.1153C22.8659 21.108 22.9022 21.1012 22.9387 21.0946C23.2904 21.0314 23.6456 21 24 21C24.7842 21 25.5646 21.1537 26.2961 21.4567C27.3924 21.9108 28.3295 22.6799 28.9888 23.6665C29.6482 24.6533 30 25.8133 30 27H25.2C25.2 26.7626 25.1297 26.5307 24.9978 26.3333C24.8659 26.136 24.6785 25.9822 24.4592 25.8913C24.24 25.8005 23.9987 25.7767 23.7659 25.823C23.5331 25.8694 23.3192 25.9836 23.1515 26.1515C22.9836 26.3192 22.8694 26.5331 22.823 26.7659C22.7767 26.9987 22.8005 27.24 22.8913 27.4592C22.9822 27.6785 23.136 27.8659 23.3333 27.9978C23.5307 28.1297 23.7626 28.2 24 28.2H30C30.1576 28.2 30.3137 28.1689 30.4592 28.1087C30.6048 28.0483 30.737 27.96 30.8485 27.8485C30.96 27.737 31.0483 27.6048 31.1087 27.4592C31.1689 27.3137 31.2 27.1576 31.2 27C31.2 25.0904 30.4415 23.2591 29.0911 21.9089C27.7409 20.5585 25.9096 19.8 24 19.8C23.7929 19.8 23.5867 19.8089 23.382 19.8265C22.8788 19.8698 22.3842 19.9658 21.906 20.1113C21.4355 20.2542 20.9808 20.4451 20.5492 20.6808C20.0548 20.9508 19.5906 21.2796 19.1676 21.6626C19.0795 21.7423 18.9932 21.8244 18.9089 21.9089C18.3181 22.4995 17.8406 23.1824 17.4904 23.9236C17.3153 24.2941 17.1719 24.6792 17.0622 25.0747C16.9367 25.5269 16.8551 25.9925 16.8199 26.4653C16.8067 26.6426 16.8 26.821 16.8 27C16.8 27.9409 16.9844 28.8775 17.348 29.7553C17.8931 31.071 18.8159 32.1954 19.9999 32.9866C20.0066 32.9911 20.0134 32.9956 20.0201 33H18C17.2121 33 16.4318 32.8448 15.7039 32.5433C14.976 32.2417 14.3146 31.7998 13.7574 31.2426C13.2002 30.6854 12.7583 30.024 12.4567 29.2961C12.1552 28.5682 12 27.7879 12 27C12 23.8174 13.2643 20.7652 15.5147 18.5147C17.7652 16.2643 20.8174 15 24 15C27.1826 15 30.2348 16.2643 32.4853 18.5147C34.7357 20.7652 36 23.8174 36 27C36 27.7879 35.8448 28.5682 35.5433 29.2961C35.2417 30.024 34.7998 30.6854 34.2426 31.2426C33.6854 31.7998 33.024 32.2417 32.2961 32.5433C31.5682 32.8448 30.7879 33 30 33Z" fill="#3064E8"/>
</g>
<defs>
<clipPath id="clip0_1123_6049">
<rect width="48" height="42" fill="white" transform="translate(0 3)"/>
</clipPath>
</defs>
</svg>
