<svg width="48" height="48" viewBox="0 0 48 48" fill="none" xmlns="http://www.w3.org/2000/svg">
<path d="M1.94391 29.2899C1.94391 27.0299 2.37995 24.7919 3.2272 22.704C4.07446 20.6159 5.31625 18.7187 6.88176 17.1206C8.44725 15.5225 10.3057 14.2548 12.3511 13.3899C14.3966 12.5251 16.5888 12.0799 18.8028 12.0799V29.2899H1.94391Z" fill="#442781"/>
<path d="M1.94391 29.2899C1.94391 31.55 2.37995 33.7879 3.2272 35.876C4.07446 37.964 5.31625 39.8612 6.88176 41.4593C8.44725 43.0574 10.3057 44.3251 12.3511 45.19C14.3966 46.0549 16.5888 46.5 18.8028 46.5V29.2899H1.94391Z" fill="#61459C"/>
<path d="M35.6614 29.2899C35.6614 31.55 35.2257 33.7879 34.3785 35.876C33.5313 37.964 32.2895 39.8612 30.7237 41.4593C29.1583 43.0574 27.2998 44.3251 25.2543 45.19C23.209 46.0549 21.0167 46.5 18.8028 46.5V29.2899H35.6614Z" fill="#A992DB"/>
<path d="M46.0561 14.422C46.0561 21.5586 40.3885 27.344 33.3977 27.344H20.7395V14.422C20.7395 7.2854 26.4068 1.5 33.3977 1.5C40.3885 1.5 46.0561 7.2854 46.0561 14.422Z" fill="#FF7917"/>
</svg>
