<svg width="48" height="48" viewBox="0 0 48 48" fill="none" xmlns="http://www.w3.org/2000/svg">
<g clip-path="url(#clip0_1123_6097)">
<path opacity="0.645" d="M0 -0.00012207V3.46745V10.1382V17.3291C0 22.8858 4.58351 27.4674 10.1403 27.4674H27.4695V17.3291V10.1382C27.4695 4.5815 22.8881 -0.00012207 17.3313 -0.00012207H0ZM6.93704 6.93702H17.3313C19.1653 6.93702 20.5325 8.30411 20.5325 10.1382V17.3291V20.5324H10.1403C8.30629 20.5324 6.93704 19.1631 6.93704 17.3291V10.1382V6.93702Z" fill="#0066FF"/>
<path opacity="0.645" d="M30.6707 -0.00012207C25.114 -0.00012207 20.5325 4.5815 20.5325 10.1382V17.3291V27.4674H37.8617C43.4185 27.4674 48 22.8858 48 17.3291V10.1382V-0.00012207H44.5325H30.6707ZM30.6707 6.93702H41.065V10.1382V17.3291C41.065 19.1631 39.6958 20.5324 37.8617 20.5324H27.4695V17.3291V10.1382C27.4695 8.30411 28.8367 6.93702 30.6707 6.93702Z" fill="#D4AA00"/>
<path opacity="0.645" d="M10.1403 20.5325C4.58351 20.5325 0 25.1138 0 30.6708V37.8617V48H3.46952H17.3313C22.8881 48 27.4695 43.4184 27.4695 37.8617V30.6708V20.5325H10.1403ZM10.1403 27.4674H20.5325V30.6708V37.8617C20.5325 39.6958 19.1653 41.0629 17.3313 41.0629H6.93704V37.8617V30.6708C6.93704 28.8367 8.30629 27.4674 10.1403 27.4674Z" fill="#D4AA00"/>
<path opacity="0.645" d="M20.5325 20.5325V30.6708V37.8617C20.5325 43.4184 25.114 48 30.6707 48H48V44.5306V37.8617V30.6708C48 25.1138 43.4185 20.5325 37.8617 20.5325H20.5325ZM27.4695 27.4674H37.8617C39.6958 27.4674 41.065 28.8367 41.065 30.6708V37.8617V41.0629H30.6707C28.8367 41.0629 27.4695 39.6958 27.4695 37.8617V30.6708V27.4674Z" fill="#0055D4"/>
</g>
<defs>
<clipPath id="clip0_1123_6097">
<rect width="48" height="48" fill="white"/>
</clipPath>
</defs>
</svg>
