<svg width="48" height="48" viewBox="0 0 48 48" fill="none" xmlns="http://www.w3.org/2000/svg">
<g clip-path="url(#clip0_1123_6118)">
<path d="M24 47.9999C34.9693 47.9999 43.8616 39.1075 43.8616 28.1382C43.8616 17.169 34.9693 8.27661 24 8.27661C13.0307 8.27661 4.13837 17.169 4.13837 28.1382C4.13837 39.1075 13.0307 47.9999 24 47.9999Z" fill="#ECECEC"/>
<path d="M42.4175 3.37689e-05C42.3039 0.00572632 41.0764 0.835891 34.2694 5.38853C32.1865 6.78164 30.3021 8.02101 28.9099 8.91888C27.4648 9.85089 26.5509 10.4143 26.5509 10.3611C26.5509 10.2569 26.6704 9.71032 26.8165 9.14682C26.8759 8.91775 26.9166 8.68121 26.947 8.49644C25.9714 8.34156 24.9589 8.27786 23.9999 8.27672C13.0308 8.27682 4.13857 17.169 4.13849 28.1382C4.13838 39.1075 13.0307 47.9999 23.9999 48C24.2848 47.9967 24.5696 47.9859 24.854 47.9697C23.7729 46.3589 22.8996 44.4792 22.3501 42.4969C22.1913 41.9243 22.0425 40.5222 21.9928 39.1275C21.9085 36.7686 22.0136 35.9576 22.7276 33.4544C22.7976 33.2092 22.7634 33.0705 22.633 33.0705C22.2599 33.0705 20.1841 32.1754 19.1373 31.5629C17.7947 30.7774 16.4818 29.5271 15.9295 28.5084C15.4341 27.5945 14.9501 25.4806 14.9501 24.2483C14.9537 22.2631 15.5227 20.3426 16.483 19.0797L16.8076 18.6532L16.6336 19.4209C16.538 19.8432 16.4607 20.8797 16.4607 21.7243C16.4631 25.0848 17.9648 27.6305 20.9871 29.3998C21.9737 29.9775 24.5762 30.8168 29.622 32.1847C38.2452 34.5224 38.2979 34.5339 39.4033 34.2865C41.3261 33.8562 42.5864 32.321 42.726 30.2399C42.7785 29.4589 42.7178 29.048 42.4791 28.5847C42.3049 28.2458 39.8147 25.3351 36.9453 22.1165C34.0759 18.8979 31.4889 15.9904 31.1962 15.6553L30.6641 15.0462L31.4805 14.0345C31.8281 13.6037 32.8424 12.3167 33.9158 10.9493C34.229 10.5504 34.5182 10.1836 34.8332 9.78097C36.2281 7.998 38.4529 5.15718 39.7772 3.46806C41.1015 1.77892 42.248 0.291143 42.3252 0.161987C42.3694 0.0878211 42.4554 -0.00179598 42.4175 3.37689e-05ZM25.9221 16.6084C27.2279 16.6084 28.2864 17.667 28.2864 18.9728C28.2864 20.2786 27.2279 21.3371 25.9221 21.3371C24.6163 21.3371 23.5577 20.2786 23.5577 18.9728C23.5577 17.667 24.6163 16.6084 25.9221 16.6084Z" fill="#2F0097"/>
</g>
<defs>
<clipPath id="clip0_1123_6118">
<rect width="39.7233" height="48" fill="white" transform="translate(4.13837)"/>
</clipPath>
</defs>
</svg>
