<svg width="48" height="48" viewBox="0 0 48 48" fill="none" xmlns="http://www.w3.org/2000/svg">
<g clip-path="url(#clip0_1123_6034)">
<path d="M32.0111 13.7509C40.4323 13.8091 47.3669 20.8537 47.2506 29.236C47.1408 37.5861 40.2319 44.4175 31.8883 44.4369C23.5124 44.4562 16.5195 37.4051 16.5776 29.0098C16.6358 20.5305 23.5512 13.6993 32.0111 13.7509ZM43.5796 29.1068C43.5926 22.5922 38.3188 17.3055 31.8365 17.3313C25.4771 17.3573 20.2421 22.6115 20.1775 29.0357C20.1064 35.3758 25.4189 40.7465 31.7655 40.7659C38.3512 40.7917 43.5668 35.6473 43.5796 29.1068Z" fill="#FB9A13"/>
<path d="M22.2131 46.9057C13.4882 45.025 6.76028 36.1708 6.48884 26.8319C6.20447 17.1569 12.7966 8.21869 22.1614 5.5689C30.7376 3.14532 41.1946 6.64821 44.8656 13.305C35.0834 4.20107 19.6196 5.49874 12.396 17.0987C6.9994 25.7655 8.36307 40.0033 22.2131 46.9057Z" fill="#FB9A13"/>
<path d="M18.6556 48C8.70923 45.856 1.03951 35.7623 0.730067 25.1161C0.40589 14.0868 7.92088 3.89729 18.5966 0.876559C28.3734 -1.88631 40.2943 2.10695 44.4792 9.69562C33.3275 -0.682769 15.6989 0.79656 7.4641 14.0204C1.31211 23.9004 2.86668 40.1314 18.6556 48Z" fill="#FB9A13"/>
<path d="M44.5102 16.698C34.7642 8.0507 22.9563 11.6829 17.9218 18.6951C14.6516 23.2579 13.7015 28.2796 15.1169 33.6632C16.5128 38.9563 19.977 42.6402 25.3089 45.29C18.0704 44.0232 12.2409 36.8494 11.5623 28.997C10.8707 20.9248 16.1186 12.9819 23.9517 10.2545C31.4939 7.62416 40.3351 10.358 44.5102 16.698Z" fill="#FB9A13"/>
<path d="M31.9142 34.9429C35.1445 34.9429 37.7631 32.3242 37.7631 29.0939C37.7631 25.8637 35.1445 23.245 31.9142 23.245C28.6839 23.245 26.0653 25.8637 26.0653 29.0939C26.0653 32.3242 28.6839 34.9429 31.9142 34.9429Z" fill="#FB9A13"/>
</g>
<defs>
<clipPath id="clip0_1123_6034">
<rect width="48" height="48" fill="white"/>
</clipPath>
</defs>
</svg>
