<svg width="48" height="48" viewBox="0 0 48 48" fill="none" xmlns="http://www.w3.org/2000/svg">
<g clip-path="url(#clip0_1123_6024)">
<mask id="mask0_1123_6024" style="mask-type:luminance" maskUnits="userSpaceOnUse" x="0" y="0" width="48" height="48">
<path d="M48 0H0V48H48V0Z" fill="white"/>
</mask>
<g mask="url(#mask0_1123_6024)">
<path d="M45.9072 26.7456C45.528 20.4768 43.2 15.6816 39.3768 13.2456L39.2088 13.1424C36.8088 11.7336 33.156 10.6224 29.184 9.9984L32.9184 7.5984C33.0168 7.5312 33.1296 7.4496 33.2256 7.3704C33.835 6.85864 34.2161 6.12573 34.2852 5.33289C34.3543 4.54008 34.1057 3.75228 33.594 3.1428C33.0821 2.53334 32.3491 2.15212 31.5564 2.08303C30.7637 2.01395 29.9758 2.26264 29.3664 2.7744L22.0319 8.94L12.6551 0.679198C12.6143 0.643198 12.5663 0.604798 12.5231 0.571198C12.2404 0.352311 11.9173 0.191251 11.5724 0.0972137C11.2274 0.00317667 10.8673 -0.0219959 10.5127 0.0231334C9.79635 0.114276 9.14559 0.486241 8.70351 1.0572C8.48463 1.33991 8.32356 1.66296 8.22953 2.00792C8.1355 2.35287 8.11032 2.71298 8.15544 3.06765C8.2466 3.78396 8.61855 4.43474 9.18951 4.8768L15.8135 10.0104C11.7719 10.7736 7.75911 12.4656 5.25351 15.924L5.19591 16.0056C1.71592 21.0192 1.83592 28.056 2.21512 31.8024C2.21512 31.836 2.21512 31.8696 2.22712 31.9032C3.13911 39.36 6.17991 44.16 11.2799 46.1832L11.3159 46.1976C14.3207 47.3592 18.4463 48 22.9295 48C25.68 48 29.808 47.76 33.8544 46.5888C38.2176 45.3288 41.3232 43.3104 43.0872 40.5888C43.1352 40.512 43.1832 40.4352 43.2288 40.3488C45.1824 36.96 46.2096 31.7448 45.9072 26.7456ZM38.64 37.7064C36.4104 41.1528 29.436 42.7008 22.9295 42.7008C19.2191 42.7008 15.6623 42.1992 13.2263 41.2608C9.47991 39.78 8.03271 35.7192 7.49511 31.272C7.04151 26.8248 7.78551 21.9912 9.83991 19.032C12.0887 15.912 16.9295 14.7528 22.2383 14.7528C27.8544 14.7528 33.6792 16.0536 36.5376 17.724C41.7288 21.0192 41.5368 32.6784 38.64 37.7064Z" fill="#742BFF"/>
<path d="M18.2016 22.1136C16.1352 23.5944 19.7736 35.4216 22.2816 36.408C24.7896 37.3944 34.116 28.8792 33.1704 26.1984C32.4 24 20.2656 20.64 18.2016 22.1136Z" fill="#742BFF"/>
</g>
</g>
<defs>
<clipPath id="clip0_1123_6024">
<rect width="48" height="48" fill="white"/>
</clipPath>
</defs>
</svg>
