<svg width="48" height="48" viewBox="0 0 48 48" fill="none" xmlns="http://www.w3.org/2000/svg">
<path fill-rule="evenodd" clip-rule="evenodd" d="M24.4708 46.6163C34.4473 46.6163 43.2943 40.0281 46.1178 30.4281C38.266 31.7367 29.8003 28.4841 24.4708 22.7104C19.1412 28.4841 10.6757 31.7367 2.82373 30.4281C5.83549 40.2163 14.4943 46.6163 24.4708 46.6163Z" fill="#057475"/>
<path fill-rule="evenodd" clip-rule="evenodd" d="M47.0589 25.7221C47.0589 15.1696 41.4469 5.49171 30.8706 2.38101C31.8419 8.20896 30.1673 14.565 27.106 19.5105C32.1666 24.8122 39.8698 27.5195 47.0589 25.7221Z" fill="#69C5C5"/>
<path fill-rule="evenodd" clip-rule="evenodd" d="M21.6472 19.3222C18.5098 14.4955 16.9241 8.1315 17.8824 2.38101C7.39169 5.52825 1.88245 15.259 1.88245 25.7221C9.03852 27.5112 16.8229 24.8701 21.6472 19.3222Z" fill="#69C5C5"/>
<path fill-rule="evenodd" clip-rule="evenodd" d="M24.4705 15.3694C25.9764 12.5459 26.7293 9.34588 26.7293 5.95765C26.7293 4.45176 26.5411 2.94589 26.1647 1.44C25.5999 1.44 25.0352 1.44 24.4705 1.44C23.9058 1.44 23.3411 1.44 22.7763 1.44C22.3999 2.94589 22.2117 4.45176 22.2117 5.95765C22.2117 9.34588 23.1529 12.5459 24.4705 15.3694Z" fill="#057475"/>
</svg>
