<svg width="48" height="48" viewBox="0 0 48 48" fill="none" xmlns="http://www.w3.org/2000/svg">
<g clip-path="url(#clip0_1123_6025)">
<path d="M47.8715 11.5799C48.4728 9.22131 47.0481 6.82185 44.6895 6.22063C42.3308 5.61941 39.9313 7.04407 39.3301 9.40273C38.7289 11.7613 40.1536 14.1609 42.5122 14.762C44.8708 15.3633 47.2704 13.9386 47.8715 11.5799Z" fill="#1C3CF1"/>
<path d="M33.0698 7.62843C37.1427 2.54614 30.0016 -2.56212 26.2697 2.09355C26.0603 2.30342 1.86062 32.1274 1.69684 32.3758C-2.60331 37.7413 4.23768 43.2243 8.49688 37.9107C8.70608 37.7006 32.906 7.87663 33.0698 7.62843Z" fill="#1C3CF1"/>
<path d="M38.4006 23.8671C42.3093 18.9901 35.4685 13.5073 31.6026 18.3304C31.3914 18.5416 14.9522 38.874 14.787 39.1245C10.8527 44.22 17.6934 49.7027 21.5851 44.6611C21.7963 44.4499 38.2358 24.1175 38.4006 23.8671Z" fill="#1C3CF1"/>
<path d="M8.21354 14.6054C10.4884 13.7399 11.6309 11.1941 10.7654 8.91912C9.89984 6.64421 7.35395 5.5017 5.07904 6.36728C2.80412 7.23284 1.66162 9.77874 2.52719 12.0537C3.39275 14.3286 5.93862 15.4711 8.21354 14.6054Z" fill="#1C3CF1"/>
</g>
<defs>
<clipPath id="clip0_1123_6025">
<rect width="48" height="48" fill="white"/>
</clipPath>
</defs>
</svg>
