<svg width="48" height="48" viewBox="0 0 48 48" fill="none" xmlns="http://www.w3.org/2000/svg">
<g clip-path="url(#clip0_1123_6027)">
<mask id="mask0_1123_6027" style="mask-type:luminance" maskUnits="userSpaceOnUse" x="0" y="0" width="48" height="48">
<path d="M48 0H0V48H48V0Z" fill="white"/>
</mask>
<g mask="url(#mask0_1123_6027)">
<path d="M24 0C30.3653 0 36.4697 2.52857 40.9706 7.02943C45.4714 11.5303 48 17.6348 48 24C48 30.3653 45.4714 36.4697 40.9706 40.9706C36.4697 45.4714 30.3653 48 24 48H5.76C4.23235 48 2.76727 47.393 1.68707 46.313C0.606854 45.2328 0 43.7676 0 42.24V24C0 17.6348 2.52857 11.5303 7.02943 7.02943C11.5303 2.52857 17.6348 0 24 0Z" fill="url(#paint0_linear_1123_6027)"/>
<path d="M20.4215 43.3344L16.8623 40.6944L24.5424 30.2808C24.1272 30.336 23.7743 30.3792 23.4815 30.4056C23.1887 30.432 22.9559 30.4464 22.7615 30.4464C20.1663 30.4464 17.9191 29.46 16.0199 27.4872C15.1039 26.555 14.3827 25.4496 13.8985 24.2357C13.4144 23.0218 13.1769 21.7236 13.1999 20.4168C13.1788 19.0124 13.4468 17.6186 13.9872 16.3222C14.5277 15.0257 15.329 13.8543 16.3415 12.8808C17.3235 11.8686 18.5018 11.0674 19.8042 10.5264C21.1066 9.98534 22.5057 9.71587 23.9159 9.7344C25.3308 9.72031 26.7346 9.98738 28.0455 10.5201C29.3566 11.0528 30.5487 11.8405 31.5528 12.8376C33.7176 14.8968 34.8 17.3264 34.8 20.1264C34.8 22.6096 33.7455 25.2936 31.6368 28.1784L20.4215 43.3344ZM17.9231 20.0544C17.9129 20.8581 18.0627 21.6557 18.3637 22.401C18.6648 23.1462 19.111 23.8241 19.6766 24.3953C20.2421 24.9662 20.9156 25.4191 21.6578 25.7275C22.4 26.0359 23.1962 26.1936 23.9999 26.1912C25.6051 26.1958 27.1464 25.5631 28.2857 24.4325C29.425 23.3017 30.0691 21.7651 30.0768 20.16C30.0763 19.3612 29.9182 18.5702 29.611 17.8328C29.304 17.0953 28.854 16.4258 28.2874 15.8628C27.7205 15.2999 27.048 14.8545 26.3086 14.5524C25.5691 14.2503 24.7771 14.0973 23.9783 14.1024C23.1851 14.0898 22.3977 14.2393 21.6643 14.5418C20.9309 14.8443 20.2671 15.2934 19.7135 15.8616C19.1432 16.4021 18.6899 17.054 18.3819 17.7769C18.074 18.4998 17.9178 19.2782 17.9231 20.064V20.0544Z" fill="white"/>
</g>
</g>
<defs>
<linearGradient id="paint0_linear_1123_6027" x1="0" y1="24" x2="48" y2="24" gradientUnits="userSpaceOnUse">
<stop stop-color="#FF8A11"/>
<stop offset="1" stop-color="#E81894"/>
</linearGradient>
<clipPath id="clip0_1123_6027">
<rect width="48" height="48" fill="white"/>
</clipPath>
</defs>
</svg>
