<svg width="48" height="48" viewBox="0 0 48 48" fill="none" xmlns="http://www.w3.org/2000/svg">
<g clip-path="url(#clip0_1123_6102)">
<path d="M33.2383 7.78499C34.2407 9.54272 34.3187 9.91653 35.5 10.1785C36.6808 10.4403 37.9094 10.3652 39.5144 10.7908C39.5144 10.791 39.5144 10.7907 39.5162 10.7908C40.0583 10.9381 40.505 11.1957 40.9687 11.7526C41.4332 12.3105 41.8998 13.1808 42.3803 14.5106L42.3988 14.5589L42.426 14.6024C42.6147 14.8925 42.8762 15.0485 43.1052 15.1884C43.3343 15.3284 43.5429 15.4515 43.6523 15.5535C43.9053 15.7892 44.0151 16.2246 44.4383 16.6695C45.3696 17.6487 46.087 18.542 46.3921 19.1766C46.5446 19.4939 46.5824 19.7327 46.5618 19.8567C46.5413 19.981 46.5097 20.0445 46.2964 20.1436C46.0163 20.2736 45.4289 20.2532 44.7816 20.1108C44.1342 19.9685 43.4412 19.7358 42.8618 19.6004L42.8265 19.5929H42.7885C41.9894 19.5433 41.257 19.9154 40.6312 20.47C40.0054 21.0246 39.4612 21.7734 38.9876 22.5906C38.1614 24.016 37.5576 25.6414 37.2612 26.8325C37.1764 26.5482 37.0768 26.2123 36.9296 25.7545L36.9228 25.7338L36.9133 25.7143C36.5872 24.9578 35.8658 24.1092 34.1268 22.9849C34.0494 22.9349 33.9582 22.9104 33.8662 22.9145C33.7229 22.9211 33.5917 22.9967 33.5141 23.1173C33.3818 23.3229 33.4411 23.5967 33.6465 23.7293C35.3049 24.8014 35.8602 25.5164 36.0958 26.0599C36.3079 26.7226 36.4344 27.1896 36.5485 27.5341C36.6654 27.8866 36.7825 28.1799 37.0677 28.3704C37.353 28.5607 37.6478 28.5598 37.9971 28.5628C38.3465 28.5628 38.7961 28.5553 39.4574 28.5981H39.4742H39.4911C40.6338 28.5874 41.5646 28.968 41.9265 29.4055C42.1075 29.6242 42.1702 29.8298 42.1222 30.0977C42.0742 30.3655 41.8858 30.7178 41.4524 31.1195C40.1632 32.3147 39.2552 32.9138 38.1292 33.2408C37.0546 33.5528 35.7387 33.6143 33.7096 33.6172C33.7269 33.8691 33.3903 33.0378 33.7134 33.1086C35.8331 33.1188 38.271 33.1947 40.0129 31.4528C40.011 31.4528 40.1973 31.2765 40.3439 31.0903C40.4172 30.9973 40.4917 30.9088 40.5467 30.7447C40.5741 30.6627 40.6084 30.5418 40.5492 30.377C40.4903 30.2122 40.3091 30.0838 40.1825 30.0526C38.1529 29.5505 36.5005 30.124 35.0405 30.3433C33.5804 30.5626 32.3325 30.5258 30.6636 28.8882C30.5752 28.8018 30.4547 28.756 30.3313 28.7623C30.2205 28.768 30.1159 28.8156 30.0383 28.8947C29.8668 29.0693 29.8695 29.3499 30.0439 29.5213C30.3621 29.8336 30.6763 30.0927 30.9873 30.3115C29.8234 30.8123 28.3247 30.9814 26.8278 30.8664C25.2512 30.7453 23.6815 30.3121 22.5278 29.7076C22.9216 29.4075 23.3586 29.1238 23.8589 28.8645C24.0766 28.752 24.1614 28.4843 24.0484 28.2668C23.9702 28.1165 23.8131 28.0239 23.6437 28.0283V28.0302C23.6406 28.0302 23.6375 28.0302 23.6346 28.0302C23.5708 28.0327 23.5085 28.0491 23.4516 28.0782C21.6775 28.9975 20.6165 30.2128 19.6426 31.3077C18.6687 32.4025 17.7897 33.3702 16.3184 33.9845C15.6956 34.2446 14.8714 34.2069 13.7665 34.1451C12.6616 34.0835 11.2956 34.0156 9.63042 34.3298C8.5635 34.531 7.60414 35.4047 6.44966 36.3018C5.29519 37.1987 3.9828 38.1459 2.43943 38.6125C1.77411 38.8136 1.11893 38.872 0.277819 38.883C-0.0214749 39.0142 -0.037105 38.2816 0.170426 38.3397C3.20844 38.3334 5.25035 36.6787 6.87249 35.1433C7.61634 34.4392 8.13146 33.7481 8.56443 33.2537C8.99747 32.7593 9.31044 32.5051 9.66059 32.4661C9.89113 32.4407 10.6432 32.4663 11.3444 32.4194C11.6951 32.3966 12.0436 32.3555 12.3588 32.2633C12.6742 32.1708 12.9998 32.0273 13.1714 31.6786C13.533 30.9442 13.3788 30.2123 13.2733 29.6086C13.1678 29.0049 13.1029 28.5347 13.3508 28.088C13.469 27.8741 13.3915 27.605 13.1779 27.4863C13.1107 27.4488 13.0351 27.4296 12.9582 27.4302C12.9156 27.4307 12.6083 27.1288 12.5023 27.0638C12.8701 26.8265 13.2444 26.6029 13.6361 26.4064H13.638C16.4188 25.0288 18.4374 25.375 21.1275 25.4601H21.1331H21.1388C26.6326 25.5064 28.9429 23.9946 32.1323 22.1012C34.8509 20.499 36.8066 18.7248 39.1276 16.5308C39.2964 16.7212 39.4579 16.8801 39.5968 16.9932C39.7868 17.1482 40.0667 17.1194 40.2211 16.929C40.3754 16.7391 40.3463 16.4603 40.1566 16.3059C39.957 16.1433 39.3729 15.4841 39.0315 14.8759C38.8608 14.5718 38.749 14.2723 38.7281 14.0831C38.7101 13.92 38.7344 13.9024 38.792 13.8618C38.7531 13.8859 38.8058 13.8684 38.9874 13.9718C39.1938 14.0918 39.4591 14.302 39.7065 14.5264C40.2011 14.975 40.6306 15.4697 40.6306 15.4697C40.8548 15.7286 41.2755 15.6463 41.3855 15.322C41.5008 14.9805 41.4404 14.6561 41.3345 14.2872C41.2286 13.9184 41.0514 13.5159 40.8124 13.1174C40.3345 12.3203 39.6118 11.5237 38.6483 11.2022C36.4926 10.4828 34.7949 11.9834 32.7422 8.03473C32.6034 7.96022 33.1576 7.49844 33.2383 7.78499Z" fill="#FFEEAA"/>
<path d="M33.1519 7.51953C33.08 7.52204 33.0099 7.54258 32.9476 7.5785C32.7353 7.69995 32.6615 7.97048 32.7828 8.1829C33.7852 9.94063 34.8633 10.6188 36.0446 10.8808C37.2255 11.1426 38.454 11.0676 40.059 11.4932C40.059 11.4934 40.059 11.493 40.0609 11.4932C40.603 11.6404 41.0495 11.8979 41.5132 12.4549C41.9776 13.0128 42.4444 13.8832 42.9249 15.213L42.9433 15.2612L42.9706 15.3048C43.1593 15.5949 43.4208 15.751 43.6498 15.8909C43.8789 16.0309 44.0874 16.1539 44.1968 16.2558C44.4498 16.4915 44.5598 16.927 44.983 17.3719C45.9143 18.3511 46.6314 19.2444 46.9365 19.879C47.0891 20.1964 47.1271 20.4352 47.1065 20.5592C47.086 20.6835 47.0543 20.7469 46.841 20.846C46.561 20.976 45.9734 20.9555 45.3261 20.8131C44.6787 20.6708 43.9859 20.4382 43.4064 20.3028L43.3711 20.2955H43.3331C42.534 20.246 41.8014 20.6178 41.1756 21.1724C40.5499 21.727 40.0059 22.476 39.5323 23.2932C38.7061 24.7186 38.1022 26.3439 37.8058 27.535C37.721 27.2507 37.6214 26.9148 37.4742 26.457L37.4675 26.4362L37.4581 26.4168C37.1321 25.6603 36.4103 24.8117 34.6713 23.6874C34.594 23.6374 34.503 23.6127 34.4109 23.6168C34.2677 23.6235 34.1365 23.6991 34.0589 23.8197C33.9266 24.0253 33.9858 24.2991 34.1911 24.4317C35.8496 25.5039 36.4048 26.2189 36.6404 26.7623C36.8525 27.425 36.9791 27.8922 37.0932 28.2367C37.2101 28.5892 37.3273 28.8823 37.6125 29.0728C37.8978 29.2632 38.1924 29.2623 38.5417 29.2652C38.891 29.2652 39.3406 29.2579 40.0019 29.3007H40.0189H40.036C41.1786 29.29 42.1091 29.6706 42.471 30.108C42.652 30.3268 42.715 30.5322 42.667 30.8001C42.619 31.0679 42.4305 31.4203 41.9971 31.822C40.7079 33.0172 39.7997 33.6161 38.6737 33.9431C37.5477 34.2701 36.157 34.3221 33.9582 34.3197C33.7136 34.3196 33.5151 34.5176 33.5148 34.7622C33.5146 35.0067 33.7124 35.2051 33.9569 35.2057C36.1682 35.2057 37.635 35.1682 38.9212 34.7947C40.2075 34.4212 41.2658 33.7099 42.6005 32.4725C43.1286 31.983 43.447 31.4756 43.5401 30.9558C43.6331 30.4362 43.4713 29.9265 43.1537 29.5427C42.5193 28.776 41.3566 28.4031 40.0308 28.4148H40.027C39.354 28.3726 38.8665 28.3807 38.5498 28.378H38.4871C38.5254 28.3257 38.5518 28.2657 38.5643 28.2021C38.7715 27.1371 39.4143 25.2661 40.2994 23.739C40.742 22.9755 41.247 22.297 41.7649 21.8381C42.2759 21.3852 42.7734 21.1629 43.259 21.1865C43.7641 21.3082 44.4442 21.5313 45.1367 21.6837C45.8491 21.8404 46.5779 21.9505 47.2142 21.6548C47.617 21.4677 47.9142 21.1134 47.981 20.7101C48.0479 20.3069 47.9316 19.9081 47.7352 19.4999C47.3427 18.6833 46.5829 17.7725 45.6259 16.7663C45.4003 16.5291 45.2747 16.0533 44.8016 15.6125C44.5726 15.399 44.3187 15.2662 44.112 15.1399C43.9242 15.0251 43.7891 14.9175 43.733 14.8487C43.2412 13.5021 42.7495 12.56 42.1938 11.8927C41.6284 11.2136 40.9822 10.829 40.2901 10.6415H40.2882H40.2863C38.5509 10.1811 37.2401 10.2429 36.2352 10.0201C35.2302 9.79731 34.4753 9.36876 33.5515 7.74877C33.4742 7.61305 33.331 7.52808 33.1749 7.52515C33.167 7.52494 33.1592 7.52494 33.1514 7.52515L33.1519 7.51953ZM31.8838 8.19561C31.8806 8.19558 31.8775 8.19558 31.8747 8.19561C31.8105 8.19812 31.7475 8.21457 31.6902 8.24384C31.4728 8.3569 31.3885 8.6249 31.5019 8.84208C33.7464 13.1598 37.3292 12.2175 38.9141 12.7464C39.5713 12.9657 40.1939 13.6019 40.598 14.2758C40.632 14.3321 40.6392 14.3803 40.67 14.4368C40.4465 14.244 40.219 14.0477 39.979 13.9082C39.6773 13.7327 39.3246 13.5559 38.9207 13.7552C38.9087 13.7608 38.8969 13.7676 38.8854 13.7746C38.494 14.0146 38.3502 14.4908 38.3935 14.8831C38.4368 15.2754 38.6017 15.6502 38.8055 16.0134C38.9057 16.1921 39.015 16.3658 39.1278 16.531C36.7862 18.7456 34.8843 20.4756 32.2279 22.0412H32.226C29.019 23.9451 27.0268 25.3198 21.7008 25.2771C19.0734 25.1939 16.7797 24.8336 13.7886 26.316H13.7867H13.7848C11.4822 27.4707 9.96702 29.2052 7.5292 29.7166C7.2896 29.7669 7.13613 30.0019 7.18647 30.2414C7.23671 30.4809 7.47149 30.6343 7.71094 30.5842C10.4599 30.0075 12.0715 28.1673 14.1812 27.1088H14.1831C16.9639 25.7312 18.9825 26.0775 21.6726 26.1626H21.6782H21.6839C27.1777 26.2089 29.4881 24.6973 32.6775 22.8039C35.3961 21.2016 37.3516 19.4274 39.6726 17.2334C39.8414 17.4238 40.0031 17.5827 40.142 17.6959C40.332 17.8508 40.6118 17.822 40.7662 17.6316C40.9204 17.4417 40.8916 17.1628 40.7018 17.0084C40.5023 16.8458 39.9181 16.1866 39.5767 15.5783C39.406 15.2743 39.294 14.9748 39.2731 14.7856C39.2551 14.6225 39.2794 14.605 39.3371 14.5643C39.2982 14.5885 39.3508 14.5711 39.5324 14.6744C39.7388 14.7945 40.0044 15.0047 40.2517 15.229C40.7464 15.6777 41.1757 16.1724 41.1757 16.1724C41.3999 16.4312 41.8204 16.3489 41.9304 16.0246C42.0458 15.683 41.9854 15.3587 41.8795 14.9898C41.7736 14.621 41.5963 14.2185 41.3573 13.82C40.8794 13.0229 40.1568 12.2261 39.1933 11.9046C37.0376 11.1852 34.3399 12.3816 32.2872 8.433C32.209 8.28289 32.052 8.19044 31.8828 8.19478L31.8838 8.19561ZM13.5032 28.1323C13.3441 28.1342 13.1982 28.2211 13.121 28.3601C12.712 29.0973 12.8385 29.8502 12.9458 30.464C13.0531 31.0777 13.1326 31.5595 12.9209 31.9896C12.9287 31.9735 12.8598 32.0545 12.654 32.1152C12.4481 32.1755 12.149 32.2165 11.8321 32.2371C11.1983 32.2786 10.5322 32.2438 10.1077 32.288C9.40768 32.366 8.91249 32.8353 8.44188 33.3726C7.97131 33.9099 7.48885 34.5572 6.80788 35.2019C5.20597 36.7182 3.26146 38.2148 0.458047 38.1629C0.213441 38.1585 0.011378 38.3527 0.00663073 38.5973C0.00223508 38.8419 0.196482 39.044 0.441106 39.0488C3.56996 39.1063 5.76509 37.4099 7.41751 35.8458C8.16139 35.1417 8.67638 34.4507 9.10934 33.9563C9.54238 33.4619 9.85556 33.2077 10.2057 33.1688C10.4362 33.1433 11.1883 33.1688 11.8896 33.1218C12.2402 33.0991 12.5887 33.0582 12.9039 32.966C13.2193 32.8735 13.5448 32.7297 13.7164 32.381C14.0781 31.6466 13.9238 30.9148 13.8182 30.3111C13.7127 29.7073 13.6478 29.2374 13.8957 28.7906C14.0139 28.5768 13.9366 28.3076 13.723 28.189C13.6558 28.1515 13.5801 28.1317 13.5032 28.1323ZM24.1887 28.7326C24.1855 28.7326 24.1824 28.7326 24.1796 28.7326C24.1158 28.7351 24.0533 28.7518 23.9965 28.7808C22.2224 29.7002 21.1616 30.9152 20.1877 32.0101C19.2138 33.105 18.3345 34.0729 16.8633 34.6872C16.2404 34.9472 15.4163 34.9096 14.3115 34.8478C13.2066 34.7861 11.8407 34.7182 10.1756 35.0324C9.10865 35.2336 8.14924 36.1072 6.99476 37.0043C5.84029 37.9012 4.52789 38.8484 2.98453 39.3151C2.24722 39.5379 1.39529 39.5951 0.443482 39.5951C0.199021 39.5949 0.000577867 39.7927 1.52294e-07 40.0372C-0.000200792 40.2822 0.198475 40.4809 0.443482 40.4807C1.42879 40.4807 2.36538 40.4277 3.24105 40.1629C4.96715 39.6411 6.368 38.6144 7.53935 37.7042C8.71071 36.7941 9.68972 36.0268 10.3404 35.904C11.8966 35.6104 13.1621 35.6708 14.262 35.7323C15.362 35.794 16.3175 35.8753 17.2046 35.5049C18.8675 34.8106 19.8726 33.6978 20.85 32.599C21.3275 32.062 21.801 31.527 22.3483 31.022C23.6773 31.7994 25.475 32.313 27.3043 32.4535C29.1409 32.5947 31.0101 32.3621 32.4508 31.5469C33.596 32.0717 34.687 32.0783 35.7174 31.9236C37.0786 31.7191 38.3819 31.4139 39.8416 31.5888C38.3399 33.0095 36.1458 32.9247 33.9629 32.9247C33.719 32.9253 33.5214 33.1229 33.5209 33.3668C33.5207 33.6113 33.7185 33.8097 33.9629 33.8102C36.1483 33.8102 38.7342 33.9785 40.5575 32.1551C40.5556 32.1551 40.7419 31.9788 40.8885 31.7927C40.9618 31.6996 41.0363 31.6112 41.0913 31.4472C41.1188 31.3652 41.1529 31.2443 41.0938 31.0795C41.0349 30.9147 40.8538 30.7864 40.7272 30.7552C38.6976 30.253 37.0453 30.8264 35.5853 31.0456C34.1252 31.2649 32.8773 31.2281 31.2084 29.5906C31.12 29.5041 30.9995 29.4586 30.8761 29.4649C30.7653 29.4705 30.6608 29.518 30.5832 29.5971C30.4117 29.7717 30.4142 30.0523 30.5888 30.2238C30.9071 30.536 31.2213 30.7953 31.5322 31.0141C30.3684 31.515 28.8696 31.6841 27.3727 31.569C25.7962 31.4479 24.2264 31.0145 23.0727 30.41C23.4665 30.1099 23.9035 29.8263 24.4038 29.5671C24.6215 29.4545 24.7065 29.1866 24.5935 28.9691C24.5153 28.8188 24.3582 28.7262 24.1888 28.7307L24.1887 28.7326Z" fill="#FFCC00"/>
</g>
<defs>
<clipPath id="clip0_1123_6102">
<rect width="48" height="32.9611" fill="white" transform="translate(0 7.51941)"/>
</clipPath>
</defs>
</svg>
