<svg width="48" height="48" viewBox="0 0 48 48" fill="none" xmlns="http://www.w3.org/2000/svg">
<path d="M23.04 40.2541C20.8295 43.7549 16.9262 46.08 12.48 46.08C5.58749 46.08 0 40.4925 0 33.6C0 26.7075 5.58749 21.12 12.48 21.12C17.0507 21.12 20.8819 23.6373 23.04 27.1743C20.5779 31.2314 20.3983 36.3657 23.04 40.2541Z" fill="#61459C"/>
<path d="M35.5053 21.12C39.6454 21.1395 43.6857 23.2175 46.0418 26.9881C49.6943 32.8333 47.9168 40.5327 42.0717 44.1851C36.2264 47.8377 28.5271 46.0601 24.8746 40.2149C22.4525 36.3388 22.5571 31.7557 24.413 28.0512C29.1583 27.9893 33.6075 25.4209 35.5053 21.12Z" fill="#442781"/>
<path d="M12.8529 19.0462C10.9732 15.3572 10.969 10.814 13.2409 6.99201C16.7628 1.06726 24.421 -0.880602 30.3457 2.64134C36.2704 6.16328 38.2183 13.8213 34.6963 19.7461C32.3608 23.675 28.2393 25.682 24.0962 25.7297C21.8668 21.5402 17.5452 18.7623 12.8529 19.0462Z" fill="#FF8124"/>
</svg>
