<svg width="48" height="48" viewBox="0 0 48 48" fill="none" xmlns="http://www.w3.org/2000/svg">
<g clip-path="url(#clip0_1123_6031)">
<mask id="mask0_1123_6031" style="mask-type:luminance" maskUnits="userSpaceOnUse" x="0" y="0" width="48" height="48">
<path d="M48 0H0V48H48V0Z" fill="white"/>
</mask>
<g mask="url(#mask0_1123_6031)">
<mask id="mask1_1123_6031" style="mask-type:luminance" maskUnits="userSpaceOnUse" x="0" y="3" width="49" height="42">
<path d="M3.42 39.8616C7.0344 45.8616 15.732 46.008 19.3416 39.996C20.4844 38.0918 21.1267 35.9297 21.2088 33.7104L21.324 30.636C21.324 30.636 15.84 35.64 13.5792 35.3328C12.816 35.2296 13.3968 33.8136 13.6728 33.1128C14.7216 30.4728 21.0936 23.9784 21.0936 23.9784C21.0936 23.9784 21.6 14.7792 22.5 12.2568C22.9656 10.9512 23.5056 10.3536 24 10.116C24.4944 10.356 25.0344 10.9512 25.5 12.2568C26.4 14.7792 26.9064 23.9784 26.9064 23.9784C26.9064 23.9784 33.2784 30.4584 34.3272 33.1128C34.6032 33.8136 35.184 35.2296 34.4208 35.3328C32.1576 35.64 26.676 30.636 26.676 30.636L26.7912 33.7104C26.8778 36.0547 27.5897 38.3335 28.8528 40.3104C32.4768 45.9792 40.8888 45.8304 44.4288 40.1112C46.7374 36.3814 47.9731 32.0873 48 27.7008C48.0984 14.6736 37.6032 3.82801 24.576 3.52321C20.2817 3.42037 16.0384 4.47198 12.2891 6.5683C8.5397 8.66461 5.42169 11.7288 3.26042 15.4411C1.09917 19.1534 -0.0261514 23.3777 0.00191629 27.6732C0.0299841 31.9687 1.21041 36.1778 3.42 39.8616Z" fill="white"/>
</mask>
<g mask="url(#mask1_1123_6031)">
<path d="M3.42 39.8616C7.0344 45.8616 15.732 46.008 19.3416 39.996C20.4844 38.0918 21.1267 35.9297 21.2088 33.7104L21.324 30.636C21.324 30.636 15.84 35.64 13.5792 35.3328C12.816 35.2296 13.3968 33.8136 13.6728 33.1128C14.7216 30.4728 21.0936 23.9784 21.0936 23.9784C21.0936 23.9784 21.6 14.7792 22.5 12.2568C22.9656 10.9512 23.5056 10.3536 24 10.116C24.4944 10.356 25.0344 10.9512 25.5 12.2568C26.4 14.7792 26.9064 23.9784 26.9064 23.9784C26.9064 23.9784 33.2784 30.4584 34.3272 33.1128C34.6032 33.8136 35.184 35.2296 34.4208 35.3328C32.1576 35.64 26.676 30.636 26.676 30.636L26.7912 33.7104C26.8778 36.0547 27.5897 38.3335 28.8528 40.3104C32.4768 45.9792 40.8888 45.8304 44.4288 40.1112C46.7374 36.3814 47.9731 32.0873 48 27.7008C48.0984 14.6736 37.6032 3.82801 24.576 3.52321C20.2817 3.42037 16.0384 4.47198 12.2891 6.5683C8.5397 8.66461 5.42169 11.7288 3.26042 15.4411C1.09917 19.1534 -0.0261514 23.3777 0.00191629 27.6732C0.0299841 31.9687 1.21041 36.1778 3.42 39.8616Z" fill="#FBB03B"/>
<path d="M63.9 11.76C63.9 24.1032 53.424 34.1088 40.5 34.1088C27.576 34.1088 17.1 24.1104 17.1 11.76C17.1 -0.59037 23.376 -4.89117 36.3 -4.89117C49.224 -4.89117 63.9 -0.575973 63.9 11.76Z" fill="url(#paint0_linear_1123_6031)"/>
<path d="M27.3 48.3672C27.3 62.2008 -7.50004 51.852 -7.50004 38.016C-7.50004 24.18 -9.02404 23.316 3.89996 23.316C16.824 23.316 27.3 34.5312 27.3 48.3672Z" fill="url(#paint1_linear_1123_6031)"/>
</g>
</g>
</g>
<defs>
<linearGradient id="paint0_linear_1123_6031" x1="54.264" y1="29.724" x2="26.532" y2="-3.47278" gradientUnits="userSpaceOnUse">
<stop stop-color="#01DDA5"/>
<stop offset="1" stop-color="#3CADE2"/>
</linearGradient>
<linearGradient id="paint1_linear_1123_6031" x1="22.4208" y1="55.1208" x2="-3.46564" y2="24.1344" gradientUnits="userSpaceOnUse">
<stop stop-color="#FF8A11"/>
<stop offset="1" stop-color="#E81894"/>
</linearGradient>
<clipPath id="clip0_1123_6031">
<rect width="48" height="48" fill="white"/>
</clipPath>
</defs>
</svg>
