<svg width="48" height="48" viewBox="0 0 48 48" fill="none" xmlns="http://www.w3.org/2000/svg">
<g clip-path="url(#clip0_1123_6030)">
<mask id="mask0_1123_6030" style="mask-type:luminance" maskUnits="userSpaceOnUse" x="0" y="0" width="48" height="48">
<path d="M48 0H0V48H48V0Z" fill="white"/>
</mask>
<g mask="url(#mask0_1123_6030)">
<path d="M40.5336 7.46642C38.3926 5.16338 35.8095 3.3155 32.9383 2.03318C30.0672 0.750855 26.9671 0.0604024 23.8233 0.00306632C20.6794 -0.0542698 17.5562 0.52269 14.6403 1.69947C11.7243 2.87625 9.07553 4.62873 6.85209 6.85216C4.62864 9.07562 2.87616 11.7244 1.69938 14.6404C0.522598 17.5563 -0.0543613 20.6795 0.00297476 23.8234C0.0603107 26.9674 0.750766 30.0674 2.03309 32.9386C3.31541 35.8097 5.16329 38.3928 7.46633 40.5336C9.60725 42.8366 12.1904 44.6846 15.0615 45.967C17.9326 47.2493 21.0326 47.9398 24.1767 47.9969C27.3204 48.0542 30.4438 47.4773 33.3595 46.3006C36.2755 45.1238 38.9244 43.3714 41.1478 41.148C43.3711 38.9244 45.1236 36.2755 46.3006 33.3598C47.4773 30.4438 48.0543 27.3206 47.9969 24.1766C47.9395 21.0327 47.2491 17.9326 45.9667 15.0616C44.6844 12.1905 42.8367 9.60734 40.5336 7.46642ZM7.72793 40.272C4.69848 37.0183 2.67645 32.9568 1.90639 28.5782C1.13632 24.1999 1.65119 19.6921 3.38873 15.6C1.97152 19.6127 1.7712 23.9546 2.81292 28.0807C3.85464 32.2068 6.09197 35.9333 9.24408 38.7924C12.3962 41.6515 16.3226 43.5158 20.5305 44.1511C24.7385 44.7866 29.0403 44.165 32.8961 42.3641C36.7519 40.5634 39.9898 37.6637 42.2035 34.0291C44.4171 30.3946 45.5079 26.1871 45.3387 21.9348C45.1695 17.6826 43.7482 13.5751 41.2527 10.1279C38.7574 6.68061 35.2995 4.04728 31.3128 2.55842C34.6524 3.58032 37.716 5.34806 40.272 7.72802C44.3261 12.0955 46.5295 17.8647 46.4187 23.8228C46.3078 29.7809 43.8917 35.4641 39.6778 39.678C35.4641 43.8917 29.7809 46.308 23.8227 46.4186C17.8646 46.5295 12.0954 44.3263 7.72793 40.272ZM24.18 1.56483C29.5431 1.66926 34.668 3.79903 38.5255 7.5264C42.3831 11.2537 44.6873 16.3026 44.9758 21.6589C45.264 27.0154 43.5151 32.2824 40.08 36.4022C36.6451 40.5223 31.7784 43.1899 26.4576 43.8696C28.1767 43.5794 29.8512 43.069 31.44 42.3504C34.3313 41.1785 36.9048 39.3396 38.9506 36.984C40.9963 34.6284 42.4563 31.8226 43.2115 28.7954C43.9668 25.7683 43.9959 22.6054 43.2965 19.5649C42.5971 16.5244 41.1891 13.6922 39.1872 11.2992C36.4668 7.76083 32.6604 5.21299 28.3522 4.04678C24.0442 2.8806 19.4722 3.16048 15.3385 4.84353C11.2047 6.52656 7.73757 9.51972 5.46921 13.3635C3.20085 17.2073 2.25664 21.6894 2.78153 26.1216C2.31729 23.1935 2.47236 20.2006 3.23673 17.3362C4.00111 14.4718 5.35778 11.7995 7.21913 9.49202C9.33223 7.05516 11.9343 5.09004 14.8563 3.72432C17.7784 2.35861 20.955 1.62285 24.18 1.56483ZM23.9999 4.20482C19.0075 4.20921 14.2009 6.0994 10.5428 9.49692C6.88476 12.8945 4.64515 17.5485 4.27253 22.527C3.8999 27.5054 5.42177 32.441 8.53334 36.3454C11.6449 40.2494 16.1166 42.8342 21.0528 43.5816C18.21 43.2977 15.4617 42.4058 12.9941 40.9663C10.5264 39.5266 8.39736 37.5732 6.75122 35.2382C5.10511 32.9033 3.98047 30.2417 3.45362 27.4339C2.92677 24.6259 3.01003 21.7377 3.69775 18.9648C4.38549 16.192 5.6616 13.5996 7.43949 11.3634C9.21739 9.12717 11.4555 7.29955 14.0019 6.00451C16.5484 4.70947 19.3436 3.97728 22.1979 3.85766C25.0522 3.73804 27.8988 4.23379 30.5448 5.31122C28.4415 4.57447 26.2287 4.19877 23.9999 4.20002V4.20482ZM0.359938 23.4C0.361767 19.2061 1.5083 15.0922 3.67593 11.5019C5.84357 7.91155 8.95005 4.98098 12.6605 3.02611C16.371 1.07122 20.5447 0.166195 24.7315 0.408594C28.9186 0.650992 32.9599 2.03162 36.42 4.40162C32.8363 2.29871 28.7551 1.19326 24.6 1.20003H24.18H23.7599C20.5371 1.19835 17.3549 1.91932 14.4475 3.30988C11.5401 4.70047 8.98147 6.72523 6.95993 9.23522C3.74294 12.9292 1.76573 17.5391 1.30676 22.416C0.8478 27.2928 1.93021 32.1907 4.40153 36.42C1.7641 32.5908 0.354447 28.0498 0.359938 23.4ZM24.6 47.64C19.9503 47.6455 15.4091 46.2358 11.5799 43.5984C16.0467 46.2103 21.2531 47.2685 26.3849 46.6073C31.5168 45.9461 36.2851 43.6027 39.9439 39.9439C43.6027 36.2851 45.9459 31.517 46.6071 26.3851C47.2683 21.2532 46.2103 16.0468 43.5984 11.58C45.9684 15.0401 47.3489 19.0815 47.5913 23.2684C47.8337 27.4553 46.9287 31.6289 44.9739 35.3395C43.0191 39.0499 40.0884 42.1565 36.498 44.3242C32.9079 46.4916 28.7938 47.6383 24.6 47.64Z" fill="url(#paint0_linear_1123_6030)"/>
<path d="M24 36.3672C-0.347988 23.0856 17.2608 6.57599 24 17.6952C30.7392 6.57599 48.348 23.0856 24 36.3672Z" fill="white"/>
</g>
</g>
<defs>
<linearGradient id="paint0_linear_1123_6030" x1="23.9999" y1="-0.000823957" x2="23.9999" y2="48.001" gradientUnits="userSpaceOnUse">
<stop stop-color="#0B41FF"/>
<stop offset="1" stop-color="#0BA7FF"/>
</linearGradient>
<clipPath id="clip0_1123_6030">
<rect width="48" height="48" fill="white"/>
</clipPath>
</defs>
</svg>
