<svg width="48" height="48" viewBox="0 0 48 48" fill="none" xmlns="http://www.w3.org/2000/svg">
<g clip-path="url(#clip0_1123_6035)">
<mask id="mask0_1123_6035" style="mask-type:luminance" maskUnits="userSpaceOnUse" x="0" y="0" width="48" height="48">
<path d="M48 48V0L0 0V48H48Z" fill="white"/>
</mask>
<g mask="url(#mask0_1123_6035)">
<path d="M8.04403e-07 2.00955e-07C-0.00164607 6.36432 2.52554 12.4686 7.02564 16.9702C11.5257 21.4717 17.6302 24.0019 23.9961 24.0038V2.00955e-07H8.04403e-07ZM23.9961 24.0038H48V2.00955e-07C44.8471 -0.000407726 41.725 0.620239 38.8121 1.82648C35.8994 3.03271 33.2527 4.80091 31.0236 7.03003C28.7945 9.25918 27.0264 11.9056 25.8206 14.818C24.6149 17.7304 23.9949 20.8518 23.9961 24.0038ZM23.9961 24.0038V48H48C48.0002 44.8486 47.3794 41.7281 46.1731 38.8164C44.9669 35.905 43.1988 33.2594 40.9697 31.0313C38.7408 28.8029 36.0946 27.0353 33.1822 25.8295C30.2698 24.6238 27.1483 24.0034 23.9961 24.0038ZM23.9961 24.0038H8.04403e-07V48C6.36487 47.9988 12.4686 45.4699 16.9686 40.9699C21.4687 36.4699 23.9965 30.3672 23.9961 24.0038Z" fill="url(#paint0_linear_1123_6035)"/>
</g>
</g>
<defs>
<linearGradient id="paint0_linear_1123_6035" x1="-6.48" y1="44.4" x2="54.48" y2="3.6" gradientUnits="userSpaceOnUse">
<stop stop-color="#DD37E0"/>
<stop offset="1" stop-color="#0BA7FF"/>
</linearGradient>
<clipPath id="clip0_1123_6035">
<rect width="48" height="48" fill="white"/>
</clipPath>
</defs>
</svg>
