<svg width="48" height="48" viewBox="0 0 48 48" fill="none" xmlns="http://www.w3.org/2000/svg">
<path d="M2.125 20.3752C2.125 9.62633 10.8387 0.912659 21.5876 0.912659V27.7978C21.5876 38.5466 12.8739 47.2603 2.125 47.2603V20.3752Z" fill="#4A3AFF"/>
<path d="M24.4108 11.4884C24.4108 5.6476 29.1457 0.912659 34.9866 0.912659C40.8274 0.912659 45.5624 5.6476 45.5624 11.4884V12.0991C45.5624 17.9399 40.8274 22.6748 34.9866 22.6748C29.1457 22.6748 24.4108 17.9399 24.4108 12.0991V11.4884Z" fill="#4CBFFF"/>
<path d="M24.4108 36.074C24.4108 30.2331 29.1457 25.4982 34.9866 25.4982C40.8274 25.4982 45.5624 30.2331 45.5624 36.074V36.6845C45.5624 42.5254 40.8274 47.2603 34.9866 47.2603C29.1457 47.2603 24.4108 42.5254 24.4108 36.6845V36.074Z" fill="#9328FF"/>
</svg>
