<svg width="48" height="48" viewBox="0 0 48 48" fill="none" xmlns="http://www.w3.org/2000/svg">
<g clip-path="url(#clip0_1123_6076)">
<path d="M8.04714 2.21759H20.2223L26.3064 12.684L20.2223 23.1504H8.04714L1.96313 12.684L8.04714 2.21759Z" fill="#FBB03B"/>
<path d="M20.2223 45.78H8.04714L1.96313 35.316L8.04714 24.8496H20.2223L20.9831 26.1552L26.3064 35.316L20.2223 45.78Z" fill="#FBB03B"/>
<path d="M27.7776 34.4664L27.0168 33.1584L21.6935 24L27.7776 13.5336H39.9528L46.0368 24L39.9528 34.4664H27.7776Z" fill="#FBB03B"/>
<path d="M48 23.9999L40.9296 11.8367H27.7776L21.1992 0.520752H7.0704L0 12.6839L6.576 23.9999L0 35.316L7.0704 47.4792H21.1992L27.7776 36.1632H40.9296L48 23.9999ZM8.0472 2.21755H20.2224L26.3064 12.6839L20.2224 23.1503H8.0472L1.9632 12.6839L8.0472 2.21755ZM20.2224 45.7824H8.0472L1.9632 35.316L8.0472 24.8496H20.2224L20.9832 26.16L26.3064 35.3208L20.2224 45.7824ZM27.7776 34.4664L27.0168 33.1584L21.6936 23.9999L27.7776 13.5335H39.9528L46.0368 23.9999L39.9528 34.4664H27.7776Z" fill="#262933"/>
</g>
<defs>
<clipPath id="clip0_1123_6076">
<rect width="48" height="48" fill="white"/>
</clipPath>
</defs>
</svg>
