<svg width="48" height="48" viewBox="0 0 48 48" fill="none" xmlns="http://www.w3.org/2000/svg">
<path d="M38.062 14.9157H31.116C27.0137 14.9157 17.7612 12.8402 20.4959 1.36136C18.7883 2.03703 17.3233 3.21034 16.2908 4.72902C15.2584 6.24771 14.7062 8.04165 14.7061 9.87807V13.2364C14.7061 13.8241 14.726 14.3989 14.7659 14.961C23.5123 15.5463 32.17 21.7751 32.9648 33.1883C33.4168 33.2191 33.8692 33.2345 34.3222 33.2345H38.062C40.4912 33.2345 42.8209 32.2696 44.5385 30.5519C46.2561 28.8342 47.2212 26.5046 47.2212 24.0754C47.2212 21.6463 46.2561 19.3167 44.5385 17.599C42.8209 15.8813 40.4912 14.9157 38.062 14.9157Z" fill="#9328FF"/>
<path d="M13.4085 14.9158H9.66835C7.23921 14.9158 4.90957 15.8808 3.19191 17.5984C1.47425 19.3161 0.509277 21.6457 0.509277 24.0749C0.509277 26.504 1.47425 28.8337 3.19191 30.5514C4.90957 32.2689 7.23921 33.234 9.66835 33.234H16.6142C20.716 33.234 29.9685 35.3094 27.2343 46.7887C28.9417 46.1129 30.4067 44.9395 31.439 43.4207C32.4714 41.9021 33.0236 40.1082 33.0239 38.2718V34.913C33.0239 21.7856 23.0259 14.9158 13.4085 14.9158Z" fill="#4A3AFF"/>
</svg>
