<svg width="48" height="48" viewBox="0 0 48 48" fill="none" xmlns="http://www.w3.org/2000/svg">
<g clip-path="url(#clip0_1123_6083)">
<mask id="mask0_1123_6083" style="mask-type:luminance" maskUnits="userSpaceOnUse" x="0" y="0" width="48" height="48">
<path d="M48 0H0V48H48V0Z" fill="white"/>
</mask>
<g mask="url(#mask0_1123_6083)">
<path d="M24.1296 0C9.7992 0 0 9.12 0 24.1296C0 38.46 9.7992 48 24.1296 48C38.46 48 48 38.46 48 24.1296C48 9.12 38.46 0 24.1296 0ZM38.3832 38.3832C37.4491 39.3134 36.4073 40.1287 35.28 40.812V21.12L30.96 18.72V42.72C29.3966 43.1858 27.7872 43.4796 26.16 43.596V12.036L21.84 9.636V43.5816C20.2951 43.4542 18.7672 43.1693 17.28 42.732V20.16L12.96 22.56V40.8456C7.5096 37.5984 4.32 31.7256 4.32 24.12C4.32 18.0168 6.1848 12.9648 9.7152 9.5088C13.1856 6.1176 18.1704 4.32 24.1296 4.32C30.0888 4.32 34.9896 6.1104 38.4 9.4944C41.8584 12.936 43.68 17.9976 43.68 24.1344C43.68 30 41.8488 34.92 38.3832 38.3832Z" fill="#F7931E"/>
</g>
</g>
<defs>
<clipPath id="clip0_1123_6083">
<rect width="48" height="48" fill="white"/>
</clipPath>
</defs>
</svg>
