<svg width="48" height="48" viewBox="0 0 48 48" fill="none" xmlns="http://www.w3.org/2000/svg">
<g clip-path="url(#clip0_1123_6121)">
<path d="M41.4439 0L35.1803 8.97101H37.9744C37.7703 16.5527 31.6346 22.5669 24.0006 22.5669C12.4932 22.5669 3.09006 31.9697 3.0896 43.477C3.08955 43.8752 3.10119 44.2734 3.12381 44.6711C3.1417 45.1309 3.25101 45.5825 3.44539 45.9995C3.63977 46.4166 3.9153 46.7908 4.2559 47.1002C4.5965 47.4096 4.9953 47.648 5.42908 47.8015C5.86286 47.955 6.3229 48.0206 6.7823 47.9944C7.24169 47.9681 7.69127 47.8506 8.10473 47.6486C8.5182 47.4467 8.88728 47.1645 9.19043 46.8183C9.49358 46.4722 9.72472 46.069 9.87034 45.6325C10.0159 45.196 10.0731 44.7349 10.0385 44.276C10.0233 44.0102 10.0159 43.7443 10.0159 43.4779C10.0159 35.7135 16.236 29.4933 24.0004 29.4933C35.3778 29.4933 44.6909 20.3003 44.9006 8.97101H47.7064L41.4439 0Z" fill="#849F34"/>
<path d="M23.9999 16.3795C28.3729 16.3795 31.9179 12.8345 31.9179 8.46152C31.9179 4.08853 28.3729 0.543457 23.9999 0.543457C19.6269 0.543457 16.0819 4.08853 16.0819 8.46152C16.0819 12.8345 19.6269 16.3795 23.9999 16.3795Z" fill="#D76427"/>
<path d="M35.8522 16.0345C33.388 19.9683 29.0182 22.5669 24.0005 22.5669C15.3422 22.5669 7.87721 27.8911 4.71021 35.4286H12.5439C15.066 31.832 19.2417 29.4933 24.0005 29.4933C32.8857 29.4933 40.5117 23.8868 43.5263 16.0345H35.8522Z" fill="url(#paint0_linear_1123_6121)"/>
<path d="M6.55739 0L0.293823 8.97101H3.09957C3.30774 20.2166 12.4872 29.3525 23.7499 29.487C23.8334 29.4922 23.917 29.4943 24.0007 29.4934C31.7651 29.4934 37.9843 35.7136 37.9843 43.478C37.9843 43.7445 37.9769 44.011 37.9617 44.2771C37.9319 44.7333 37.9928 45.1909 38.1408 45.6235C38.2888 46.056 38.5209 46.4551 38.8239 46.7975C39.1268 47.1399 39.4946 47.4189 39.9059 47.6185C40.3172 47.8181 40.7639 47.9343 41.2204 47.9603C41.6768 47.9864 42.1339 47.9218 42.5653 47.7704C42.9967 47.6189 43.3938 47.3836 43.7338 47.078C44.0737 46.7723 44.3498 46.4023 44.5461 45.9894C44.7424 45.5765 44.855 45.1287 44.8774 44.6721C44.9 44.2742 44.9106 43.8765 44.9106 43.478C44.9106 32.0543 35.6439 22.7093 24.2512 22.5733C24.1677 22.5681 24.0841 22.566 24.0005 22.5669C16.3665 22.5669 10.2299 16.5527 10.0258 8.97101H12.8199L6.55739 0Z" fill="#99B83C"/>
</g>
<defs>
<linearGradient id="paint0_linear_1123_6121" x1="43.4063" y1="16.1536" x2="4.50277" y2="35.3167" gradientUnits="userSpaceOnUse">
<stop stop-color="#849F34" stop-opacity="0"/>
<stop offset="0.502976" stop-color="#1A1A1A" stop-opacity="0.682"/>
<stop offset="1" stop-color="#849F34" stop-opacity="0"/>
</linearGradient>
<clipPath id="clip0_1123_6121">
<rect width="47.4126" height="48" fill="white" transform="translate(0.293701)"/>
</clipPath>
</defs>
</svg>
