<svg width="48" height="48" viewBox="0 0 48 48" fill="none" xmlns="http://www.w3.org/2000/svg">
<g clip-path="url(#clip0_1123_6134)">
<path d="M3.69823 2.58997C1.65769 2.59009 0.00397492 4.2434 0.00373159 6.2829V11.6742H17.9828C18.2545 10.9913 18.7228 10.4043 19.3282 9.98762C19.9337 9.57093 20.6492 9.34324 21.3841 9.33338C21.4003 9.33328 21.4165 9.33328 21.4328 9.33338C22.4176 9.33343 23.3622 9.72464 24.0587 10.421C24.7551 11.1173 25.1465 12.0618 25.1468 13.0466C25.147 13.5345 25.051 14.0176 24.8645 14.4684C24.6779 14.9191 24.4044 15.3287 24.0595 15.6738C23.7146 16.0188 23.3051 16.2925 22.8544 16.4793C22.4037 16.666 21.9206 16.7621 21.4328 16.7622C20.689 16.762 19.9624 16.5386 19.3471 16.1208C18.7318 15.7031 18.2561 15.1102 17.9815 14.419H0.00251248V22.6268H29.7857C30.0574 21.9438 30.5257 21.3569 31.1311 20.9402C31.7366 20.5235 32.4521 20.2958 33.187 20.286C33.2033 20.2859 33.2195 20.2859 33.2357 20.286C34.2207 20.286 35.1653 20.6774 35.8618 21.3739C36.5583 22.0704 36.9496 23.015 36.9497 24C36.9498 24.4878 36.8537 24.9708 36.6671 25.4215C36.4805 25.8721 36.207 26.2816 35.8621 26.6266C35.5172 26.9715 35.1078 27.2452 34.6571 27.4319C34.2065 27.6186 33.7235 27.7147 33.2357 27.7148C32.4921 27.7147 31.7657 27.4915 31.1504 27.074C30.5351 26.6566 30.0592 26.064 29.7845 25.3731H0.00129646V33.5794H17.9804C18.2521 32.8964 18.7203 32.3095 19.3258 31.8928C19.9312 31.4761 20.6467 31.2484 21.3817 31.2386C21.3979 31.2385 21.4141 31.2385 21.4303 31.2386C22.4153 31.2386 23.36 31.6299 24.0565 32.3264C24.753 33.0229 25.1443 33.9676 25.1444 34.9526C25.1444 35.4404 25.0484 35.9234 24.8618 36.3741C24.6752 36.8247 24.4016 37.2343 24.0568 37.5792C23.7119 37.9242 23.3024 38.1978 22.8518 38.3845C22.4011 38.5712 21.9181 38.6673 21.4303 38.6673C20.6868 38.6673 19.9603 38.4442 19.345 38.0267C18.7297 37.6092 18.2539 37.0167 17.9791 36.3258H0V41.7169C0.000324449 43.7563 1.65396 45.4096 3.69458 45.41H34.0711C35.3908 45.41 36.6098 44.7058 37.2697 43.5635L47.5048 25.8465C48.1651 24.7037 48.1651 23.2962 47.5048 22.1535L37.2697 4.4365C36.6098 3.29434 35.3908 2.59047 34.0711 2.58997H3.69823Z" fill="url(#paint0_linear_1123_6134)"/>
</g>
<defs>
<linearGradient id="paint0_linear_1123_6134" x1="0.00403608" y1="24" x2="48.004" y2="24" gradientUnits="userSpaceOnUse">
<stop stop-color="#0044AA"/>
<stop offset="1" stop-color="#D35FBC"/>
</linearGradient>
<clipPath id="clip0_1123_6134">
<rect width="48" height="42.82" fill="white" transform="translate(0 2.58997)"/>
</clipPath>
</defs>
</svg>
