<svg width="48" height="48" viewBox="0 0 48 48" fill="none" xmlns="http://www.w3.org/2000/svg">
<g clip-path="url(#clip0_1123_6106)">
<path d="M3.21057 10.72V18.0532L24.1212 28.7731L44.7897 18.0532V10.72L24.1212 21.2561L3.21057 10.72ZM3.21057 20.3334V27.6667L24.1212 38.3866L44.7897 27.6667V20.3334L24.1212 30.8696L3.21057 20.3334ZM3.21057 29.9472V37.2801L24.1624 48L44.7897 37.2801V29.9472L24.1212 40.4834L3.21057 29.9472Z" fill="#4D4D4D"/>
<path d="M24.1212 0V7.51701L35.2843 13.2073L42.4765 9.5201L24.1212 0Z" fill="black"/>
<path d="M24.1211 -0.00012207V7.51697L12.9581 13.2073L5.76587 9.52007L24.1211 -0.00012207Z" fill="#4D4D4D"/>
<path d="M44.7897 10.72L24.1212 21.2561V28.7731L44.7897 18.0532V10.72ZM44.7897 20.3334L24.1212 30.8696V38.3866L44.7897 27.6667V20.3334ZM44.7897 29.9472L24.1212 40.4834V47.9791L24.1624 48L44.7897 37.2801V29.9472Z" fill="black"/>
</g>
<defs>
<clipPath id="clip0_1123_6106">
<rect width="41.5791" height="48" fill="white" transform="translate(3.21045)"/>
</clipPath>
</defs>
</svg>
