<svg width="48" height="48" viewBox="0 0 48 48" fill="none" xmlns="http://www.w3.org/2000/svg">
<g clip-path="url(#clip0_1123_6132)">
<path d="M23.9998 0C14.3376 0 6.53845 7.79909 6.53845 17.4613V30.5386C6.53845 37.7644 10.9006 43.9476 17.1414 46.6068C17.1785 46.6267 17.2173 46.643 17.2574 46.6554C19.3309 47.5212 21.608 48 23.9998 48C26.3921 48 28.6694 47.5207 30.7431 46.6546C30.7838 46.6419 30.8232 46.6254 30.8607 46.6051C37.1 43.9453 41.4611 37.7633 41.4611 30.5386V24.9941C41.4616 24.9794 41.4616 24.9646 41.4611 24.9498V17.4614C41.4611 7.7991 33.6621 0 23.9998 0ZM23.9998 1.3096C25.8328 1.3096 27.5895 1.61513 29.228 2.17073C28.3553 3.61227 27.8868 5.26862 27.8868 6.96408C27.8868 12.069 32.0395 16.2208 37.1444 16.2208C38.138 16.2208 39.1226 16.0588 40.0621 15.7468C40.1208 16.3102 40.1516 16.8817 40.1516 17.4613V24.2643C39.643 24.2285 39.1339 24.2045 38.6237 24.2046C33 24.2046 27.8713 26.3369 23.9998 29.8352C20.1284 26.3369 14.9997 24.2046 9.37594 24.2046C8.8659 24.2046 8.3567 24.2286 7.84804 24.2643V17.4613C7.84804 8.50197 15.0405 1.3096 23.9998 1.3096ZM30.4745 2.65076C35.2909 4.74536 38.8643 9.11152 39.8651 14.4201C38.9934 14.7381 38.0747 14.9112 37.1444 14.9112C32.7473 14.9112 29.1964 11.3613 29.1964 6.96408C29.1964 5.4293 29.6447 3.93377 30.4745 2.65076ZM23.9887 11.6491C23.8566 11.6514 23.7282 11.6935 23.6205 11.7701C23.5127 11.8466 23.4307 11.954 23.3851 12.078L21.9911 15.8712L18.1987 17.2644C18.0728 17.3106 17.9642 17.3944 17.8875 17.5043C17.8107 17.6142 17.7696 17.7451 17.7696 17.8791C17.7696 18.0132 17.8107 18.144 17.8875 18.254C17.9642 18.3639 18.0728 18.4476 18.1987 18.4938L21.9911 19.8879L23.3851 23.6803C23.4313 23.8061 23.515 23.9148 23.6249 23.9915C23.7349 24.0683 23.8657 24.1094 23.9998 24.1094C24.1339 24.1094 24.2647 24.0683 24.3746 23.9915C24.4846 23.9148 24.5683 23.8061 24.6145 23.6803L26.0078 19.8879L29.801 18.4938C29.9268 18.4476 30.0355 18.3639 30.1122 18.254C30.1889 18.144 30.2301 18.0132 30.2301 17.8791C30.2301 17.7451 30.1889 17.6142 30.1122 17.5043C30.0355 17.3944 29.9268 17.3106 29.801 17.2644L26.0078 15.8712L24.6145 12.078C24.5676 11.9504 24.4822 11.8406 24.3701 11.7637C24.2579 11.6869 24.1247 11.6468 23.9887 11.6491ZM23.9994 14.2027L24.8827 16.607C24.9155 16.6961 24.9672 16.7771 25.0343 16.8442C25.1014 16.9113 25.1824 16.9631 25.2715 16.9958L27.6758 17.8791L25.2715 18.7625C25.1824 18.7952 25.1015 18.8469 25.0343 18.9141C24.9672 18.9812 24.9155 19.0621 24.8827 19.1512L23.9994 21.5556L23.1161 19.1512C23.0833 19.0621 23.0316 18.9812 22.9645 18.9141C22.8974 18.8469 22.8165 18.7952 22.7274 18.7625L20.323 17.8791L22.7274 16.9958C22.8165 16.9631 22.8974 16.9113 22.9645 16.8442C23.0316 16.7771 23.0833 16.6961 23.1161 16.607L23.9994 14.2027ZM9.37556 25.5142C14.6357 25.5142 19.4286 27.4917 23.0581 30.7416C22.3416 31.471 21.6749 32.2496 21.0656 33.0734C17.9774 30.2832 13.8867 28.57 9.37556 28.57C8.86506 28.5699 8.35594 28.6005 7.84766 28.645V25.5782C8.35625 25.5402 8.8656 25.5142 9.37556 25.5142ZM38.6233 25.5142C39.1334 25.5142 39.6426 25.5405 40.1512 25.5782V28.645C39.643 28.6005 39.1337 28.57 38.6233 28.57C34.1279 28.57 30.0272 30.2745 26.9307 33.07C26.3221 32.2474 25.6563 31.4699 24.9407 30.7416C28.5702 27.4917 33.3631 25.5142 38.6233 25.5142ZM9.37556 29.8796C13.6175 29.8796 17.4513 31.5071 20.3204 34.1528C19.7441 35.0386 19.23 35.9683 18.7849 36.9366C16.4117 34.4798 13.0862 32.9353 9.37556 32.9353C8.92695 32.9353 8.47963 32.9671 8.03354 33.0129C7.91107 32.2068 7.84766 31.3804 7.84766 30.5386V29.9605C8.35564 29.9124 8.86514 29.8795 9.37556 29.8796ZM38.6233 29.8796C39.1338 29.8795 39.6431 29.9123 40.1512 29.9605V30.5386C40.1512 31.3804 40.0878 32.2068 39.9653 33.0129C39.5193 32.9669 39.072 32.9353 38.6233 32.9353C34.9314 32.9353 31.5953 34.4707 29.2131 36.934C28.768 35.9661 28.2539 35.0367 27.6775 34.1511C30.5545 31.4994 34.3971 29.8796 38.6233 29.8796ZM23.9994 31.6393C24.7199 32.3714 25.3847 33.1583 25.9894 33.9917C25.2521 34.7651 24.5844 35.6045 23.9977 36.5026C23.4115 35.6058 22.7474 34.7644 22.0103 33.9908C22.6148 33.1578 23.2791 32.3711 23.9994 31.6393ZM9.37556 34.2449C12.9284 34.2449 16.082 35.8037 18.2324 38.2513C17.7616 39.4831 17.4004 40.7678 17.1582 42.0948C15.7157 39.255 12.7727 37.3006 9.37556 37.3006C9.35648 37.3006 9.33741 37.3006 9.31833 37.3006C8.88109 36.3472 8.53511 35.3437 8.28841 34.2995C8.64988 34.2663 9.01234 34.2432 9.37548 34.2432L9.37556 34.2449ZM38.6233 34.2449C38.9866 34.2449 39.349 34.2675 39.7103 34.3012C39.4636 35.3454 39.1176 36.349 38.6804 37.3024C38.6613 37.3022 38.6423 37.3024 38.6232 37.3024C35.2261 37.3024 32.283 39.2567 30.8406 42.0965C30.5985 40.77 30.2379 39.4853 29.7672 38.2538C31.9261 35.7973 35.09 34.2466 38.6232 34.2466L38.6233 34.2449ZM21.2634 35.0941C22.0134 35.9091 22.6786 36.8009 23.2492 37.7559C22.5909 38.9749 22.0718 40.2804 21.717 41.6515C21.2474 40.3341 20.5706 39.1122 19.7261 38.0228C20.1594 37.0006 20.6771 36.0232 21.2634 35.0941ZM26.7354 35.0941C27.3213 36.0225 27.8387 36.999 28.2718 38.0202C27.4281 39.1082 26.7517 40.3309 26.2818 41.6523C25.9269 40.2829 25.4077 38.9776 24.748 37.7568C25.3189 36.8006 25.9857 35.9087 26.7354 35.0941ZM10.0116 38.6426C13.4638 38.9348 16.2267 41.5756 16.7122 44.9681C13.9063 43.5562 11.5773 41.3518 10.0116 38.6426ZM37.9873 38.6426C36.4216 41.3517 34.0924 43.5554 31.2866 44.9673C31.7725 41.5751 34.5353 38.9348 37.9873 38.6426ZM23.9994 39.1661C25.0593 41.421 25.6098 43.9556 25.5111 46.6187C25.0132 46.6644 24.5098 46.6904 23.9994 46.6904C23.4899 46.6904 22.9873 46.6641 22.4903 46.6187C22.4827 46.423 22.4712 46.2274 22.4712 46.0313C22.4712 43.5752 23.0209 41.2494 23.9994 39.1661ZM19.1796 39.4782C20.5092 41.4647 21.2474 43.8718 21.1551 46.4389C20.1029 46.2539 19.0873 45.9688 18.1173 45.5922C18.1624 43.4573 18.5315 41.4042 19.1796 39.4782ZM28.8201 39.4827C29.4675 41.4078 29.8366 43.4596 29.8816 45.5933C28.9121 45.9697 27.897 46.2542 26.8455 46.4391C26.8378 46.3036 26.8371 46.1682 26.8371 46.0324C26.8371 43.607 27.5678 41.3551 28.8201 39.4827Z" fill="url(#paint0_linear_1123_6132)"/>
</g>
<defs>
<linearGradient id="paint0_linear_1123_6132" x1="23.9998" y1="4.05158e-06" x2="24" y2="48" gradientUnits="userSpaceOnUse">
<stop stop-color="#2C2CA0"/>
<stop offset="1" stop-color="#AA0088"/>
</linearGradient>
<clipPath id="clip0_1123_6132">
<rect width="34.9231" height="48" fill="white" transform="translate(6.53845)"/>
</clipPath>
</defs>
</svg>
