<svg width="48" height="48" viewBox="0 0 48 48" fill="none" xmlns="http://www.w3.org/2000/svg">
<path d="M5.0768 47.4724C4.06172 47.4724 3.14107 46.8586 2.75391 45.9191C2.36205 44.9795 2.57923 43.8936 3.29687 43.176L16.9887 29.4842C17.9754 28.5022 19.5665 28.5022 20.5485 29.4842C21.5353 30.4662 21.5353 32.062 20.5485 33.0441L6.85672 46.7358C6.38932 47.208 5.74723 47.4724 5.0768 47.4724Z" fill="#4A3AFF"/>
<path d="M45.3864 1.02892L9.58474 36.8258C2.10619 29.3473 2.10619 17.2183 9.58474 9.73499C20.2265 -0.906819 45.3864 1.02892 45.3864 1.02892Z" fill="#9328FF"/>
<path d="M36.6757 36.8255C29.1972 44.3088 17.0681 44.3088 9.58484 36.8255L45.3865 1.02856C45.3865 1.02856 47.3222 26.1836 36.6757 36.8255Z" fill="#4A3AFF"/>
</svg>
