<svg width="48" height="48" viewBox="0 0 48 48" fill="none" xmlns="http://www.w3.org/2000/svg">
<g clip-path="url(#clip0_1123_6075)">
<mask id="mask0_1123_6075" style="mask-type:luminance" maskUnits="userSpaceOnUse" x="0" y="0" width="48" height="48">
<path d="M48 0H0V48H48V0Z" fill="white"/>
</mask>
<g mask="url(#mask0_1123_6075)">
<path d="M24.0254 23.3487C24.0254 23.3487 23.6968 19.2552 23.6968 13.797C23.2905 9.70812 22.4541 5.81405 20.2438 5.61895C19.4538 5.54923 18.7299 6.17381 18.0994 7.36649C19.2782 3.28908 24.0254 0 24.0254 0C24.0254 0 28.7729 3.28908 29.9515 7.36649C29.321 6.17381 28.5972 5.54923 27.8071 5.61895C25.5969 5.81405 24.7094 9.70812 24.3031 13.797C24.3031 19.2552 24.0254 23.3487 24.0254 23.3487Z" fill="url(#paint0_linear_1123_6075)"/>
<path d="M23.9745 24.6514C23.9745 24.6514 24.3031 28.7448 24.3031 34.2031C24.7094 38.2918 25.5458 42.186 27.7562 42.3811C28.546 42.4507 29.2699 41.8262 29.9006 40.6334C28.7217 44.7108 23.9745 48 23.9745 48C23.9745 48 19.2272 44.7108 18.0483 40.6334C18.6789 41.8262 19.4028 42.4507 20.1928 42.3811C22.403 42.186 23.2904 38.2918 23.6967 34.2031C23.6967 28.7448 23.9745 24.6514 23.9745 24.6514Z" fill="url(#paint1_linear_1123_6075)"/>
<path d="M24.6514 24.0254C24.6514 24.0254 28.7448 23.6968 34.2031 23.6968C38.2918 23.2905 42.186 22.4541 42.3811 20.2438C42.4507 19.4538 41.8262 18.7299 40.6334 18.0994C44.7108 19.2782 48 24.0254 48 24.0254C48 24.0254 44.7108 28.7729 40.6334 29.9515C41.8262 29.321 42.4507 28.5972 42.3811 27.8071C42.186 25.5969 38.2918 24.7094 34.2031 24.3031C28.7448 24.3031 24.6514 24.0254 24.6514 24.0254Z" fill="url(#paint2_linear_1123_6075)"/>
<path d="M23.3487 23.9745C23.3487 23.9745 19.2552 24.3031 13.797 24.3031C9.70812 24.7095 5.81405 25.5459 5.61895 27.7563C5.54921 28.5461 6.17381 29.2699 7.36649 29.9007C3.28908 28.7218 0 23.9745 0 23.9745C0 23.9745 3.28908 19.2272 7.36649 18.0484C6.17381 18.679 5.54923 19.4028 5.61895 20.1929C5.81405 22.4031 9.70812 23.2905 13.797 23.6968C19.2552 23.6968 23.3487 23.9745 23.3487 23.9745Z" fill="url(#paint3_linear_1123_6075)"/>
<path d="M24.4785 23.5574C24.4785 23.5574 27.1406 20.4304 31 16.5709C33.604 13.3923 35.7662 10.0474 34.3413 8.34657C33.8318 7.7386 32.8785 7.66843 31.5892 8.06587C35.3059 6.01629 40.9884 7.04738 40.9884 7.04738C40.9884 7.04738 42.0196 12.73 39.97 16.4467C40.3675 15.1574 40.2972 14.2039 39.6892 13.6946C37.9884 12.2697 34.6075 14.3957 31.4289 16.9997C27.5695 20.8592 24.4785 23.5574 24.4785 23.5574Z" fill="url(#paint4_linear_1123_6075)"/>
<path d="M23.5214 24.4423C23.5214 24.4423 20.8592 27.5695 16.9997 31.429C14.3957 34.6075 12.2336 37.9524 13.6585 39.6533C14.1679 40.2612 15.1213 40.3315 16.4106 39.9341C12.6939 41.9837 7.01131 40.9524 7.01131 40.9524C7.01131 40.9524 5.98022 35.2699 8.0298 31.5533C7.63233 32.8426 7.70253 33.7958 8.31048 34.3054C10.0113 35.7302 13.3923 33.6041 16.5708 31.0001C20.4304 27.1406 23.5214 24.4423 23.5214 24.4423Z" fill="url(#paint5_linear_1123_6075)"/>
<path d="M24.4423 24.4786C24.4423 24.4786 27.5695 27.1407 31.4289 31.0001C34.6075 33.6041 37.9523 35.7663 39.6532 34.3414C40.2611 33.8321 40.3315 32.8786 39.934 31.5893C41.9834 35.3059 40.9523 40.9887 40.9523 40.9887C40.9523 40.9887 35.2699 42.0197 31.5532 39.9701C32.8423 40.3675 33.7958 40.2975 34.3051 39.6893C35.7302 37.9887 33.604 34.6075 31 31.429C27.1406 27.5695 24.4423 24.4786 24.4423 24.4786Z" fill="url(#paint6_linear_1123_6075)"/>
<path d="M23.5575 23.5214C23.5575 23.5214 20.4304 20.8592 16.571 16.9997C13.3924 14.3958 10.0474 12.2337 8.34663 13.6586C7.73866 14.1679 7.66849 15.1214 8.06593 16.4107C6.01635 12.6939 7.04744 7.01137 7.04744 7.01137C7.04744 7.01137 12.73 5.98028 16.4467 8.02986C15.1575 7.63239 14.204 7.70259 13.6947 8.31054C12.2697 10.0114 14.3958 13.3924 16.9998 16.5709C20.8593 20.4304 23.5575 23.5214 23.5575 23.5214Z" fill="url(#paint7_linear_1123_6075)"/>
</g>
</g>
<defs>
<linearGradient id="paint0_linear_1123_6075" x1="-6.48001" y1="44.4" x2="54.48" y2="3.6" gradientUnits="userSpaceOnUse">
<stop stop-color="#DD37E0"/>
<stop offset="1" stop-color="#0BA7FF"/>
</linearGradient>
<linearGradient id="paint1_linear_1123_6075" x1="-6.48005" y1="44.4" x2="54.48" y2="3.60001" gradientUnits="userSpaceOnUse">
<stop stop-color="#DD37E0"/>
<stop offset="1" stop-color="#0BA7FF"/>
</linearGradient>
<linearGradient id="paint2_linear_1123_6075" x1="-6.47999" y1="44.4" x2="54.48" y2="3.59998" gradientUnits="userSpaceOnUse">
<stop stop-color="#DD37E0"/>
<stop offset="1" stop-color="#0BA7FF"/>
</linearGradient>
<linearGradient id="paint3_linear_1123_6075" x1="-6.48" y1="44.4" x2="54.48" y2="3.60001" gradientUnits="userSpaceOnUse">
<stop stop-color="#DD37E0"/>
<stop offset="1" stop-color="#0BA7FF"/>
</linearGradient>
<linearGradient id="paint4_linear_1123_6075" x1="-6.48004" y1="44.4" x2="54.48" y2="3.59997" gradientUnits="userSpaceOnUse">
<stop stop-color="#DD37E0"/>
<stop offset="1" stop-color="#0BA7FF"/>
</linearGradient>
<linearGradient id="paint5_linear_1123_6075" x1="-6.48003" y1="44.4" x2="54.48" y2="3.59999" gradientUnits="userSpaceOnUse">
<stop stop-color="#DD37E0"/>
<stop offset="1" stop-color="#0BA7FF"/>
</linearGradient>
<linearGradient id="paint6_linear_1123_6075" x1="-6.48006" y1="44.4" x2="54.4799" y2="3.60002" gradientUnits="userSpaceOnUse">
<stop stop-color="#DD37E0"/>
<stop offset="1" stop-color="#0BA7FF"/>
</linearGradient>
<linearGradient id="paint7_linear_1123_6075" x1="-6.47994" y1="44.4" x2="54.4801" y2="3.60001" gradientUnits="userSpaceOnUse">
<stop stop-color="#DD37E0"/>
<stop offset="1" stop-color="#0BA7FF"/>
</linearGradient>
<clipPath id="clip0_1123_6075">
<rect width="48" height="48" fill="white"/>
</clipPath>
</defs>
</svg>
