<svg width="48" height="48" viewBox="0 0 48 48" fill="none" xmlns="http://www.w3.org/2000/svg">
<g clip-path="url(#clip0_1123_6100)">
<path d="M38.1113 6.3801C38.2278 6.38141 38.3486 6.38734 38.4742 6.3994C39.7847 6.52532 40.2648 7.23216 40.4145 9.25561C40.4944 10.335 40.6226 10.9692 40.9394 11.8528C43.5307 18.7044 45.472 24.5549 41.0402 29.8006C40.5415 30.5069 39.4754 31.4087 39.4754 31.4087C40.193 34.3946 39.8315 36.4537 39.4123 38.5733C40.1584 39.4269 43.0764 39.3497 44.8387 39.863C47.0077 40.4946 48 41.6202 48 41.6202H0C4.46722 38.6631 3.68674 41.5113 7.85553 38.659C7.8748 38.6419 7.54927 37.7375 7.13215 36.649C5.3091 31.8916 5.04261 28.2198 6.28519 24.9855C6.69015 23.9314 6.63042 23.9646 6.10165 23.1577C5.52068 22.2989 5.44835 21.223 6.22084 20.4107C6.59012 20.0703 7.00303 19.8288 7.49204 19.782C8.32423 19.6852 8.96332 20.3113 9.24902 20.3718C9.46221 20.4051 9.72939 20.1742 10.2674 19.8811C12.8399 18.5002 16.8209 18.6497 20.1598 19.1732C21.3094 19.3683 25.4713 20.4125 28.8046 18.5909C27.5167 17.0592 23.4879 16.6068 23.07 14.7438C23.0209 14.4819 22.8771 14.195 22.7506 14.1061C22.624 14.0173 22.3639 13.7136 22.1726 13.4317C21.8943 13.0212 21.8251 12.7646 21.8251 12.1427C21.8251 11.1588 22.0857 10.532 22.6406 10.1831C23.0235 9.94248 23.2306 9.91584 24.3294 9.96458C26.1177 10.0439 26.8002 9.88962 28.0956 9.11274C30.1576 7.87614 32.205 7.45211 34.4387 7.79983C35.3879 7.94759 35.3882 7.94779 36.0382 7.29784C36.6858 6.65018 37.2954 6.37424 38.1113 6.3801ZM36.056 8.73341C35.8236 9.36213 35.8919 10.4951 35.8919 10.4951C35.8919 10.4951 35.4267 9.49156 35.3434 8.94637C35.3434 8.94637 35.1287 8.86825 34.7896 8.82177C33.728 8.67625 31.804 8.73411 31.0538 8.93376C30.3564 9.11934 29.9932 9.28777 27.9154 10.3908C27.1693 10.7869 26.7694 10.9128 26.1291 10.9536C25.366 11.0022 25.2912 11.0352 25.1339 11.3907C24.8966 11.9268 24.22 12.405 23.4353 12.5914C22.7701 12.7494 22.7705 12.7493 22.9547 13.1054C23.225 13.6281 24.3352 14.1206 25.4827 14.2245C26.009 14.2722 27.1508 14.7707 26.9637 14.8634C26.9637 14.8634 25.5828 14.7274 24.7637 14.7316C24.1076 14.7351 24.0849 14.7468 24.2514 14.9989C24.3472 15.1438 25.0975 15.6813 25.9005 16.0164C29.0478 17.288 31.1708 19.4056 31.4908 21.3099C30.9191 20.5482 30.435 19.8286 29.5676 19.1953C29.5676 19.1953 29.5196 19.2183 29.4998 19.2299C26.4835 21.0012 22.8339 20.7417 19.4245 20.0271C17.2737 19.669 14.1264 19.6974 12.7778 20.0845C11.4308 20.4712 10.1532 21.1895 9.36275 22.0049C8.61129 22.7802 7.49756 24.7615 7.12515 25.9859C6.74907 27.2223 6.62153 30.0229 6.87209 31.54C7.2923 34.0842 8.90904 38.5198 9.65775 39.1826C9.94549 39.4373 10.2657 39.4689 12.5624 39.4689C14.6922 39.4689 15.3821 39.5142 15.6821 38.8404C16.6412 34.9479 15.6397 31.4585 14.8898 29.312C16.2681 30.9907 16.7344 32.8623 16.9401 34.5076C17.691 34.5982 18.1922 34.5485 18.8994 34.4749C18.794 33.4842 18.7523 31.0427 19.5147 29.1605C19.5792 31.2674 19.4352 33.3606 20.0954 35.6681C20.5682 37.3773 21.2774 39.0401 21.635 39.2784C21.8345 39.4112 22.7112 39.4742 24.5363 39.4689C27.5751 39.46 27.949 39.4689 28.0957 37.7098C28.486 33.9232 28.1471 31.3221 27.7604 28.7069C28.5858 30.1019 29.0739 33.1075 29.1829 33.7304C32.6775 33.626 36.5943 32.252 38.9602 30.1503C41.0381 28.341 42.1965 25.8033 42.3985 23.2627C42.6265 20.3948 41.6892 17.2706 40.5905 14.492C39.3596 10.981 39.5242 11.199 39.3502 9.61705C39.158 7.8698 39.034 7.3071 38.1012 7.32403C37.3527 7.33537 36.3158 8.03944 36.056 8.73341ZM31.599 10.4197C31.7844 10.4279 31.9438 10.5102 32.0433 10.7124C32.5565 11.7556 31.0389 11.7617 30.1965 11.7818C30.0096 11.7863 29.3884 11.7463 29.6181 11.5362C29.8244 11.3475 29.9807 11.2094 30.3572 10.949C30.6572 10.7415 31.1911 10.4016 31.599 10.4197ZM7.67328 20.6336C7.42435 20.6209 7.1763 20.7069 6.92414 20.8936C6.02336 21.6869 6.72213 22.5812 7.28043 23.0547C7.53542 22.7398 7.73001 22.4229 7.96314 22.069C8.13016 21.8155 8.40491 21.4721 8.64766 21.1675C8.31462 20.8291 7.99332 20.6499 7.67328 20.6336ZM38.2899 32.0038C35.9409 33.3092 33.9722 34.0871 31.5408 34.5243C31.5408 34.5243 31.5362 34.9004 31.5913 35.6354C31.7593 37.8781 31.9729 39.0455 32.2619 39.3018C32.4821 39.4971 33.0009 39.5518 34.8967 39.5793C36.0784 39.5098 37.9113 39.7086 38.2534 38.7429C38.4819 37.755 39.1591 34.3227 38.2899 32.0038ZM29.2762 34.7622C29.2762 34.7622 29.2551 35.5592 29.2551 36.4386C29.2551 37.5964 29.1197 38.7195 29.1197 38.7195C29.1197 38.7195 29.7503 38.7054 30.0255 38.7054C30.2963 38.7054 31.0079 38.872 31.0079 38.872C30.7276 37.3931 30.6522 36.1698 30.5691 34.6306C30.1327 34.6808 29.7156 34.7322 29.2762 34.7622ZM17.064 35.4615C17.0933 36.5516 17.0413 37.3835 16.8898 38.5163C17.8545 38.1114 18.9272 38.5077 19.8966 38.236C19.3664 37.0675 19.2481 36.3663 18.9981 35.4274C18.3313 35.4887 17.7675 35.4787 17.064 35.4615Z" fill="#2F539D"/>
<path d="M14.8186 15.7286L14.001 13.9184L12.1908 13.1008L14.001 12.2833L14.8186 10.473L15.6361 12.2833L17.4464 13.1008L15.6361 13.9184L14.8186 15.7286Z" fill="#E55870"/>
<path opacity="0.424554" d="M16.4146 32.1003C16.6899 32.9236 16.8443 33.7403 16.9402 34.5076C17.6911 34.5982 18.3026 34.5755 18.8993 34.4749C18.8546 34.0544 18.8902 32.9873 18.925 32.1977C18.13 32.363 17.2171 32.3209 16.4146 32.1003Z" fill="#2F539D"/>
<path opacity="0.424554" d="M42.1567 19.6388C41.5868 25.9212 36.8185 31.363 28.7131 31.5426C28.8954 32.4057 29.1418 33.6009 29.1615 33.7996C29.3129 33.9337 32.175 33.6033 33.6623 33.188C35.6333 32.6408 37.1391 31.8252 38.6452 30.6574C38.8028 30.5352 38.798 30.2771 38.9602 30.1503C41.038 28.3409 42.1965 25.8032 42.3984 23.2627C42.4921 22.0841 42.387 20.8621 42.1567 19.6388Z" fill="#2F539D"/>
</g>
<defs>
<clipPath id="clip0_1123_6100">
<rect width="48" height="35.2402" fill="white" transform="translate(0 6.37988)"/>
</clipPath>
</defs>
</svg>
