<svg width="48" height="48" viewBox="0 0 48 48" fill="none" xmlns="http://www.w3.org/2000/svg">
<g clip-path="url(#clip0_1123_6114)">
<path fill-rule="evenodd" clip-rule="evenodd" d="M9.87385 9.07223C8.71712 9.05461 7.55338 9.21123 6.42912 9.58363C4.18055 10.3285 2.12944 11.9803 0.804374 14.617L0.788399 14.6489L0.774075 14.6816C-1.00106 18.7698 0.295101 24.0101 4.47514 25.9542C7.83679 27.5176 12.2285 26.3238 13.7688 22.6871C14.9168 19.9764 13.8971 16.4372 10.8697 15.3467C9.82189 14.9693 8.68091 14.9953 7.65615 15.409C6.63135 15.8227 5.69734 16.711 5.38711 17.9533C5.19395 18.7268 5.28201 19.5065 5.65417 20.2326C6.02628 20.9587 6.86665 21.6563 7.89391 21.6647C8.06275 21.6713 8.2312 21.6441 8.38935 21.5846C8.5475 21.5251 8.69214 21.4346 8.81475 21.3183C8.93736 21.202 9.03546 21.0624 9.10326 20.9076C9.17107 20.7529 9.20721 20.5861 9.20956 20.4171C9.2119 20.2482 9.18041 20.0805 9.11692 19.9239C9.05344 19.7673 8.95926 19.625 8.83992 19.5054C8.72059 19.3857 8.57852 19.2912 8.42208 19.2274C8.26564 19.1635 8.09801 19.1316 7.92905 19.1336C7.93474 19.1707 7.89104 19.1336 7.9151 19.1336C7.91975 19.1335 7.9244 19.1335 7.92905 19.1336C7.92503 19.1225 7.92208 19.1062 7.90781 19.0779C7.84534 18.956 7.81845 18.6706 7.84432 18.5669C7.94509 18.1634 8.18745 17.9251 8.60464 17.7567C9.02185 17.5883 9.58844 17.5759 10.0124 17.7289C11.515 18.2701 12.0682 20.2114 11.4379 21.6998C10.5079 23.8954 7.69335 24.6584 5.54359 23.6586C2.8167 22.3903 1.83028 18.6602 3.08621 15.7236C4.14045 13.6452 5.58235 12.5319 7.22578 11.9875C8.85388 11.4481 10.7164 11.5097 12.4809 12.0153C14.1118 12.7364 15.1127 13.8181 15.8205 15.2684C16.5383 16.739 16.9078 18.6006 17.0725 20.6447C17.1109 21.1217 17.137 21.6077 17.1557 22.0994C17.1327 22.2513 17.1376 22.4062 17.17 22.5564C17.2705 26.1458 16.9854 30.0208 17.4865 33.2821C17.6137 34.259 18.1634 34.9561 18.7603 35.5742C19.3602 36.1954 20.0673 36.7367 20.7524 37.2057C21.82 37.9365 22.8328 38.4804 23.2378 38.6901C23.4621 38.8535 23.7339 38.9386 24.0113 38.9324C24.2833 38.9342 24.5486 38.8483 24.7679 38.6876C25.1788 38.4746 26.1883 37.9314 27.2484 37.2057C27.9334 36.7367 28.6401 36.1954 29.24 35.5742C29.8375 34.9555 30.3878 34.2579 30.5142 33.2796C31.0177 30.001 30.7267 26.1028 30.8319 22.4979C30.832 22.4979 30.8319 22.4979 30.8319 22.4937C30.8504 22.3816 30.8537 22.2676 30.8417 22.1546C30.8605 21.6428 30.8878 21.1373 30.9278 20.6414C31.0925 18.5973 31.462 16.7357 32.1798 15.2651C32.8876 13.8148 33.8889 12.7331 35.5198 12.012C37.2843 11.5062 39.1469 11.4446 40.7749 11.9838C42.4184 12.5282 43.8603 13.6415 44.9145 15.7199C46.1704 18.6566 45.184 22.3866 42.4571 23.6549C40.3074 24.6547 37.4924 23.8918 36.5624 21.6962C35.9321 20.2078 36.4856 18.2664 37.9883 17.7252C38.4122 17.5725 38.9785 17.5848 39.3956 17.753C39.8128 17.9214 40.0556 18.1597 40.1563 18.5632C40.1821 18.6668 40.1563 18.9523 40.0925 19.0742C40.0782 19.1023 40.0729 19.1186 40.0712 19.1298C40.076 19.1298 40.0808 19.1298 40.0855 19.1298C40.1097 19.1298 40.0651 19.1674 40.0712 19.1298C39.9022 19.1278 39.7346 19.1597 39.5781 19.2235C39.4216 19.2874 39.2795 19.3819 39.1601 19.5015C39.0407 19.6211 38.9465 19.7634 38.883 19.9201C38.8195 20.0767 38.788 20.2444 38.7903 20.4134C38.7927 20.5824 38.8288 20.7492 38.8967 20.904C38.9645 21.0588 39.0626 21.1984 39.1853 21.3147C39.3079 21.431 39.4526 21.5215 39.6108 21.581C39.769 21.6404 39.9375 21.6676 40.1064 21.6609C41.1337 21.6529 41.9741 20.955 42.3462 20.2289C42.7183 19.5028 42.8064 18.7231 42.6132 17.9496C42.303 16.7073 41.3686 15.819 40.3438 15.4052C39.319 14.9915 38.1784 14.9656 37.1306 15.3431C34.1032 16.4336 33.0835 19.9728 34.2315 22.6834C35.7718 26.3201 40.1635 27.514 43.5252 25.9505C47.7052 24.0064 49.001 18.7661 47.2258 14.678L47.2119 14.6453L47.1959 14.6134C45.8708 11.9766 43.8201 10.3249 41.5716 9.57998C40.4473 9.20752 39.2836 9.05107 38.1268 9.06858C36.9701 9.0862 35.8202 9.27771 34.7237 9.60098L34.6508 9.62222L34.5807 9.65247C32.3588 10.6105 30.8357 12.247 29.905 14.1539C28.9744 16.0606 28.5831 18.2221 28.4046 20.4375C28.3752 20.8027 28.3529 21.1706 28.3337 21.5391L26.0972 22.815C25.9503 22.896 25.821 23.0054 25.7167 23.1369C25.6125 23.2684 25.5354 23.4192 25.4899 23.5808C25.4445 23.7423 25.4316 23.9112 25.4521 24.0778C25.4725 24.2443 25.5258 24.4051 25.6089 24.5509C25.6921 24.6966 25.8034 24.8244 25.9363 24.9268C26.0692 25.0291 26.2212 25.104 26.3834 25.1472C26.5455 25.1903 26.7146 25.2008 26.8809 25.1779C27.0471 25.1551 27.2071 25.0995 27.3517 25.0143L28.2612 24.4955C28.2469 27.6068 28.3662 30.6148 28.0102 32.9134L28.0062 32.9314L28.0022 32.9493C27.9956 32.9997 27.827 33.3856 27.4162 33.8111C27.0053 34.2365 26.4133 34.7029 25.8156 35.1121C25.1181 35.5895 24.4544 35.9706 23.9974 36.2206C23.5403 35.9706 22.8771 35.5895 22.1796 35.1121C21.5819 34.7029 20.9899 34.2365 20.579 33.8111C20.1682 33.3856 19.9993 32.9997 19.993 32.9493L19.989 32.9314L19.985 32.9134C19.6292 30.6163 19.7483 27.6108 19.734 24.5016L20.6328 25.0143C20.7773 25.0995 20.9374 25.1551 21.1036 25.1779C21.2698 25.2008 21.439 25.1903 21.6011 25.1472C21.7633 25.104 21.9152 25.0291 22.0482 24.9268C22.1811 24.8244 22.2924 24.6966 22.3755 24.5509C22.4587 24.4051 22.512 24.2443 22.5324 24.0778C22.5528 23.9112 22.54 23.7423 22.4945 23.5808C22.4491 23.4192 22.372 23.2684 22.2678 23.1369C22.1635 23.0054 22.0342 22.896 21.8872 22.815L19.6615 21.5457C19.6423 21.1749 19.6202 20.8049 19.5906 20.4375C19.4121 18.2221 19.0212 16.0606 18.0906 14.1539C17.1599 12.247 15.6368 10.6105 13.4149 9.65247L13.3448 9.62222L13.2719 9.60098C12.1754 9.27771 11.0255 9.08607 9.86875 9.06858L9.87385 9.07223Z" fill="#D4AA00"/>
</g>
<defs>
<clipPath id="clip0_1123_6114">
<rect width="48" height="29.8654" fill="white" transform="translate(0 9.06726)"/>
</clipPath>
</defs>
</svg>
