<svg width="48" height="48" viewBox="0 0 48 48" fill="none" xmlns="http://www.w3.org/2000/svg">
<g clip-path="url(#clip0_1123_6126)">
<path d="M1.37267 8.88269L15.393 12.1161L21.2168 13.3827L0.642944 11.5668C0.801844 10.6513 1.04616 9.75263 1.37267 8.88269Z" fill="#EBAD28"/>
<path d="M21.2168 15.4907L15.393 16.7519L1.29766 20.0029C0.846911 18.7503 0.566323 17.4428 0.463379 16.1155C0.493527 16.5137 0.539696 16.9106 0.601776 17.3051L21.2168 15.4907Z" fill="#BA2730"/>
<path d="M0.231994 11.9637L20.8187 13.7809V15.0926L0.203616 16.907C0.0739524 16.1323 0.00580515 15.3485 -0.00012207 14.5631C0.000967064 13.6915 0.078654 12.8217 0.231994 11.9637Z" fill="#E48413"/>
<path d="M46.6272 8.88269L32.6069 12.1161L26.7831 13.3827L47.3569 11.5668C47.198 10.6513 46.9537 9.75263 46.6272 8.88269Z" fill="#EBAD28"/>
<path d="M26.7831 15.4907L32.6069 16.7519L46.7023 20.0028C47.153 18.7502 47.4336 17.4427 47.5366 16.1155C47.5064 16.5137 47.4602 16.9106 47.3982 17.3051L26.7831 15.4907Z" fill="#BA2730"/>
<path d="M47.7679 11.9637L27.1812 13.7809V15.0926L47.7962 16.907C47.9259 16.1323 47.994 15.3485 47.9999 14.5631C47.9988 13.6915 47.9212 12.8217 47.7679 11.9637Z" fill="#E48413"/>
<path d="M23.7499 6.52954L23.7063 6.75347C23.583 7.47924 23.2252 8.55004 22.865 9.26806C22.64 9.71582 22.2838 10.2756 21.9724 10.6707C21.7139 10.9987 21.1851 11.5139 20.8535 11.7609C20.6201 11.9344 20.5825 12.0147 20.5825 12.0147L21.0662 16.7173H27.3235L27.8254 12.0147C27.8254 12.0147 27.7877 11.9355 27.5548 11.7609C27.2232 11.5139 26.694 10.9987 26.4355 10.6707C26.1241 10.2756 25.7679 9.71582 25.5433 9.26806C25.183 8.55004 24.8247 7.47924 24.702 6.75347L24.6639 6.52954H24.52H24.3762V9.37302V12.2169L24.4776 12.2628C24.5971 12.3154 24.7458 12.4539 24.803 12.5648C24.9779 12.9031 24.8409 13.3096 24.4936 13.4757C24.3123 13.5634 24.1014 13.5634 23.9201 13.4757C23.5739 13.3096 23.4358 12.9031 23.6107 12.5648C23.6698 12.4544 23.8175 12.316 23.9361 12.2628L24.0376 12.2169V9.37302V6.52954H23.8937H23.7499ZM19.501 17.4144V18.9314H28.9069V17.4144H19.501ZM21.3126 19.63L20.5083 25.8877L27.3899 21.9144L27.0956 19.63H21.3126ZM27.5276 22.9871L20.3473 27.1318L19.66 32.4852L28.1204 27.5999L27.5276 22.9871ZM24.2039 26.4868C24.5965 26.4868 24.9127 26.8029 24.9127 27.1955V28.0438H23.4952V27.1955C23.4952 26.8029 23.8113 26.4868 24.2039 26.4868ZM28.2577 28.6717L19.499 33.7281L18.8062 39.1192L28.856 33.3168L28.2577 28.6717ZM24.2039 32.5326C24.6945 32.5326 25.0896 32.9276 25.0896 33.4182V34.478H23.3183V33.4182C23.3183 32.9276 23.7133 32.5326 24.2039 32.5326ZM28.9932 34.3882L18.6468 40.3609L18.5042 41.4685H29.9041L28.9932 34.3882Z" fill="url(#paint0_linear_1123_6126)"/>
<path d="M18.267 39.7563C18.267 39.7563 17.9495 39.7647 17.8475 39.7588C17.8475 39.7588 17.7131 40.0754 17.5586 40.4464C17.4041 40.8174 17.1967 41.2411 17.0995 41.458C17.0995 41.458 17.4734 41.4644 17.6134 41.458C17.6134 41.458 17.7415 41.1462 17.8825 40.7758C18.023 40.4064 18.1789 39.9807 18.267 39.7567V39.7563ZM17.2756 39.7621C17.2756 39.7621 16.9758 39.7705 16.8798 39.7645C16.8798 39.7645 16.7185 40.0807 16.5256 40.4511C16.3328 40.8214 16.043 41.2427 15.9145 41.4588C15.9145 41.4588 16.2661 41.4652 16.3985 41.4588C16.3985 41.4588 16.5871 41.1476 16.7822 40.7796C16.9773 40.4116 17.1589 39.9859 17.2756 39.7626V39.7621ZM30.0615 39.7661C30.1502 39.9898 30.3069 40.4152 30.4484 40.7843C30.5902 41.1543 30.7193 41.4658 30.7193 41.4658C30.8594 41.4722 31.2333 41.4658 31.2333 41.4658C31.1356 41.2491 30.9268 40.8256 30.7714 40.455C30.6161 40.0844 30.481 39.7684 30.481 39.7684C30.379 39.7746 30.0615 39.7665 30.0615 39.7665V39.7661ZM16.311 39.7681C16.311 39.7681 16.0133 39.7764 15.918 39.7704C15.918 39.7704 15.7313 40.0862 15.5001 40.4558C15.2688 40.8255 14.8965 41.2443 14.7377 41.4597C14.7377 41.4597 15.087 41.4664 15.2186 41.4597C15.2186 41.4597 15.4644 41.1503 15.7127 40.7836C15.9611 40.4169 16.1677 39.9908 16.311 39.7681ZM31.0529 39.7701C31.1701 39.9931 31.353 40.4183 31.549 40.7859C31.745 41.1535 31.9339 41.4643 31.9339 41.4643C32.0663 41.4707 32.4183 41.4624 32.4183 41.4624C32.2893 41.2466 31.9981 40.8261 31.8044 40.4562C31.6107 40.0864 31.4487 39.7704 31.4487 39.7704C31.3528 39.7768 31.0529 39.7684 31.0529 39.7684V39.7701ZM32.0175 39.7733C32.1613 39.9956 32.3692 40.4211 32.6185 40.7872C32.8678 41.1533 33.1142 41.4621 33.1142 41.4621C33.2458 41.4685 33.5951 41.46 33.5951 41.46C33.4358 41.2451 33.0625 40.8273 32.8304 40.4582C32.5982 40.0891 32.4105 39.7736 32.4105 39.7736C32.3152 39.7799 32.0175 39.7716 32.0175 39.7716V39.7733ZM15.3527 39.7733C15.3527 39.7733 15.0577 39.7817 14.9632 39.7757C14.9632 39.7757 14.752 40.0914 14.4823 40.4603C14.2125 40.8293 13.7588 41.2456 13.5706 41.4602C13.5706 41.4602 13.9164 41.4666 14.0468 41.4602C14.0468 41.4602 14.3483 41.1526 14.6498 40.7873C14.9514 40.422 15.184 39.9959 15.3527 39.7737V39.7733ZM32.9758 39.7761C33.145 39.9979 33.3786 40.4231 33.681 40.7877C33.9835 41.1523 34.2859 41.4595 34.2859 41.4595C34.4164 41.4658 34.7622 41.4595 34.7622 41.4595C34.5735 41.2453 34.1188 40.8298 33.8482 40.4615C33.5776 40.0932 33.3653 39.778 33.3653 39.778C33.2708 39.7844 32.9758 39.7761 32.9758 39.7761ZM14.401 39.7788C14.401 39.7788 14.1069 39.7872 14.0126 39.7812C14.0126 39.7812 13.7782 40.0969 13.4699 40.4651C13.1616 40.8333 12.6272 41.2472 12.4105 41.4611C12.4105 41.4611 12.7544 41.4675 12.8844 41.4611C12.8844 41.4611 13.2409 41.1548 13.5955 40.7909C13.95 40.4269 14.208 40.001 14.401 39.7793V39.7788ZM33.9275 39.7788C34.121 40 34.3803 40.4254 34.7358 40.7884C35.0912 41.1515 35.448 41.4567 35.448 41.4567C35.578 41.4631 35.9223 41.4567 35.9223 41.4567C35.705 41.2433 35.1694 40.8309 34.8602 40.4634C34.5509 40.096 34.3159 39.7807 34.3159 39.7807C34.2216 39.7871 33.9275 39.7788 33.9275 39.7788ZM34.8746 39.782C35.0913 40.0028 35.3763 40.4282 35.7847 40.7897C36.1931 41.1513 36.6034 41.4549 36.6034 41.4549C36.7326 41.4613 37.0742 41.453 37.0742 41.453C36.8293 41.2402 36.2135 40.8305 35.8655 40.4639C35.5176 40.0973 35.2606 39.7824 35.2606 39.7824C35.1668 39.7888 34.8746 39.7804 34.8746 39.7804V39.782ZM13.454 39.784C13.454 39.784 13.1617 39.7924 13.0679 39.7864C13.0679 39.7864 12.8116 40.1016 12.4645 40.4691C12.1175 40.8365 11.5029 41.2479 11.2586 41.4612C11.2586 41.4612 11.6002 41.4676 11.7294 41.4612C11.7294 41.4612 12.1386 41.1566 12.5462 40.7941C12.9537 40.4315 13.2377 40.0057 13.454 39.7844V39.784ZM35.8158 39.786C36.0547 40.0063 36.3661 40.4314 36.8274 40.7914C37.0505 40.9656 37.3188 41.1416 37.484 41.2563C37.6584 41.3775 37.7507 41.4534 37.7507 41.4534C37.8786 41.4598 38.2168 41.4534 38.2168 41.4534C37.9452 41.2414 37.2498 40.8344 36.8631 40.4687C36.4765 40.1029 36.1983 39.7879 36.1983 39.7879C36.1053 39.7943 35.8158 39.786 35.8158 39.786ZM36.75 39.7892C37.0102 40.009 37.348 40.4342 37.8619 40.7926C38.1086 40.9647 38.4122 41.1424 38.5936 41.2553C38.7873 41.3758 38.8882 41.4516 38.8882 41.4516C39.0157 41.458 39.3524 41.4496 39.3524 41.4496C39.055 41.2382 38.2808 40.8339 37.8553 40.4691C37.4298 40.1042 37.1314 39.7895 37.1314 39.7895C37.0385 39.7959 36.75 39.7875 36.75 39.7875V39.7892ZM12.5127 39.7911C12.5127 39.7911 12.2232 39.7992 12.1302 39.7932C12.1302 39.7932 11.8527 40.1088 11.4669 40.4755C11.0812 40.8422 10.387 41.2511 10.1159 41.4637C10.1159 41.4637 10.4542 41.4701 10.5821 41.4637C10.5821 41.4637 10.6739 41.3874 10.848 41.2659C11.0129 41.1507 11.2811 40.9741 11.5039 40.7993C11.9642 40.4382 12.2743 40.0125 12.5127 39.7916V39.7911ZM37.6799 39.7932C37.9605 40.0126 38.3245 40.4374 38.891 40.7943C39.1607 40.9642 39.5003 41.1437 39.6969 41.2546C39.9096 41.3746 40.0192 41.4501 40.0192 41.4501C40.1454 41.4565 40.4787 41.4501 40.4787 41.4501C40.1564 41.2394 39.3041 40.8375 38.8396 40.4735C38.6279 40.3076 38.4194 40.1048 38.2992 39.9969C38.1617 39.8733 38.0578 39.7951 38.0578 39.7951C37.9657 39.8015 37.6799 39.7932 37.6799 39.7932ZM38.6029 39.7964C38.9029 40.0154 39.2939 40.4402 39.9127 40.7955C40.2046 40.9632 40.581 41.1447 40.7917 41.2535C41.023 41.373 41.1412 41.4483 41.1412 41.4483C41.2669 41.4547 41.5988 41.4462 41.5988 41.4462C41.2524 41.2361 40.3224 40.8373 39.819 40.4743C39.5863 40.3066 39.3684 40.1081 39.2374 39.9981C39.0905 39.8747 38.9796 39.7967 38.9796 39.7967C38.8876 39.8031 38.6029 39.7947 38.6029 39.7947V39.7964ZM11.5785 39.7964C11.5785 39.7964 11.29 39.8043 11.1971 39.7983C11.1971 39.7983 10.8998 40.1136 10.4752 40.4795C10.0505 40.8454 9.27725 41.2518 8.98034 41.4638C8.98034 41.4638 9.31674 41.4702 9.44415 41.4638C9.44415 41.4638 9.54538 41.3882 9.73884 41.2671C9.91988 41.1538 10.223 40.9753 10.4693 40.8025C10.9824 40.4428 11.3189 40.0172 11.5785 39.7968V39.7964ZM39.5212 39.7991C39.8398 40.0178 40.2584 40.4422 40.9293 40.7959C41.2426 40.9611 41.6573 41.145 41.881 41.2516C42.1305 41.3705 42.2562 41.4456 42.2562 41.4456C42.381 41.4519 42.7107 41.4456 42.7107 41.4456C42.3411 41.236 41.3343 40.8395 40.7917 40.4775C40.5382 40.3084 40.3109 40.1138 40.1692 40.0021C40.0132 39.8789 39.8956 39.8011 39.8956 39.8011C39.804 39.8074 39.5212 39.7991 39.5212 39.7991ZM10.649 39.8015C10.649 39.8015 10.3628 39.8098 10.2707 39.8039C10.2707 39.8039 10.1669 39.8821 10.0296 40.006C9.90981 40.1143 9.70179 40.3178 9.49041 40.4842C9.02686 40.8493 8.17549 41.2533 7.85368 41.4648C7.85368 41.4648 8.18699 41.471 8.31321 41.4648C8.31321 41.4648 8.42269 41.389 8.63511 41.2685C8.83138 41.1571 9.17058 40.9767 9.43987 40.8061C10.0054 40.4479 10.369 40.0221 10.649 39.802V39.8015ZM40.4336 39.8015C40.7702 40.0199 41.2164 40.4443 41.9393 40.7964C42.2729 40.9589 42.7277 41.1456 42.963 41.2497C43.2303 41.3681 43.3638 41.4429 43.3638 41.4429C43.4874 41.4493 43.8136 41.4409 43.8136 41.4409C43.4218 41.2319 42.3392 40.8382 41.7574 40.4771C41.4831 40.3069 41.2456 40.1161 41.0937 40.0028C40.9288 39.8799 40.8049 39.8019 40.8049 39.8019C40.7139 39.8083 40.4336 39.7999 40.4336 39.7999V39.8015ZM41.3398 39.8047C41.6937 40.0228 42.1673 40.4468 42.942 40.7973C43.3293 40.9726 43.7534 41.1312 44.0364 41.2483C44.3212 41.3661 44.4621 41.4407 44.4621 41.4407C44.585 41.4471 44.9099 41.4407 44.9099 41.4407C44.4966 41.2322 43.3388 40.8412 42.7177 40.4812C42.4225 40.3102 42.1752 40.1218 42.0132 40.0073C41.8395 39.8845 41.7092 39.8067 41.7092 39.8067C41.6183 39.8131 41.3398 39.8047 41.3398 39.8047ZM9.72601 39.8067C9.72601 39.8067 9.44129 39.8151 9.34929 39.8091C9.34929 39.8091 9.23811 39.8871 9.09153 40.0109C8.96082 40.1213 8.74374 40.32 8.51148 40.4883C8.00886 40.8525 7.07989 41.254 6.73401 41.4649C6.73401 41.4649 7.06592 41.4713 7.1916 41.4649C7.1916 41.4649 7.30931 41.3898 7.54033 41.2697C7.75075 41.1604 8.12667 40.9778 8.41818 40.8094C9.03603 40.4526 9.42656 40.027 9.72601 39.8072V39.8067ZM42.241 39.8087C42.6829 40.0685 43.0172 40.4093 43.94 40.7989C44.3531 40.9734 44.8044 41.1314 45.1043 41.248C45.4062 41.3653 45.5541 41.4396 45.5541 41.4396C45.6762 41.446 45.9989 41.4396 45.9989 41.4396C45.565 41.2316 44.3326 40.843 43.6721 40.484C43.3561 40.3123 43.0987 40.1268 42.9268 40.0113C42.7444 39.8887 42.6084 39.8111 42.6084 39.8111C42.5179 39.8174 42.241 39.809 42.241 39.809V39.8087ZM8.80773 39.8127C8.80773 39.8127 8.52494 39.821 8.43334 39.8151C8.43334 39.8151 8.31573 39.8929 8.16003 40.0164C8.01871 40.1286 7.79148 40.3237 7.53839 40.4935C6.99663 40.8568 5.9908 41.2557 5.62174 41.4662C5.62174 41.4662 5.95145 41.4725 6.07621 41.4662C6.07621 41.4662 6.20214 41.3909 6.45138 41.2714C6.67477 41.1643 7.08904 40.9793 7.40193 40.8134C8.07197 40.4581 8.48956 40.0326 8.80773 39.8131V39.8127ZM7.89489 39.8181C7.89489 39.8181 7.61497 39.8262 7.524 39.82C7.524 39.82 7.40019 39.898 7.23553 40.0214C7.08391 40.135 6.84696 40.3268 6.57306 40.4976C5.99213 40.8601 4.91012 41.2565 4.51879 41.4665C4.51879 41.4665 4.84542 41.4728 4.96899 41.4665C4.96899 41.4665 5.10235 41.3915 5.36942 41.2725C5.60444 41.1677 6.05876 40.9797 6.39189 40.8164C7.11395 40.4626 7.55877 40.0376 7.89489 39.8185V39.8181ZM6.98905 39.823C6.98905 39.823 6.71017 39.8316 6.61933 39.8255C6.61933 39.8255 6.48915 39.9037 6.3157 40.0268C6.15399 40.1417 5.90712 40.3301 5.61241 40.5019C4.99216 40.8634 3.83524 41.2574 3.42245 41.4669C3.42245 41.4669 3.74736 41.4734 3.87031 41.4669C3.87031 41.4669 4.01113 41.3918 4.29563 41.2732C4.57836 41.1554 5.00196 40.9957 5.38886 40.8195C6.16265 40.4672 6.63571 40.042 6.98905 39.823ZM6.08787 39.8284C6.08787 39.8284 5.8106 39.837 5.7201 39.8308C5.7201 39.8308 5.58456 39.9088 5.40247 40.0318C5.23087 40.1477 4.97389 40.334 4.65836 40.5065C3.9987 40.867 2.76687 41.2585 2.3335 41.4675C2.3335 41.4675 2.65658 41.4739 2.77864 41.4675C2.77864 41.4675 2.92611 41.3927 3.22767 41.2747C3.52737 41.1574 3.97858 40.9984 4.39127 40.8229C5.3131 40.4311 5.64662 40.0897 6.08787 39.8289V39.8284Z" fill="url(#paint1_linear_1123_6126)"/>
</g>
<defs>
<linearGradient id="paint0_linear_1123_6126" x1="24.2908" y1="41.6926" x2="24.3762" y2="6.52954" gradientUnits="userSpaceOnUse">
<stop stop-color="#27759B"/>
<stop offset="1" stop-color="#00CCFF"/>
</linearGradient>
<linearGradient id="paint1_linear_1123_6126" x1="46.0568" y1="40.3353" x2="1.97168" y2="40.3856" gradientUnits="userSpaceOnUse">
<stop stop-color="#00CCFF"/>
<stop offset="0.315846" stop-color="#1F84AF"/>
<stop offset="0.503991" stop-color="#26749E"/>
<stop offset="0.706949" stop-color="#1D87B2"/>
<stop offset="1" stop-color="#00CCFF"/>
</linearGradient>
<clipPath id="clip0_1123_6126">
<rect width="48" height="34.9408" fill="white" transform="translate(0 6.52954)"/>
</clipPath>
</defs>
</svg>
