<svg width="48" height="48" viewBox="0 0 48 48" fill="none" xmlns="http://www.w3.org/2000/svg">
<path d="M13.92 34.164V23.4359L24 17.8367L34.08 23.4359V34.164L24 39.7632L13.92 34.164Z" fill="#FF480D"/>
<path d="M30 12.9336V4.56H33.12V0H14.88V4.56H18V12.9336L6.71997 19.2V38.4L24 48L41.28 38.4V19.2L30 12.9336ZM16.32 3.12V1.44H31.68V3.12H16.32ZM39.84 37.5528L24 46.3536L8.15997 37.5528V20.0472L18.6984 14.1912L19.44 13.7808V4.56H28.56V13.7808L29.3016 14.1912L39.84 20.0472V37.5528Z" fill="#3B3D3C"/>
<path d="M23.64 14.16C24.6341 14.16 25.44 13.3541 25.44 12.36C25.44 11.3659 24.6341 10.56 23.64 10.56C22.6459 10.56 21.84 11.3659 21.84 12.36C21.84 13.3541 22.6459 14.16 23.64 14.16Z" fill="#FF480D"/>
<path d="M21.72 7.92001C22.3165 7.92001 22.8 7.43648 22.8 6.84001C22.8 6.24354 22.3165 5.76001 21.72 5.76001C21.1235 5.76001 20.64 6.24354 20.64 6.84001C20.64 7.43648 21.1235 7.92001 21.72 7.92001Z" fill="#FF480D"/>
<path d="M25.98 7.92003C26.2783 7.92003 26.52 7.67825 26.52 7.38003C26.52 7.0818 26.2783 6.84003 25.98 6.84003C25.6817 6.84003 25.44 7.0818 25.44 7.38003C25.44 7.67825 25.6817 7.92003 25.98 7.92003Z" fill="#FF480D"/>
<path d="M28.56 18.24C28.9577 18.24 29.28 17.9176 29.28 17.52C29.28 17.1223 28.9577 16.8 28.56 16.8C28.1623 16.8 27.84 17.1223 27.84 17.52C27.84 17.9176 28.1623 18.24 28.56 18.24Z" fill="#FF480D"/>
<path d="M17.52 20.16C17.9176 20.16 18.24 19.8376 18.24 19.44C18.24 19.0423 17.9176 18.72 17.52 18.72C17.1223 18.72 16.8 19.0423 16.8 19.44C16.8 19.8376 17.1223 20.16 17.52 20.16Z" fill="#FF480D"/>
</svg>
