<svg width="48" height="48" viewBox="0 0 48 48" fill="none" xmlns="http://www.w3.org/2000/svg">
<g clip-path="url(#clip0_1123_6042)">
<path d="M32.264 12.6542C32.8356 12.0191 33.4706 11.4952 34.1216 11.0824C35.2646 10.368 36.4713 9.98697 37.7096 9.98697V20.3542C36.8046 17.2107 34.8519 14.5117 32.264 12.6542ZM47.6799 38.6437H10.9581C4.92505 38.6437 0.0510254 33.7538 0.0510254 27.7366C0.0510254 21.9736 4.52814 17.2424 10.196 16.8455V9.98697C11.4661 9.98697 12.7203 10.3521 13.8952 11.0824C14.5461 11.4793 15.1811 12.0033 15.7527 12.6066C18.0865 10.9713 20.9125 10.0187 23.9766 10.0187C23.9766 16.6391 21.5952 24.3392 13.8475 24.355H23.8972C23.6114 23.069 22.4366 22.1165 21.0395 22.1006H26.882C25.4849 22.1006 24.31 23.069 24.0242 24.3709H33.3913C35.2646 24.3709 37.1222 24.7361 38.8686 25.4664C40.5991 26.1808 42.1867 27.2445 43.5044 28.5622C44.838 29.8958 45.8859 31.4676 46.6004 33.1981C47.3148 34.9128 47.6799 36.7703 47.6799 38.6437ZM16.3719 17.0361C16.61 17.6552 17.2451 18.3538 18.1341 18.8618C19.0232 19.3699 19.944 19.5763 20.595 19.481C20.3568 18.8618 19.7218 18.1633 18.8327 17.6552C17.9436 17.1472 17.0228 16.9408 16.3719 17.0361ZM29.7397 18.8618C28.8506 19.3699 27.9298 19.5763 27.2789 19.481C27.517 18.8618 28.1521 18.1633 29.0412 17.6552C29.9302 17.1472 30.8511 16.9408 31.502 17.0361C31.2797 17.6552 30.6288 18.3538 29.7397 18.8618Z" fill="#283841"/>
</g>
<defs>
<clipPath id="clip0_1123_6042">
<rect width="48" height="29.3731" fill="white" transform="translate(0 9.31345)"/>
</clipPath>
</defs>
</svg>
