<svg width="48" height="48" viewBox="0 0 48 48" fill="none" xmlns="http://www.w3.org/2000/svg">
<g clip-path="url(#clip0_1123_6133)">
<path d="M24.0001 48C37.2549 48 48 37.2548 48 24C48 10.7451 37.2549 0 24.0001 0C10.7452 0 0.00012207 10.7451 0.00012207 24C0.00012207 37.2548 10.7452 48 24.0001 48Z" fill="#F8FCFD"/>
<path d="M11.9533 3.20122C11.2527 3.60522 10.5728 4.04424 9.91643 4.51662C12.8884 8.78554 18.0351 16.1993 20.9844 20.4661C24.7769 25.9533 31.7783 36.1358 32.3097 36.9375C32.4344 37.1279 32.441 37.1451 32.3306 37.2263C32.2184 37.3097 32.2123 37.3054 31.9064 36.9069C28.6643 32.6783 23.2375 26.0958 19.796 22.217C19.6438 22.0462 19.0821 21.4111 18.5468 20.8064C14.6508 16.4036 10.9038 12.3643 6.34678 7.66604C5.23442 8.86299 4.24703 10.17 3.39991 11.5669C5.77352 13.2972 8.08526 15.0592 10.2457 16.7876C17.7011 22.752 24.1227 28.7458 29.7589 35.0018C30.4761 35.7982 31.8785 37.4103 31.9275 37.4952C31.9389 37.5136 31.8895 37.5559 31.819 37.5856C31.6946 37.6379 31.6562 37.6054 30.7777 36.7048C27.0488 32.8806 21.9455 28.6172 17.1876 25.3514C12.1185 21.8721 6.91714 18.8391 1.26818 16.0841C0.716873 17.6578 0.330878 19.2845 0.116497 20.938C6.14776 22.6326 11.7083 24.8284 16.9916 27.5955C22.0586 30.2493 27.1756 33.8424 31.0697 37.4808C31.3084 37.7043 31.4559 37.8065 31.5009 37.7805C31.5527 37.7508 31.5667 37.8003 31.5598 37.9854C31.5234 38.8985 32.5201 41.7434 34.2786 45.7643C34.8732 45.4834 35.456 45.1783 36.0255 44.8497C36.8449 44.3772 37.6357 43.8568 38.3938 43.2913C35.4425 39.5873 33.2221 37.0059 32.8756 36.8778C32.8227 36.858 32.7464 36.8778 32.6945 36.9314C32.6074 37.0148 32.595 37.0035 32.3249 36.6001C31.5954 35.5111 28.6249 30.8162 26.4913 27.3821C22.1615 20.4136 19.2089 15.4946 14.2848 7.04717L12.0207 3.16308C11.9984 3.17575 11.9756 3.18848 11.9533 3.20122ZM16.2874 1.24381C20.4568 12.0899 24.9095 22.0352 29.5904 30.9531C30.3516 32.4039 32.7497 36.7597 32.7932 36.7713C32.8086 36.7713 32.8767 36.7346 32.9382 36.6725C33.0474 36.5722 33.0458 36.551 32.9093 36.2913C32.4439 35.4058 31.5417 33.5316 30.9315 32.1843C26.6652 22.7624 23.1468 11.8707 20.5973 0.218774C19.132 0.427045 17.6896 0.770835 16.2874 1.24381ZM24.9777 0C25.0943 1.7381 25.237 3.43102 25.4025 5.00671C25.981 10.5153 27.0013 16.5072 28.148 21.1298C29.3297 25.8936 30.5262 29.6959 32.0522 33.5369C32.5708 34.8424 33.2264 36.3462 33.2668 36.3229C33.4013 36.2452 33.4662 36.0784 33.4088 35.9571C33.1487 35.4083 32.2494 32.7351 31.8034 31.1885C30.5952 26.9996 29.709 22.2893 29.3043 17.9058C28.7719 12.1386 28.7411 6.50613 29.2332 0.557148C27.8341 0.245237 26.4099 0.0587797 24.9777 0ZM33.4298 1.90604C32.6209 5.23522 32.0222 8.52271 31.6715 11.6077C31.317 14.7256 31.121 18.512 31.1899 20.9112C31.3403 26.1485 32.136 31.1741 33.4827 35.3922L33.6289 35.8492L33.7995 35.7179C33.9066 35.6346 34.0889 35.5624 34.2887 35.5201C34.8801 35.3973 35.8629 35.7503 37.3303 36.612C38.5163 37.3082 40.2901 38.5175 42.1087 39.8563C43.2253 38.5812 44.2039 37.1917 45.0282 35.7111C41.154 34.1398 38.2553 33.3841 36.5263 33.5093L35.9542 33.5503L35.319 33.9167C34.8175 34.2059 34.6504 34.3249 34.5273 34.4849L34.371 34.6868L34.3766 34.4467C34.4043 33.2026 34.4814 32.6097 34.7473 31.5927C34.9697 30.7421 35.3886 29.7058 35.8117 28.9605C35.9656 28.6892 36.1793 28.2973 36.2867 28.0893C37.4404 25.8539 40.2523 23.7054 44.6133 21.7268C45.6056 21.2764 46.6636 20.8565 47.7967 20.4625C47.5423 18.7656 47.1068 17.1008 46.4976 15.4966C44.2862 16.8885 41.9897 18.6693 40.404 20.2416C38.3052 22.3227 36.3727 25.0513 35.5395 27.1102C34.5147 29.6425 34.1308 31.7584 34.2546 34.1913C34.2729 34.5492 34.263 34.873 34.232 34.9108C34.1595 34.9997 34.1642 35.0153 34.1027 34.4828C33.756 31.5077 33.984 28.7434 34.833 25.6254C35.8932 21.7314 38.4135 17.334 41.7879 13.4906C42.415 12.7763 43.408 11.7327 44.1909 10.9462C43.2819 9.54524 42.2293 8.24262 41.0502 7.05945C38.5053 10.8562 36.592 14.6628 35.2646 18.5673C34.8673 19.7367 34.182 22.2043 34.0339 22.9998C33.2577 27.1694 33.1877 30.8912 33.8191 34.4057C33.9617 35.2004 33.974 35.6159 33.8539 35.5836C33.8074 35.5695 33.5362 34.4794 33.316 33.4112C32.6678 30.2674 32.4366 26.9384 32.6044 23.168C32.6733 21.6211 32.7649 20.7394 33.0509 18.8727C33.8275 13.8047 35.2199 8.99091 37.3586 4.02714C36.118 3.1997 34.8032 2.48921 33.4311 1.90487L33.4298 1.90604ZM8.62944e-05 26.0194C0.14033 27.7033 0.45785 29.3678 0.947426 30.9852C2.92414 30.7903 4.87474 30.6862 6.59885 30.6924C15.0219 30.722 22.3138 32.6227 28.3852 36.3698C29.1268 36.8277 30.6116 37.8405 30.8219 38.0323C30.8904 38.0945 30.952 38.0973 31.0524 38.0323L31.1892 37.9532L30.8432 37.6671C27.8496 35.1898 24.7421 33.2324 20.9349 31.4254C18.4852 30.2628 16.479 29.5 13.402 28.5618C9.22225 27.2872 4.72789 26.4333 0 26.0128L8.62944e-05 26.0194ZM2.9448 35.7001C3.00773 35.8177 3.07165 35.9349 3.13654 36.0515C3.92364 37.4132 4.84256 38.6946 5.8801 39.8771C7.54151 38.9486 8.34642 38.583 9.96623 37.9425C15.1713 35.8844 20.11 35.2592 24.4741 36.1057C26.3417 36.4681 28.6372 37.3109 30.1256 38.181C30.3037 38.2855 30.3824 38.2997 30.4788 38.2432L30.603 38.1712L29.9921 37.7871C27.1483 36.0002 23.8014 34.7848 19.8607 34.108C18.7811 33.9225 16.9556 33.7955 15.3207 33.7919C11.2828 33.7778 7.30217 34.3919 2.93919 35.7023L2.9448 35.7001ZM14.0645 40.0056C12.5386 40.897 11.0049 41.9609 9.47763 43.2105C10.6941 44.1286 11.9951 44.9292 13.3631 45.6015C15.788 42.6697 18.1305 40.6524 20.686 39.2712C22.0892 38.5131 23.1078 38.1306 24.3555 37.8944C26.0226 37.5789 28.0058 37.7267 29.4454 38.2741C29.7654 38.3956 30.0547 38.4817 30.0881 38.4649C30.1203 38.4466 30.1397 38.4183 30.1278 38.3985C30.0704 38.2997 28.6465 37.7554 27.8425 37.5253C24.625 36.6048 21.3608 36.8305 17.7571 38.2223C16.5284 38.6968 15.297 39.2915 14.0645 40.0056ZM38.4666 28.2114C37.5535 28.7265 36.8716 29.3096 36.4409 29.9421C36.3103 30.134 36.0662 30.469 35.8986 30.6866C35.1684 31.6348 34.6656 32.7988 34.5029 33.9171L34.4588 34.2207L34.6083 33.8278C34.7962 33.3342 35.2227 32.7186 35.6595 32.3106C35.8452 32.1382 36.105 31.8905 36.2374 31.7615C37.3416 30.6868 40.0861 30.2559 44.0323 30.5376C45.0208 30.6082 46.0209 30.713 47.0694 30.8583C47.5634 29.1932 47.8755 27.4795 48 25.7473C47.8141 25.7642 47.6456 25.7797 47.5037 25.7953C43.5762 26.2313 40.4713 27.0716 38.4666 28.2114ZM24.2591 39.2152C23.5591 39.6305 22.8444 40.1687 22.0957 40.8573C20.4687 42.3539 18.9447 44.4266 17.4727 47.1732C18.8247 47.553 20.2073 47.8139 21.6048 47.9528C22.7604 44.035 24.1675 41.3568 25.9373 39.6697C26.1729 39.4448 26.4281 39.2646 26.8768 39.0057C27.591 38.5939 28.0971 38.4265 28.7548 38.3864C28.9802 38.3723 29.1396 38.3483 29.1093 38.3313C28.9572 38.2494 27.8977 38.1825 27.3633 38.2212C26.2926 38.2974 25.286 38.6154 24.2591 39.2152ZM28.8995 38.7054C27.3371 39.6179 26.2477 42.7601 25.8699 47.554C25.86 47.6867 25.8492 47.8388 25.8388 48C27.2526 47.8912 28.6541 47.6578 30.0268 47.3026C29.4047 43.5095 29.3032 41.126 29.6769 39.5541C29.754 39.2297 29.8694 38.8797 29.9334 38.7763C29.9973 38.6732 30.0423 38.5761 30.0336 38.5609C29.9903 38.4861 29.5925 38.4452 29.4001 38.496C29.2283 38.5412 29.0616 38.6122 28.8995 38.7054Z" fill="#004455"/>
</g>
<defs>
<clipPath id="clip0_1123_6133">
<rect width="48" height="48" fill="white"/>
</clipPath>
</defs>
</svg>
