<svg width="48" height="48" viewBox="0 0 48 48" fill="none" xmlns="http://www.w3.org/2000/svg">
<g clip-path="url(#clip0_1123_6092)">
<mask id="mask0_1123_6092" style="mask-type:alpha" maskUnits="userSpaceOnUse" x="0" y="0" width="48" height="48">
<path d="M24.1584 47.3244C37.2267 47.3244 47.8206 36.7304 47.8206 23.6622C47.8206 10.5939 37.2267 0 24.1584 0C11.0901 0 0.496216 10.5939 0.496216 23.6622C0.496216 36.7304 11.0901 47.3244 24.1584 47.3244Z" fill="#C4C4C4"/>
</mask>
<g mask="url(#mask0_1123_6092)">
<path d="M20.2556 13.9998C30.3083 9.93821 35.1651 -1.50364 31.1035 -11.5563C27.042 -21.609 15.6001 -26.4658 5.54741 -22.4043C-4.50528 -18.3427 -9.36206 -6.90085 -5.30051 3.15184C-1.23896 13.2045 10.2029 18.0613 20.2556 13.9998Z" fill="#4A3AFF"/>
<path d="M42.7717 69.7278C52.8244 65.6662 57.6812 54.2244 53.6196 44.1717C49.5581 34.119 38.1162 29.2622 28.0635 33.3238C18.0108 37.3853 13.154 48.8272 17.2156 58.8799C21.2772 68.9326 32.719 73.7893 42.7717 69.7278Z" fill="#4A3AFF"/>
<path d="M3.64969 53.1218C13.7024 49.0603 18.5592 37.6184 14.4976 27.5657C10.4361 17.513 -1.00579 12.6563 -11.0585 16.7178C-21.1112 20.7794 -25.968 32.2212 -21.9064 42.2739C-17.8449 52.3266 -6.403 57.1834 3.64969 53.1218Z" fill="#9328FF"/>
<path d="M58.8612 29.33C68.9139 25.2684 73.7707 13.8266 69.7091 3.77386C65.6476 -6.27883 54.2057 -11.1356 44.153 -7.07406C34.1003 -3.01251 29.2435 8.42935 33.3051 18.482C37.3666 28.5347 48.8085 33.3915 58.8612 29.33Z" fill="#9328FF"/>
</g>
</g>
<defs>
<clipPath id="clip0_1123_6092">
<rect width="48" height="48" fill="white"/>
</clipPath>
</defs>
</svg>
