<svg width="48" height="48" viewBox="0 0 48 48" fill="none" xmlns="http://www.w3.org/2000/svg">
<g clip-path="url(#clip0_1123_6040)">
<path d="M20.3189 41.8497C20.0412 41.8497 19.7495 41.8219 19.4579 41.7386C17.5555 41.2664 16.389 39.3362 16.8611 37.4338L23.971 8.99406C24.4571 7.09161 26.3873 5.93902 28.2897 6.39728C30.1922 6.8833 31.3448 8.81354 30.8727 10.716L23.7628 39.1557C23.3601 40.7665 21.9158 41.8497 20.3189 41.8497Z" fill="#9328FF"/>
<path d="M37.0417 34.7399C36.1252 34.7399 35.2226 34.3927 34.5282 33.6984C33.1395 32.3098 33.1395 30.0602 34.5282 28.6715L39.1246 24.075L34.5282 19.4786C33.1395 18.0899 33.1395 15.8403 34.5282 14.4517C35.9169 13.063 38.1665 13.063 39.5551 14.4517L46.665 21.5616C48.0537 22.9502 48.0537 25.1998 46.665 26.5885L39.5551 33.6984C38.8608 34.3927 37.9582 34.7399 37.0417 34.7399Z" fill="#4A3AFF"/>
<path d="M10.693 34.7399C9.77649 34.7399 8.87385 34.3927 8.17953 33.6984L1.06963 26.5885C-0.319027 25.1998 -0.319027 22.9502 1.06963 21.5616L8.17953 14.4517C9.56817 13.063 11.8179 13.063 13.2065 14.4517C14.5951 15.8403 14.5951 18.0899 13.2065 19.4786L8.61001 24.075L13.2065 28.6715C14.5951 30.0602 14.5951 32.3098 13.2065 33.6984C12.5122 34.3927 11.6095 34.7399 10.693 34.7399Z" fill="#4A3AFF"/>
</g>
<defs>
<clipPath id="clip0_1123_6040">
<rect width="48" height="36" fill="white" transform="translate(0 6)"/>
</clipPath>
</defs>
</svg>
