<svg width="48" height="48" viewBox="0 0 48 48" fill="none" xmlns="http://www.w3.org/2000/svg">
<g clip-path="url(#clip0_1123_6135)">
<path d="M27.2739 4.35776C26.9568 4.35776 26.6523 4.40541 26.3551 4.49253C24.9966 4.89086 24.0903 6.0139 22.9002 7.41363C22.8868 7.4294 22.8742 7.44577 22.8622 7.46266C18.0294 14.2916 15.2782 19.7194 13.6529 24.1853C13.3035 25.1454 13.0141 26.0934 12.6099 26.5258C11.7377 27.4585 10.5819 28.0581 9.2594 29.073C5.62598 31.8611 2.09854 35.356 0.114387 38.4544C0.0420497 38.5652 0.00246376 38.6941 5.58007e-05 38.8263C-0.00235216 38.9586 0.0325022 39.0888 0.10076 39.2021C0.796406 40.3336 2.13534 41.0845 3.87486 41.6913C5.61424 42.2979 7.79032 42.7386 10.2515 43.0508C15.1736 43.6752 21.2314 43.7771 27.0336 43.4967C32.8358 43.2161 38.3703 42.5558 42.2656 41.6248C44.2133 41.1594 45.7426 40.6445 46.7662 39.9914C47.278 39.6648 47.6926 39.2981 47.9002 38.7757C48.1077 38.2532 47.9792 37.6069 47.6275 37.1476C46.0514 35.0972 44.1312 33.0374 42.3645 31.3426C40.5979 29.648 39.0217 28.3348 37.9808 27.7198C36.7515 26.9933 36.1017 26.6637 35.9539 26.5402C35.8804 26.479 35.9225 26.5402 35.9089 26.4857C35.8953 26.434 35.8804 26.244 35.8709 25.9244C35.8709 25.9198 35.8709 25.9153 35.8709 25.9107C35.7064 21.6443 35.4783 19.8309 35.3967 17.7809C36.9033 18.2338 38.4822 18.8273 40.1717 18.9907C40.1763 18.9907 40.1808 18.9907 40.1854 18.9907C40.7624 19.0438 41.258 19.0151 41.6792 18.6861C42.1002 18.3566 42.192 17.773 42.1152 17.3488C41.9619 16.5032 41.4177 15.7019 40.8174 14.7897C38.6724 11.4329 34.9017 7.7869 31.3245 5.89259C29.7499 4.90426 28.5073 4.3856 27.417 4.3551C27.3707 4.3551 27.3258 4.3551 27.2802 4.3551L27.2739 4.35776Z" fill="black"/>
<path d="M27.4164 5.76552C27.2677 5.76552 26.8366 5.80894 26.4089 6.01096C26.4089 6.01096 26.4225 5.99747 26.4225 5.99202C26.3898 6.00836 26.3571 6.03149 26.3244 6.04919C26.3108 6.04919 26.3041 6.06281 26.2932 6.06281C25.6486 6.44154 24.9484 7.20098 24.0082 8.30557C19.6799 14.4256 17.0733 19.3632 15.4517 23.4595C16.0787 23.4036 17.7903 23.285 18.4753 23.2371C20.4752 23.12 22.4705 23.0588 24.4917 23.0718C27.6796 23.0895 30.933 23.2757 34.3733 23.6614C34.2059 20.6875 34.0075 19.0009 33.9599 17.13C33.9599 17.0933 33.9434 17.0565 33.9434 17.0184C33.8522 15.8991 33.6994 15.0326 33.418 13.6037C33.3268 13.169 33.6554 12.7552 34.0996 12.7552C34.4417 12.7552 34.7368 12.9948 34.7981 13.3313C35.0291 14.5036 35.1823 15.3482 35.283 16.2622C37.0583 16.7421 38.7546 17.4481 40.3234 17.6001C40.6581 17.626 40.7137 17.5865 40.73 17.5865C40.6688 17.2733 40.2268 16.4422 39.6467 15.5605L39.6331 15.5468C37.6459 12.4355 33.9288 8.85721 30.6566 7.12736C30.6402 7.11374 30.6252 7.11372 30.6102 7.1001C30.216 6.85152 29.8703 6.65611 29.5438 6.48308C29.4431 6.42182 29.3019 6.35385 29.1492 6.28483C29.1355 6.28483 29.1192 6.2685 29.1056 6.26306C28.71 6.08772 28.2556 5.91895 28.2079 5.90561C27.7987 5.79398 27.654 5.77502 27.4206 5.76086L27.4164 5.76552Z" fill="#AAD400"/>
<path d="M24.4742 23.8179C27.6745 23.8356 30.9408 24.0253 34.4023 24.4178C34.4254 24.902 34.45 25.4161 34.4718 25.9712V25.9576C34.4854 26.2792 34.4717 26.5288 34.5507 26.8204C34.6228 27.1119 34.8246 27.4181 35.0575 27.6128C35.2734 27.7933 35.5124 27.9386 35.8213 28.111C35.1085 27.966 34.3341 27.8403 33.5084 27.7312C31.1152 27.415 28.3143 27.2469 25.4961 27.1975C20.9273 27.1172 16.3356 27.3423 13.3404 27.7791C13.4411 27.6825 13.5397 27.5843 13.6372 27.4801C14.4191 26.6439 14.6593 25.5258 14.9743 24.6601C15.026 24.5184 15.0817 24.3729 15.1358 24.2292C18.2666 23.9441 21.3393 23.7942 24.4742 23.8112V23.8179Z" fill="#006680"/>
<path d="M23.3865 27.9399C24.0827 27.9399 24.7838 27.9399 25.483 27.9549C28.2801 28.0039 31.0584 28.1711 33.4102 28.4819C35.4111 28.7462 37.1081 29.1256 38.2166 29.5909C39.0687 30.2402 40.1997 31.2104 41.3963 32.3582C43.0418 33.9365 44.8314 35.8509 46.3104 37.7387C41.9349 36.9611 35.9834 36.6043 29.7402 36.5688C19.0862 36.5089 7.59722 37.3804 1.69159 38.6778C3.59066 35.9268 6.79787 32.7349 10.1151 30.1895C10.8005 29.6635 11.4936 29.2335 12.1624 28.7517C14.4856 28.2743 18.8333 27.9557 23.3865 27.9399Z" fill="#AAD400"/>
<path d="M28.1015 38.0123C34.6724 37.9851 41.0301 38.2884 45.5952 39.0419C44.7827 39.4531 43.5144 39.8814 41.9446 40.2565C38.1972 41.1522 32.7101 41.8151 26.972 42.0925C21.2338 42.3699 15.2322 42.2651 10.435 41.6564C8.036 41.352 5.93719 40.9195 4.34415 40.3639C3.86536 40.1969 3.4494 40.017 3.08783 39.8298C8.70854 38.7772 18.6252 38.0512 28.1015 38.0123Z" fill="#80A000"/>
</g>
<defs>
<clipPath id="clip0_1123_6135">
<rect width="48" height="39.2895" fill="white" transform="translate(0 4.35522)"/>
</clipPath>
</defs>
</svg>
