<svg width="48" height="48" viewBox="0 0 48 48" fill="none" xmlns="http://www.w3.org/2000/svg">
<g clip-path="url(#clip0_1123_6045)">
<path d="M47.9339 25.7997H39.3604C31.8713 25.7997 25.8004 31.8708 25.8004 39.3597V47.9333C37.6202 47.0568 47.0574 37.6196 47.9339 25.7997Z" fill="#775732"/>
<path d="M22.2003 47.9333V39.3597C22.2003 31.8708 16.1293 25.7997 8.64029 25.7997H0.0667725C0.943173 37.6196 10.3804 47.0568 22.2003 47.9333Z" fill="#775732"/>
<path d="M47.9339 22.1998C47.0574 10.3799 37.6202 0.942624 25.8004 0.0662231V8.63974C25.8004 16.1287 31.8713 22.1998 39.3604 22.1998H47.9339Z" fill="#775732"/>
<path d="M22.2003 0.0662231C10.3804 0.942624 0.943173 10.3799 0.0667725 22.1998H8.64029C16.1293 22.1998 22.2003 16.1287 22.2003 8.63974V0.0662231Z" fill="#775732"/>
<path d="M16.2996 23.9998C19.6266 22.3374 22.338 19.626 24.0003 16.299C25.6626 19.626 28.3739 22.3374 31.701 23.9998C28.3739 25.662 25.6626 28.3734 24.0003 31.7004C22.338 28.3734 19.6266 25.662 16.2996 23.9998Z" fill="#CA9352"/>
</g>
<defs>
<clipPath id="clip0_1123_6045">
<rect width="48" height="48" fill="white"/>
</clipPath>
</defs>
</svg>
