<svg width="48" height="48" viewBox="0 0 48 48" fill="none" xmlns="http://www.w3.org/2000/svg">
<g clip-path="url(#clip0_1123_6122)">
<path d="M2.12593 26.4374C1.91375 26.4405 1.7042 26.4854 1.50937 26.5695C1.31455 26.6536 1.13835 26.7753 0.990582 26.9276C0.842817 27.0799 0.726583 27.2598 0.6484 27.4571C0.570216 27.6544 0.531549 27.8651 0.534865 28.0773V38.9467C0.534577 39.2289 0.608265 39.5062 0.748531 39.7511C0.888798 39.9959 1.09078 40.1998 1.33434 40.3423L14.0645 47.7804C14.3094 47.9231 14.5876 47.9988 14.871 47.9999C15.1545 48.0011 15.4332 47.9276 15.6792 47.7868L23.767 43.1429L31.2997 47.5172C31.5351 47.6539 31.8011 47.7289 32.0732 47.7352C32.3453 47.7416 32.6147 47.6791 32.8561 47.5535L46.5986 40.3487C46.8594 40.2118 47.0778 40.0061 47.2301 39.754C47.3824 39.5019 47.4628 39.213 47.4627 38.9185V28.0775C47.4535 27.6555 47.2795 27.2539 46.9778 26.9586C46.6762 26.6634 46.2709 26.4979 45.8488 26.4977C45.4267 26.4975 45.0217 26.6625 44.7197 26.9575C44.4178 27.2524 44.243 27.6539 44.2333 28.0758H3.76589C3.76906 27.8597 3.72894 27.645 3.64762 27.4447C3.5663 27.2444 3.44577 27.0625 3.29282 26.9097C3.13988 26.7569 2.95787 26.6363 2.75747 26.5552C2.55708 26.4741 2.3421 26.434 2.12593 26.4374Z" fill="url(#paint0_linear_1123_6122)"/>
<path d="M32.1451 18.5278C31.8489 18.5209 31.5565 18.5956 31.2999 18.7438L23.742 23.1055L15.6494 18.7249C15.4099 18.5949 15.1414 18.5276 14.8689 18.5294C14.5699 18.531 14.2774 18.6156 14.0237 18.7738L1.29985 26.7055C1.07066 26.8477 0.880422 27.0451 0.747155 27.2797C0.613887 27.5142 0.541539 27.7785 0.536642 28.0482C0.531744 28.3179 0.594895 28.5845 0.719559 28.8238C0.844224 29.063 1.0263 29.2672 1.25018 29.4177L13.9803 37.9581C14.2331 38.1267 14.5288 38.2206 14.8326 38.229C15.1364 38.2374 15.4358 38.1598 15.6975 38.0054L23.7964 33.2432L31.3244 37.4156C31.5681 37.5511 31.8435 37.6211 32.1223 37.6189C32.4011 37.6167 32.6739 37.5423 32.9154 37.403L46.6532 29.4776C46.8999 29.3362 47.1051 29.1323 47.2477 28.8862C47.3902 28.6402 47.4653 28.3609 47.4653 28.0766C47.4653 27.7923 47.3902 27.5129 47.2477 27.2669C47.1051 27.0209 46.8999 26.8169 46.6532 26.6756L32.9154 18.7439C32.6811 18.6085 32.4157 18.5342 32.1451 18.5278Z" fill="url(#paint1_linear_1123_6122)"/>
<path d="M2.12593 7.91001C1.91375 7.91312 1.7042 7.95801 1.50937 8.04212C1.31455 8.12624 1.13835 8.24792 0.990582 8.40022C0.842817 8.55253 0.726583 8.73248 0.6484 8.92976C0.570216 9.12704 0.531549 9.33778 0.534865 9.54996V20.4194C0.534577 20.7016 0.608265 20.9789 0.748531 21.2237C0.888798 21.4686 1.09078 21.6724 1.33434 21.8149L14.0645 29.253C14.3094 29.3957 14.5876 29.4714 14.871 29.4726C15.1545 29.4737 15.4332 29.4002 15.6792 29.2595L23.767 24.6156L31.2997 28.9899C31.5351 29.1266 31.8011 29.2016 32.0732 29.2079C32.3453 29.2142 32.6147 29.1517 32.8561 29.0261L46.5986 21.8214C46.8594 21.6844 47.0778 21.4788 47.2301 21.2267C47.3824 20.9746 47.4628 20.6857 47.4627 20.3911V9.55011C47.4535 9.12813 47.2795 8.72651 46.9778 8.43127C46.6762 8.13603 46.2709 7.97059 45.8488 7.97038C45.4267 7.97017 45.0217 8.1352 44.7197 8.43013C44.4178 8.72507 44.243 9.12651 44.2333 9.54849H3.76589C3.76906 9.33232 3.72894 9.1177 3.64762 8.91739C3.5663 8.71707 3.44577 8.53513 3.29282 8.38234C3.13988 8.22954 2.95787 8.109 2.75747 8.02788C2.55708 7.94677 2.3421 7.90663 2.12593 7.91001Z" fill="url(#paint2_linear_1123_6122)"/>
<path d="M32.1451 0.000437464C31.8489 -0.00645803 31.5565 0.0682791 31.2999 0.21647L23.742 4.57811L15.6494 0.197547C15.4099 0.067551 15.1414 0.000286532 14.8689 0.00201434C14.5699 0.00368542 14.2774 0.0882953 14.0237 0.24643L1.29985 8.17812C1.07066 8.3204 0.880422 8.51781 0.747155 8.75235C0.613887 8.9869 0.541539 9.25111 0.536642 9.52083C0.531744 9.79055 0.594895 10.0572 0.719559 10.2964C0.844224 10.5356 1.0263 10.7398 1.25018 10.8904L13.9803 19.4307C14.2331 19.5994 14.5288 19.6933 14.8326 19.7016C15.1364 19.71 15.4358 19.6325 15.6975 19.478L23.7964 14.7159L31.3244 18.8883C31.5681 19.0237 31.8435 19.0937 32.1223 19.0915C32.4011 19.0893 32.6739 19.015 32.9154 18.8757L46.6532 10.9503C46.8999 10.8089 47.1051 10.6049 47.2477 10.3589C47.3902 10.1129 47.4653 9.8336 47.4653 9.54927C47.4653 9.26494 47.3902 8.9856 47.2477 8.73959C47.1051 8.49358 46.8999 8.2896 46.6532 8.14821L32.9154 0.216519C32.6811 0.0811688 32.4157 0.00683467 32.1451 0.000437464Z" fill="url(#paint3_linear_1123_6122)"/>
</g>
<defs>
<linearGradient id="paint0_linear_1123_6122" x1="0.534865" y1="37.2185" x2="47.4627" y2="37.2185" gradientUnits="userSpaceOnUse">
<stop stop-color="#4400AA"/>
<stop offset="1" stop-color="#B380FF"/>
</linearGradient>
<linearGradient id="paint1_linear_1123_6122" x1="0.534826" y1="28.3785" x2="47.4754" y2="28.3785" gradientUnits="userSpaceOnUse">
<stop stop-color="#5500D4"/>
<stop offset="1" stop-color="#CCAAFF"/>
</linearGradient>
<linearGradient id="paint2_linear_1123_6122" x1="0.534865" y1="18.6912" x2="47.4627" y2="18.6912" gradientUnits="userSpaceOnUse">
<stop stop-color="#4400AA"/>
<stop offset="1" stop-color="#B380FF"/>
</linearGradient>
<linearGradient id="paint3_linear_1123_6122" x1="0.534826" y1="9.85114" x2="47.4754" y2="9.85114" gradientUnits="userSpaceOnUse">
<stop stop-color="#5500D4"/>
<stop offset="1" stop-color="#CCAAFF"/>
</linearGradient>
<clipPath id="clip0_1123_6122">
<rect width="46.9305" height="48" fill="white" transform="translate(0.53479)"/>
</clipPath>
</defs>
</svg>
