<svg width="48" height="48" viewBox="0 0 48 48" fill="none" xmlns="http://www.w3.org/2000/svg">
<g clip-path="url(#clip0_1123_6044)">
<path d="M15.3715 1.26886C15.3715 6.00497 19.2625 9.89743 23.9987 9.89743C28.735 9.89743 32.6273 6.00497 32.6279 1.26886H27.742C27.742 3.36442 26.0944 5.01156 23.9987 5.01156C21.903 5.01156 20.258 3.36442 20.2573 1.26886H15.3715ZM8.62789 5.16228L6.18495 9.39357C7.99944 10.4419 8.60381 12.6897 7.55594 14.5047C6.50808 16.3196 4.25808 16.9222 2.44295 15.875L0 20.1069C4.10194 22.4744 9.41909 21.0493 11.7872 16.9476C14.1553 12.8459 12.7292 7.53097 8.62789 5.16228ZM39.3715 5.16228C35.2702 7.53097 33.8447 12.8459 36.2128 16.9476C38.5809 21.0493 43.8981 22.4744 48 20.1069L45.5571 15.8756C43.7419 16.9228 41.4919 16.3196 40.4441 14.5047C39.3962 12.6897 39.9999 10.4419 41.8144 9.39357L39.3715 5.16228ZM23.9987 12.2291C17.5267 12.2291 12.2287 17.5296 12.2287 24.0016C12.2287 30.4736 17.5267 35.771 23.9987 35.771C30.4707 35.771 35.7707 30.4736 35.7707 24.0016C35.7707 17.5296 30.4707 12.2291 23.9987 12.2291ZM23.9987 17.1149C27.8302 17.1149 30.8848 20.1701 30.8848 24.0016C30.8848 27.8331 27.8302 30.8851 23.9987 30.8851C20.1672 30.8851 17.1146 27.8331 17.1146 24.0016C17.1146 20.1701 20.1672 17.1149 23.9987 17.1149ZM4.07412 26.7506C2.68213 26.784 1.28183 27.1539 0 27.8938L2.44295 32.125C4.25808 31.0778 6.5068 31.6785 7.55465 33.4935C8.60251 35.3084 7.99944 37.5581 6.18495 38.6065L8.62789 42.8377C12.7292 40.4691 14.154 35.1522 11.7859 31.0505C10.1578 28.2306 7.13646 26.677 4.07412 26.7506ZM43.5086 26.7506C40.5916 26.8209 37.7675 28.3587 36.2135 31.0505C33.8453 35.1522 35.2702 40.4697 39.3715 42.8384L41.8144 38.6065C39.9999 37.5581 39.3968 35.3084 40.4447 33.4935C41.4926 31.6785 43.7419 31.0778 45.5571 32.125L48 27.8938C46.59 27.08 45.0365 26.7137 43.5086 26.7506ZM23.9987 38.1026C19.2625 38.1026 15.3721 41.9951 15.3715 46.7312H20.2573C20.2573 44.6356 21.903 42.9885 23.9987 42.9885C26.0944 42.9885 27.7414 44.6356 27.742 46.7312H32.6279C32.6279 41.9951 28.735 38.1026 23.9987 38.1026Z" fill="url(#paint0_radial_1123_6044)"/>
</g>
<defs>
<radialGradient id="paint0_radial_1123_6044" cx="0" cy="0" r="1" gradientUnits="userSpaceOnUse" gradientTransform="translate(24 24) scale(24 22.7312)">
<stop stop-color="#5F8DD3"/>
<stop offset="1" stop-color="#5A2CA0"/>
</radialGradient>
<clipPath id="clip0_1123_6044">
<rect width="48" height="45.4623" fill="white" transform="translate(0 1.26886)"/>
</clipPath>
</defs>
</svg>
