<svg width="48" height="48" viewBox="0 0 48 48" fill="none" xmlns="http://www.w3.org/2000/svg">
<g clip-path="url(#clip0_1123_6125)">
<path d="M46.9656 15.359C46.9656 15.3205 46.9324 15.2907 46.894 15.2928C46.8585 15.2948 46.8292 15.3234 46.8292 15.359V15.4222C46.8292 15.5623 46.7156 15.6759 46.5755 15.6759C46.4353 15.6759 46.3218 15.5623 46.3218 15.4222C46.3218 15.2027 46.1988 15.0059 46.045 14.8493C45.7653 14.5646 45.5956 14.1601 45.6796 13.7985C45.829 13.1557 46.1826 12.8781 46.8291 12.8781C47.4757 12.8781 47.9999 13.4022 47.9999 14.0488C47.9999 14.2528 47.9477 14.4445 47.856 14.6115C47.6347 15.0145 47.3114 15.1165 47.3114 15.5763V15.9716C47.3114 16.0671 47.234 16.1446 47.1385 16.1446C47.043 16.1446 46.9656 16.0671 46.9656 15.9716V15.359Z" fill="#283841"/>
<path d="M25.8369 17.2522C29.3426 17.8522 33.1964 17.4863 36.602 18.3248C40.5378 19.4972 42.7576 22.7035 36.3399 23.4546C32.9413 23.7184 29.5029 23.1601 26.1477 23.7537C22.5943 24.4795 18.9458 25.702 15.0881 25.1097C11.5543 24.5649 8.51769 22.4086 8.61088 20.1159C8.59122 17.8637 11.9027 16.577 15.1096 16.1656C18.7945 15.7875 22.3796 16.5753 25.8369 17.2522ZM26.0423 16.8407C7.44378 12.5299 6.26679 19.1708 6.24642 20.091C6.09434 22.836 9.73912 25.7019 14.0684 26.3094C18.5654 26.9405 22.4308 25.1642 26.3982 24.2008C30.2688 23.5275 34.0089 24.3974 37.882 24.0674C44.3337 23.5176 42.8906 18.7959 38.3262 17.7202C34.4527 16.8074 30.0299 17.5228 26.0423 16.8407Z" fill="#283841"/>
<path d="M25.463 18.32C28.1342 18.6642 35.2404 19.1292 35.0276 21.1409C34.756 22.3156 29.2113 22.1746 25.6277 22.5583C22.5007 22.8683 14.8101 23.3959 14.9074 20.2114C14.8819 17.2893 22.7156 18.0198 25.463 18.32ZM25.5734 17.9273C22.842 17.5392 19.885 17.1222 17.0841 17.4873C14.9374 17.7671 12.547 18.6511 12.5979 20.173C12.5052 21.7598 14.8021 23.0043 17.0995 23.4148C19.9653 23.9267 22.9802 23.3875 25.7935 23.0007C29.7133 22.5271 36.7627 22.9954 37.0439 21.338C37.3162 18.7468 28.898 18.3786 25.5734 17.9273Z" fill="#283841"/>
<path d="M25.4372 19.4799C26.7983 19.554 30.0506 19.8939 29.7379 20.6733C29.3585 21.4234 26.4523 21.4234 25.4776 21.4534C24.2701 21.4627 21.068 21.4973 20.9488 20.3947C20.9682 19.295 24.3679 19.4463 25.4372 19.4799ZM25.4799 19.0641C23.8309 18.9617 18.7834 18.6486 18.7657 20.3599C18.6329 21.9758 23.8919 21.8908 25.5606 21.907C26.7982 21.8908 31.216 21.8541 31.7888 20.8685C32.1956 19.724 27.1442 19.2142 25.4799 19.0641Z" fill="#283841"/>
<path fill-rule="evenodd" clip-rule="evenodd" d="M23.86 14.6174C24.8241 14.9682 25.7955 15.3216 26.7983 15.6481C28.8238 16.4462 31.7379 16.119 34.7854 15.7768C37.568 15.4644 40.4618 15.1395 42.8919 15.6474C45.4924 16.1911 46.8991 18.6076 46.8263 20.9577L46.8289 20.9544V26.1758C46.8445 28.6148 45.2783 31.0449 41.8116 31.305C39.7277 31.4613 37.6952 31.1531 35.6771 30.8471C32.8609 30.4201 30.073 29.9974 27.2135 30.8473C25.7202 31.3833 24.3312 32.0963 22.9398 32.8106C19.7576 34.4443 16.5618 36.0849 12.072 35.6305C4.92826 34.9073 -0.0503494 30.9725 0.000384201 25.5043C0.00252787 25.4017 0.00938763 25.2996 0.0188198 25.1979V20.7352C0.00438572 20.5181 -0.00147365 20.2986 0.000527112 20.0763C0.0855594 16.0403 5.92595 12.6956 12.2668 12.3283C16.8407 12.0634 20.3005 13.3223 23.86 14.6174ZM33.8779 16.376C31.0874 16.5463 28.3686 16.7122 26.4743 16.1199C25.8641 15.9298 25.2402 15.7281 24.6141 15.5258C23.0766 15.0289 21.5263 14.5279 20.1345 14.1831C11.2209 11.9793 2.7693 15.2797 2.34656 20.0714C2.02573 23.2503 6.59274 27.9237 12.6947 28.6255C15.4607 28.8683 17.8329 28.4092 20.2425 27.5908C21.2152 27.2295 22.1518 26.8342 23.0881 26.4391C24.3249 25.917 25.5613 25.3952 26.8799 24.9521C29.7066 24.2737 32.4517 24.5853 35.1079 24.8868C36.905 25.0908 38.6613 25.2901 40.3742 25.1751C42.0227 24.9871 43.3606 24.5779 44.1885 23.6332C45.8687 21.3794 45.7006 17.5844 41.2057 16.4881C39.0983 16.0574 36.4574 16.2185 33.8779 16.376Z" fill="#283841"/>
</g>
<defs>
<clipPath id="clip0_1123_6125">
<rect width="48" height="23.4146" fill="white" transform="translate(0 12.2927)"/>
</clipPath>
</defs>
</svg>
