<svg width="48" height="48" viewBox="0 0 48 48" fill="none" xmlns="http://www.w3.org/2000/svg">
<g clip-path="url(#clip0_1123_6104)">
<path d="M17.3538 2.7843C19.2369 2.7843 21.4242 4.8599 21.4242 8.33784C21.4242 11.8127 19.2364 13.8914 17.3538 13.8914C15.4744 13.8914 13.2834 11.8119 13.2834 8.33784C13.2834 4.86071 15.4739 2.7843 17.3538 2.7843Z" fill="#9328FF" stroke="#9328FF" stroke-width="4.5" stroke-linecap="round"/>
<path d="M6.47886 13.6593C8.36189 13.6593 10.5493 15.7349 10.5493 19.2128C10.5493 22.6908 8.36189 24.7664 6.47886 24.7664C4.59582 24.7664 2.40845 22.6908 2.40845 19.2128C2.40845 15.7349 4.59582 13.6593 6.47886 13.6593Z" fill="#9328FF" stroke="#9328FF" stroke-width="4.5" stroke-linecap="round"/>
<path d="M42.0739 13.6593C43.957 13.6593 46.1444 15.7349 46.1444 19.2128C46.1444 22.6908 43.957 24.7664 42.0739 24.7664C40.1909 24.7664 38.0035 22.6908 38.0035 19.2128C38.0035 15.7349 40.1909 13.6593 42.0739 13.6593Z" fill="#9328FF" stroke="#9328FF" stroke-width="4.5" stroke-linecap="round"/>
<path d="M31.1989 2.7843C33.079 2.7843 35.2693 4.86071 35.2693 8.33784C35.2693 11.8119 33.0784 13.8914 31.1989 13.8914C29.3164 13.8914 27.1285 11.8127 27.1285 8.33784C27.1285 4.8599 29.3159 2.7843 31.1989 2.7843Z" fill="#9328FF" stroke="#9328FF" stroke-width="4.5" stroke-linecap="round"/>
<path d="M39.1739 36.7837L39.1731 36.7771C38.9908 35.095 38.4513 33.4709 37.5901 32.0163C37.2907 31.5268 36.9951 31.0311 36.7103 30.5537C36.5599 30.3015 36.4126 30.0545 36.2693 29.8161L36.2638 29.8069C34.4593 26.7648 32.9344 24.2167 31.063 22.3857C29.2846 20.6456 27.2252 19.5918 24.2762 19.5918C21.3276 19.5918 19.2725 20.6452 17.498 22.3846C15.63 24.2155 14.1089 26.7631 12.3037 29.8064L39.1739 36.7837ZM39.1739 36.7837L39.1746 36.7901ZM39.1739 36.7837L39.1746 36.7901ZM39.1746 36.7901C39.3992 38.7362 38.7838 40.6884 37.4833 42.1531C36.1235 43.6734 34.1793 44.5431 32.1395 44.5401H32.1368H16.4305H16.4278C14.3873 44.5431 12.4426 43.6729 11.0828 42.1518C9.77976 40.6875 9.16503 38.7369 9.39236 36.7928L9.39344 36.7832M39.1746 36.7901L9.39344 36.7832ZM9.39344 36.7832L9.39452 36.7736ZM9.39344 36.7832L9.39452 36.7736ZM9.39452 36.7736C9.57319 35.0951 10.1154 33.4715 10.9777 32.0191ZM9.39452 36.7736L10.9777 32.0191ZM10.9777 32.0191C11.4374 31.2639 11.8778 30.525 12.3037 29.8064L10.9777 32.0191Z" fill="#4A3AFF"/>
<path d="M39.1739 36.7837L39.1731 36.7771C38.9908 35.095 38.4513 33.4709 37.5901 32.0163C37.2907 31.5268 36.9951 31.0311 36.7103 30.5537C36.5599 30.3015 36.4126 30.0545 36.2693 29.8161L36.2638 29.8069C34.4593 26.7648 32.9344 24.2167 31.063 22.3857C29.2846 20.6456 27.2252 19.5918 24.2762 19.5918C21.3276 19.5918 19.2725 20.6452 17.498 22.3846C15.63 24.2155 14.1089 26.7631 12.3037 29.8064M39.1739 36.7837L12.3037 29.8064M39.1739 36.7837L39.1746 36.7901M12.3037 29.8064C11.8778 30.525 11.4374 31.2639 10.9777 32.0191M12.3037 29.8064L10.9777 32.0191M39.1746 36.7901C39.3992 38.7362 38.7838 40.6884 37.4833 42.1531C36.1235 43.6734 34.1793 44.5431 32.1395 44.5401H32.1368H16.4305H16.4278C14.3873 44.5431 12.4426 43.6729 11.0828 42.1518C9.77976 40.6875 9.16503 38.7369 9.39236 36.7928L9.39344 36.7832M39.1746 36.7901L9.39344 36.7832M9.39344 36.7832L9.39452 36.7736M9.39452 36.7736C9.57319 35.0951 10.1154 33.4715 10.9777 32.0191M9.39452 36.7736L10.9777 32.0191" stroke="#4A3AFF" stroke-width="4.5" stroke-linecap="round"/>
</g>
<defs>
<clipPath id="clip0_1123_6104">
<rect width="48" height="46.3448" fill="white" transform="translate(0 0.827637)"/>
</clipPath>
</defs>
</svg>
