<svg width="48" height="48" viewBox="0 0 48 48" fill="none" xmlns="http://www.w3.org/2000/svg">
<g clip-path="url(#clip0_1123_6103)">
<path d="M9.5341 -0.000488281C4.25216 -0.000488281 0.00012207 4.25226 0.00012207 9.5343V25.3271H2.75731C3.4224 22.2933 6.13675 19.9999 9.36145 19.9999C11.2696 19.9999 12.9965 20.8059 14.23 22.0897L20.7105 18.1126C20.0265 17.0559 19.6239 15.8021 19.6239 14.4575C19.6239 10.7388 22.6683 7.69432 26.387 7.69432C30.1058 7.69432 33.1534 10.7388 33.1534 14.4575C33.1534 16.4491 32.2742 18.2422 30.891 19.4835L36.4615 26.1118C37.4029 25.6128 38.4726 25.3271 39.6066 25.3271C42.8315 25.3271 45.5478 27.6183 46.2132 30.6519H48.0001V9.5343C48.0001 4.25226 43.7483 -0.000488281 38.4661 -0.000488281H9.5341ZM22.8251 20.1919L15.7399 24.54C15.986 25.239 16.127 25.9863 16.127 26.7663C16.127 30.485 13.0802 33.5295 9.36145 33.5295C6.1365 33.5295 3.42211 31.2382 2.75731 28.2047H0.00012207V38.4655C0.00012207 43.7475 4.25216 48.0003 9.5341 48.0003H38.4661C43.7483 48.0003 48.0001 43.7475 48.0001 38.4655V33.5295H46.2132C45.5475 36.5626 42.8312 38.8534 39.6066 38.8534C35.8878 38.8534 32.8434 35.809 32.8434 32.0902C32.8434 30.5414 33.3775 29.1139 34.2626 27.9702L28.3435 20.9299C27.7231 21.119 27.0667 21.2231 26.387 21.2231C25.0809 21.2231 23.8622 20.8407 22.8251 20.1919Z" fill="#2D4996"/>
<path d="M9.36112 22.8809C11.5243 22.8809 13.2465 24.6031 13.2465 26.7663C13.2465 28.9294 11.5243 30.6516 9.36112 30.6516C7.19805 30.6516 5.47571 28.9294 5.47571 26.7663C5.47571 24.6031 7.19805 22.8809 9.36112 22.8809Z" fill="#0B951C"/>
<path d="M26.3871 10.572C28.5501 10.572 30.2725 12.2943 30.2725 14.4574C30.2725 16.6205 28.5501 18.3428 26.3871 18.3428C24.224 18.3428 22.5017 16.6205 22.5017 14.4574C22.5017 12.2943 24.224 10.572 26.3871 10.572Z" fill="#0B951C"/>
<path d="M39.6066 28.2051C41.7696 28.2051 43.492 29.9274 43.492 32.0905C43.492 34.2536 41.7696 35.9759 39.6066 35.9759C37.4433 35.9759 35.7212 34.2536 35.7212 32.0905C35.7212 29.9274 37.4433 28.2051 39.6066 28.2051Z" fill="#0B951C"/>
</g>
<defs>
<clipPath id="clip0_1123_6103">
<rect width="48" height="48.0008" fill="white" transform="translate(0 -0.000366211)"/>
</clipPath>
</defs>
</svg>
