<svg width="48" height="48" viewBox="0 0 48 48" fill="none" xmlns="http://www.w3.org/2000/svg">
<g clip-path="url(#clip0_1123_6123)">
<path d="M25.2849 0.565674C18.257 0.565674 12.3748 5.89589 11.6822 12.8899C10.5143 12.2408 9.19996 11.8999 7.86392 11.9C3.52429 11.9 0.00660802 15.4186 0.00660802 19.758C-0.0983909 23.9146 1.04456 28.8335 3.67454 31.6387C3.98643 32.0208 4.28149 32.2938 4.56704 32.4963C5.14299 30.6919 6.91719 29.2612 8.83436 29.2612H8.88122C8.91151 28.7135 8.95244 28.1654 8.99226 27.6147C19.3691 29.5566 24.6947 27.6857 29.6983 26.2849C30.4571 26.0725 34.6242 19.9357 34.6242 19.9357C34.6242 19.9357 33.547 25.307 34.3404 25.196C35.9926 24.9651 37.5575 25.0126 39.1753 25.5777C39.3532 26.3687 39.4921 27.9502 39.4978 29.2612H40.7389C42.2694 29.2612 43.7049 30.1751 44.5166 31.461C47.2478 28.3991 48.662 21.7508 47.6968 18.4725C47.2707 15.0111 44.3305 12.4111 40.8431 12.4108C40.1748 12.4108 39.51 12.5086 38.8697 12.699C38.0872 5.7883 32.2415 0.566591 25.2869 0.565674H25.2849ZM8.83375 32.1645C8.42023 32.1642 8.02352 32.3282 7.73089 32.6203C7.43825 32.9125 7.27365 33.309 7.27328 33.7225V45.8739C7.27313 46.0789 7.31339 46.2819 7.39175 46.4713C7.47012 46.6606 7.58506 46.8327 7.72999 46.9777C7.87492 47.1226 8.04701 47.2375 8.2364 47.3159C8.4258 47.3943 8.62878 47.4346 8.83375 47.4344H20.9833C21.1882 47.4345 21.3912 47.3941 21.5805 47.3157C21.7698 47.2373 21.9418 47.1224 22.0867 46.9774C22.2315 46.8325 22.3464 46.6605 22.4247 46.4711C22.5031 46.2817 22.5433 46.0788 22.5432 45.8739V41.3577H27.0294V45.8739C27.0291 46.2874 27.193 46.6842 27.4852 46.9768C27.7774 47.2695 28.1739 47.4341 28.5874 47.4344H40.7394C40.9444 47.4346 41.1474 47.3943 41.3368 47.3159C41.5262 47.2376 41.6983 47.1226 41.8432 46.9777C41.9881 46.8327 42.1031 46.6606 42.1815 46.4713C42.2598 46.2819 42.3001 46.0789 42.2999 45.8739V33.7225C42.2996 33.3089 42.135 32.9125 41.8423 32.6203C41.5497 32.3281 41.153 32.1642 40.7394 32.1645H28.5874C28.1743 32.1648 27.7782 32.3291 27.4861 32.6212C27.194 32.9133 27.0297 33.3094 27.0294 33.7225V38.2386H22.5432V33.7225C22.5428 33.3091 22.3783 32.9127 22.0858 32.6206C21.7933 32.3284 21.3967 32.1644 20.9833 32.1645H8.83375ZM10.3917 35.2829H19.4247V44.3159H10.3917V35.2829ZM30.1479 35.2829H39.1808V44.3159H30.1479V35.2829ZM14.9023 38.0197C14.4315 38.0213 13.9806 38.2094 13.6482 38.5428C13.3159 38.8762 13.1292 39.3278 13.1291 39.7985C13.1292 40.2703 13.3167 40.7226 13.6502 41.0562C13.9838 41.3898 14.4362 41.5772 14.9079 41.5773C15.3798 41.5774 15.8323 41.39 16.166 41.0564C16.4997 40.7228 16.6872 40.2704 16.6873 39.7985C16.6873 39.5649 16.6412 39.3335 16.5518 39.1177C16.4623 38.9019 16.3312 38.7058 16.166 38.5406C16.0008 38.3754 15.8046 38.2444 15.5888 38.155C15.3729 38.0657 15.1415 38.0197 14.9079 38.0197H14.9023ZM34.6528 38.0197C34.183 38.0228 33.7335 38.2115 33.4023 38.5448C33.0712 38.878 32.8853 39.3287 32.8852 39.7985C32.8853 40.0322 32.9313 40.2635 33.0208 40.4793C33.1102 40.6952 33.2413 40.8913 33.4066 41.0564C33.5718 41.2216 33.7679 41.3526 33.9838 41.442C34.1997 41.5314 34.431 41.5773 34.6647 41.5773C35.1364 41.5772 35.5888 41.3898 35.9223 41.0562C36.2559 40.7226 36.4433 40.2703 36.4434 39.7985C36.4434 39.3268 36.2559 38.8744 35.9224 38.5408C35.5888 38.2072 35.1364 38.0198 34.6647 38.0197C34.6628 38.0197 34.6609 38.0197 34.659 38.0197H34.6528Z" fill="#2C89A0"/>
</g>
<defs>
<clipPath id="clip0_1123_6123">
<rect width="48" height="46.8687" fill="white" transform="translate(0 0.565674)"/>
</clipPath>
</defs>
</svg>
