<svg width="48" height="48" viewBox="0 0 48 48" fill="none" xmlns="http://www.w3.org/2000/svg">
<path d="M28.5937 19.5648C27.3856 18.3568 25.9515 17.3985 24.3732 16.7447C22.7948 16.0909 21.1032 15.7545 19.3948 15.7545C17.6864 15.7545 15.9948 16.0909 14.4164 16.7447C12.8381 17.3985 11.4039 18.3568 10.1959 19.5648L19.3948 28.7636L28.5937 19.5648Z" fill="#FFD200"/>
<path d="M19.4064 28.7769C20.6144 29.9849 22.0485 30.9431 23.6268 31.5969C25.2052 32.2507 26.8968 32.5871 28.6052 32.5871C30.3136 32.5871 32.0054 32.2507 33.5837 31.5969C35.162 30.9431 36.5963 29.9849 37.8042 28.7769L28.6052 19.578L19.4064 28.7769Z" fill="#06E07F"/>
<path d="M19.3836 28.7749C18.1756 29.9829 16.7414 30.9411 15.1631 31.5949C13.5847 32.2486 11.8931 32.5851 10.1847 32.5851C8.47631 32.5851 6.78468 32.2486 5.20632 31.5949C3.628 30.9411 2.19385 29.9829 0.98584 28.7749L10.1847 19.576L19.3836 28.7749Z" fill="#E3073C"/>
<path d="M28.6165 19.5668C29.8243 18.3588 31.2586 17.4006 32.8369 16.7468C34.4152 16.093 36.1071 15.7565 37.8152 15.7565C39.5239 15.7565 41.2153 16.093 42.7936 16.7468C44.3719 17.4006 45.8061 18.3588 47.0141 19.5668L37.8152 28.7657L28.6165 19.5668Z" fill="#1F84EF"/>
</svg>
