<svg width="48" height="48" viewBox="0 0 48 48" fill="none" xmlns="http://www.w3.org/2000/svg">
<g clip-path="url(#clip0_1123_6130)">
<path d="M44.3975 24.0799C44.3975 32.1318 39.8753 39.1274 33.2322 42.6656C30.3685 43.4986 23.3608 42.0998 23.3538 42.1626C23.3061 41.9756 16.4128 42.8087 13.9782 42.9248C9.57119 40.728 6.04321 37.0308 4.06319 32.5022C4.01062 32.382 7.54489 32.2611 7.49454 32.1397C7.38473 31.8751 3.6944 31.6078 3.5952 31.3379C3.5035 31.0883 3.41639 30.8365 3.33399 30.5826C3.30166 30.483 9.27235 30.3831 9.24149 30.2829C9.17281 30.0599 3.10544 29.8353 3.04406 29.6093C2.56546 27.8473 2.31006 25.9934 2.31006 24.0799C2.31006 23.5193 2.33197 22.9639 2.37498 22.4144C2.38252 22.318 6.26998 22.2217 6.27883 22.1257C6.29218 21.9804 2.42781 21.8356 2.44413 21.6912C2.57992 20.4893 2.81695 19.3182 3.14648 18.1864C3.23381 17.8864 10.8872 17.5892 10.9874 17.295C11.1036 16.9536 3.66871 16.6162 3.80172 16.283C4.69474 14.0456 5.96068 11.9974 7.52275 10.2152C7.66058 10.0579 16.5635 9.90275 16.7059 9.74969C16.8339 9.61214 8.20086 9.47629 8.33242 9.34221C12.1512 5.45035 17.4706 3.03613 23.3538 3.03613C25.5825 3.03613 27.7303 3.3826 29.7463 4.02461C30.0621 4.12521 24.8144 4.23305 25.1237 4.34797C25.3338 4.42606 31.1027 4.50744 31.3096 4.59199C33.0003 5.28294 34.5811 6.18748 36.0183 7.27213C36.2856 7.47389 27.542 7.68187 27.7992 7.89587C27.9691 8.03726 37.1428 8.18126 37.3081 8.32786C40.8448 11.4633 43.318 15.7716 44.1183 20.6432C44.1766 20.9982 39.0938 21.3561 39.1342 21.7169C39.1581 21.9312 44.311 22.1466 44.3285 22.3628C44.3742 22.9291 44.3975 23.5018 44.3975 24.0799Z" fill="url(#paint0_linear_1123_6130)"/>
<path d="M17.9251 13.8336C16.4758 13.8337 15.0408 14.1197 13.7023 14.6754C12.3638 15.231 11.1481 16.0453 10.1249 17.0717C10.6641 17.146 11.0126 17.2203 10.9872 17.295C10.9619 17.3694 10.45 17.444 9.703 17.5188C7.90419 19.5365 6.91013 22.1452 6.91003 24.8483C6.91003 26.6884 7.37105 28.4993 8.25099 30.1154C8.83124 30.1714 9.22441 30.227 9.2416 30.2828C9.24892 30.3067 8.89979 30.3308 8.38518 30.3547C9.35184 32.0295 10.7424 33.4203 12.417 34.3873C14.0916 35.3542 15.9913 35.8633 17.9251 35.8632C19.3716 35.8632 20.8039 35.5783 22.1402 35.0248C23.4766 34.4712 24.6909 33.6599 25.7137 32.637C26.7365 31.6142 27.5478 30.3998 28.1013 29.0635C28.6548 27.7271 28.9397 26.2948 28.9397 24.8483C28.9396 21.927 27.7792 19.1254 25.7135 17.0598C23.6479 14.9942 20.8463 13.8336 17.9251 13.8336Z" fill="url(#paint1_linear_1123_6130)"/>
<path d="M32.3833 10.959C32.2409 10.9422 32.0818 10.9975 31.8979 11.1715C31.7995 11.2712 31.7177 11.3928 31.6335 11.5422C31.4652 11.8409 31.2931 12.2472 31.0782 12.7658C30.9222 13.1421 30.7569 13.4697 30.6237 13.6837C30.5728 13.7655 30.5354 13.8106 30.5049 13.8478C30.4883 13.868 30.4617 13.8768 30.4363 13.8707C30.2748 13.8313 30.1115 13.8298 29.9298 13.8569C29.67 13.8959 29.3818 13.9775 29.1016 14.0837C28.8213 14.1899 28.5509 14.3192 28.3297 14.4625C28.1043 14.6085 27.9263 14.7336 27.8484 14.9792C27.8166 15.0794 27.784 15.1375 27.7341 15.1863C27.6813 15.238 27.5929 15.2934 27.4261 15.3517C27.0918 15.4686 26.4717 15.5816 25.3882 15.7448C25.0714 15.7924 24.7718 15.8737 24.5298 15.9724C24.2789 16.0493 24.1122 16.2304 23.9888 16.3893C23.8932 16.6385 23.9416 16.8857 24.0247 17.1759C24.1069 17.4628 24.2417 17.7755 24.4052 18.0781C24.5687 18.3807 24.7601 18.6717 24.9614 18.9114C25.1639 19.1523 25.3622 19.3418 25.6069 19.4348C26.0142 19.5897 27.0193 19.8224 27.9371 19.9889C28.3811 20.0693 28.8069 20.176 29.1275 20.2806C29.2879 20.333 29.4221 20.3851 29.5143 20.4295C29.5623 20.4524 29.5955 20.4801 29.6112 20.4926C29.6217 20.5008 29.629 20.5122 29.6332 20.5249C29.6429 20.5554 29.6595 20.6078 29.6722 20.6809C29.6933 20.8028 29.7117 20.9658 29.7255 21.1546C29.7531 21.5322 29.763 22.0128 29.7565 22.4997C29.7521 22.8311 29.7299 23.1345 29.7107 23.4405C29.7066 23.5074 29.6188 23.5287 29.5848 23.471C29.4799 23.2934 29.2855 23.1532 29.1011 23.1532C29.0191 23.1532 28.9792 23.1639 28.8842 23.181C28.7922 23.1969 28.674 23.2205 28.5306 23.2505C28.244 23.3103 27.8589 23.3963 27.4007 23.5023C26.4843 23.7143 25.2766 24.0065 23.9983 24.3275C20.1345 25.2978 16.0859 25.9695 10.7748 26.5049C9.7491 26.6083 8.67665 26.7069 7.54908 26.8012C7.54908 26.8012 7.5467 26.8012 7.54649 26.8012C6.99708 26.8526 6.598 26.917 6.31123 27.0011C5.99213 27.1052 5.77959 27.2445 5.77336 27.4757C5.77724 27.8456 6.16158 27.981 6.45061 28.0969C6.77241 28.2107 7.19759 28.3172 7.71054 28.4143C9.67269 28.7857 12.9066 29.0006 16.0136 28.6948C16.0627 28.6903 16.1 28.7374 16.084 28.7841C16.0112 28.9949 15.9043 29.269 15.7733 29.5662C15.4864 30.2173 15.1197 31.2896 14.9428 31.9959C14.6404 33.2034 13.5672 34.3389 11.7829 35.2445C11.1121 35.585 10.7168 36.1293 10.307 37.2247C10.0188 37.9948 9.36076 39.4677 8.85705 40.4679C8.68728 40.8051 8.5463 41.1164 8.44066 41.3657C8.33111 41.6188 8.26703 42.0567 8.11886 42.1303C4.76752 42.5154 1.36286 44.046 0 44.9575C13.0813 42.8333 29.5444 42.1444 48 44.9637C46.2856 43.8118 41.5645 42.0334 36.3557 41.6557C36.2745 41.6122 36.3307 41.591 36.2696 41.528C36.1123 41.3712 35.9523 41.2305 35.8056 41.1187C35.711 41.0466 35.6232 40.987 35.5389 40.9408C35.0835 40.752 35.0171 40.633 34.8487 40.2537C34.6587 39.822 34.477 39.2065 34.3377 38.537C34.059 37.1974 33.9581 35.6197 34.1754 34.8325C34.2082 34.7551 34.2523 34.6882 34.2965 34.6121C34.3251 34.5447 34.4258 34.5643 34.4269 34.6376C34.4293 34.8011 34.4708 34.9635 34.5833 35.0665C34.7348 35.2052 34.923 35.2574 35.1673 35.2965C35.41 35.3353 35.7107 35.3522 36.0911 35.3606C36.5039 35.3701 37.0517 35.4676 37.2699 35.5439C37.3228 35.5626 37.3318 35.6335 37.2852 35.6644C37.1108 35.7801 36.7844 35.9555 36.5232 36.0355C36.2947 36.1056 36.0912 36.2577 35.8921 36.4515C35.6939 36.6443 35.5128 36.8767 35.3857 37.1225C35.1895 37.5018 35.0601 37.7361 35.0966 38.0265C35.133 38.3164 35.319 38.5073 35.6013 38.8078C35.7713 38.9887 35.9509 39.1513 36.1118 39.2743C36.2571 39.4122 36.4568 39.4696 36.59 39.5065C36.7827 39.5065 36.8658 39.4389 37.0288 39.3447C37.1851 39.2544 37.3669 39.1317 37.5698 38.9825C37.9756 38.6843 38.4636 38.2832 38.9471 37.8571C39.4306 37.4311 39.9089 36.9803 40.294 36.5819C40.68 36.1826 40.9631 35.8669 41.095 35.5905C41.2859 35.1902 41.3998 34.9375 41.402 34.6596C41.4043 34.3845 41.2788 34.1575 41.0909 33.8707C40.947 33.651 40.7037 33.428 40.4016 33.1917C40.1002 32.956 39.7467 32.721 39.4021 32.5382C38.8828 32.2627 38.6109 32.0856 38.4828 31.9273C37.5567 31.1371 37.8543 30.4372 37.6124 30.1008C38.9229 28.0849 39.291 26.1449 38.8391 23.5503C38.5283 21.7656 37.8154 20.2121 34.409 13.8448C33.8927 12.8797 33.5155 12.1823 33.206 11.7158C33.0511 11.4821 32.9157 11.3062 32.7717 11.1775C32.6527 11.0637 32.5266 10.9754 32.384 10.9587L32.3833 10.959ZM30.0379 15.5178C30.0678 15.5178 30.0967 15.5216 30.1239 15.5277C30.2229 15.5495 30.3008 15.6086 30.3355 15.7267C30.5143 16.3359 29.6975 16.1974 29.2423 16.1296C29.1413 16.115 28.8109 16.0353 28.9541 15.9436C29.0828 15.8613 29.1794 15.8016 29.4063 15.6966C29.5645 15.6235 29.8284 15.5124 30.0379 15.5178ZM26.3872 32.188C26.4049 32.188 26.4221 32.1916 26.4352 32.1953C28.1603 32.6027 28.9641 32.8075 29.4166 33.3275C29.8698 33.8482 30.0569 34.7987 30.409 36.7778C30.7016 38.4227 30.9044 39.4436 31.1064 40.1389C31.2542 40.6477 31.4204 40.9647 31.6093 41.2343C31.6414 41.2807 31.606 41.3437 31.5497 41.3406C29.3682 41.2319 27.1748 41.1336 25.3106 41.1098C25.2618 41.1098 25.195 41.0964 25.1035 41.0721C25.012 41.0477 24.9015 41.0115 24.788 40.9636C24.5629 40.8687 24.3174 40.7359 24.1179 40.5939C23.7202 40.3107 23.1487 39.6469 22.6989 38.9816C22.4742 38.6493 22.2767 38.3157 22.1391 38.0305C22.0728 37.8931 22.0236 37.7647 21.9898 37.6599C21.8932 37.4746 21.9487 37.4276 21.9898 37.2892C22.0399 37.2113 22.1206 37.1118 22.2247 37.0033C22.4326 36.7866 22.7311 36.5362 23.0628 36.313C24.7236 35.1959 25.7412 34.2563 26.2232 33.3338C26.3931 33.0085 26.5067 32.8294 26.4827 32.5718C26.4736 32.4751 26.412 32.3799 26.3419 32.2997C26.2802 32.2033 26.3344 32.1853 26.3872 32.188ZM20.5471 33.3726C20.6079 33.375 20.6356 33.4496 20.5905 33.4905C20.038 33.9846 19.4977 34.4768 19.0774 34.8701C18.6283 35.2902 18.3277 35.5745 18.1998 35.732C17.809 36.2132 17.6887 36.792 17.938 37.4388C18.1891 38.0899 18.757 38.8448 19.7008 39.9142C20.0938 40.3594 20.4199 40.6942 20.7537 41.0428C20.794 41.0853 20.7647 41.1554 20.7062 41.1571C17.6537 41.2324 14.6532 41.4054 11.8487 41.6838C11.8241 41.6861 11.7999 41.6749 11.7859 41.6546C11.7423 41.5956 11.6887 41.5096 11.6384 41.4327C11.5956 41.3492 11.583 41.2926 11.5856 41.2274C11.5886 41.1503 11.6193 41.0521 11.6806 40.8994C11.7419 40.7467 11.8352 40.5426 11.967 40.2714C12.3264 39.5317 12.9647 38.8705 14.204 37.9954C15.1846 37.3031 17.6001 35.5268 19.582 34.0405C19.9979 33.7286 20.1792 33.6246 20.5049 33.3856C20.517 33.3765 20.5319 33.3722 20.5471 33.3726Z" fill="url(#paint2_linear_1123_6130)"/>
<path d="M32.3429 11.83C31.8513 12.6748 31.6466 13.6823 31.0015 14.4368C30.868 14.5847 30.6697 14.6681 30.4761 14.655C29.9512 14.3883 29.1681 14.8449 28.7187 15.114C28.5114 15.1995 28.5131 15.4413 28.3803 15.594C27.9996 16.082 27.34 16.1649 26.773 16.2847C26.124 16.4264 25.445 16.4391 24.8184 16.6724C24.6341 16.6935 24.7372 16.8749 24.7615 16.9911C24.9692 17.6024 25.2885 18.1963 25.7592 18.645C25.9578 18.8019 26.2274 18.8172 26.4615 18.8951C26.6892 18.9508 26.9856 19.0226 27.2428 19.0761C28.1575 19.2789 29.1169 19.3788 29.9625 19.8086C30.3183 19.9771 30.4116 20.3911 30.4461 20.7479C30.4897 22.5446 30.494 24.0386 29.7904 25.6796C29.5218 25.2238 29.4344 24.9513 28.984 24.0598C28.9741 23.9649 28.9403 23.8979 28.8106 23.967C26.2771 24.4929 23.7511 25.2223 21.1991 25.7433C18.1552 26.3726 15.0769 26.801 11.988 27.1354C10.5269 27.2935 9.07734 27.4306 8.26472 27.5007C8.25115 27.5007 8.22387 27.5041 8.21046 27.5054C7.40668 27.5742 7.44851 27.5887 7.52561 27.6045C7.60919 27.6213 7.73449 27.6401 7.77571 27.6538C7.9405 27.6841 8.10657 27.7068 8.27188 27.7335C9.50302 27.9325 10.7475 28.0397 11.9947 28.0742C12.6736 28.0929 13.3529 28.094 14.0309 28.0768C14.9371 28.0515 15.8406 27.971 16.7412 27.8715C16.84 28.1249 17.005 28.3791 16.9125 28.6608C16.6934 29.4761 16.2753 30.22 16.0282 31.0264C15.8179 31.5834 15.7113 32.1728 15.4966 32.7274C14.9564 34.0188 13.8297 34.9582 12.6419 35.6398C12.4506 35.7521 12.2437 35.8515 12.0503 35.967C11.8246 36.1019 11.6176 36.2602 11.4824 36.4981C11.0925 37.1288 10.9073 37.8567 10.5927 38.524C9.61293 40.1073 8.95808 41.973 8.77792 42.5082C8.75411 42.579 8.73861 42.6237 8.73219 42.6391C9.46912 42.5037 10.2895 42.472 10.9298 42.4333C10.8242 42.1111 10.7104 41.0919 10.9334 40.7212C11.2058 40.0282 11.5584 39.355 12.0701 38.8082C12.1059 38.7699 12.1402 38.7305 12.1776 38.6935C13.0784 37.7693 14.1974 37.1054 15.2183 36.3278C17.0574 34.9953 18.8628 33.6165 20.6963 32.2765C21.5626 31.664 22.589 31.0706 23.6863 31.026C24.7283 30.9854 25.6526 31.2529 26.6606 31.471C27.5882 31.709 28.5611 31.8645 29.4036 32.3442C30.0725 32.7253 30.4541 33.4417 30.6452 34.1639C30.9644 35.3459 31.1235 36.5629 31.3583 37.763C31.5151 38.5584 31.66 39.4008 31.9163 40.1878C32.0275 40.5656 32.2376 40.9049 32.5223 41.1762C32.7787 41.4655 33.035 41.7549 33.2914 42.0443C34.2209 42.1303 35.1273 42.229 36.0057 42.3397C35.7372 42.073 35.4839 41.773 35.1461 41.6024C34.6141 41.5058 34.3369 40.972 34.1372 40.5226C33.6715 39.3783 33.4505 38.148 33.3353 36.9226C33.2768 36.1023 33.2378 35.2506 33.4976 34.4588C33.8655 33.589 34.4733 32.8485 35.0708 32.1272C35.818 31.2836 36.5952 30.4543 37.1805 29.4846C37.8871 28.37 38.2859 27.06 38.2786 25.7376C38.2728 24.6033 38.1154 23.4624 37.7618 22.3827C37.213 20.8113 36.4246 19.3393 35.6714 17.8594C34.8068 16.2025 33.9276 14.5341 33.0238 12.8893C32.812 12.5305 32.613 12.1398 32.343 11.8315L32.3429 11.83ZM30.0378 15.5178C30.0677 15.5178 30.0966 15.5217 30.1239 15.5277C30.2229 15.5495 30.3007 15.6087 30.3354 15.7267C30.5142 16.3359 29.6974 16.1975 29.2422 16.1297C29.1412 16.115 28.8108 16.0354 28.954 15.9437C29.0827 15.8613 29.1794 15.8017 29.4063 15.6967C29.5645 15.6235 29.8283 15.5124 30.0378 15.5178ZM37.167 31.0406C37.1406 31.0383 37.104 31.0624 37.0532 31.1222C36.6248 31.4413 35.5381 32.7471 34.9255 33.6864C34.9055 33.7876 35.1072 34.522 35.2751 34.5416C35.9236 34.6234 36.5872 34.5732 37.2262 34.7361C37.6138 34.8305 38.0819 34.9732 38.2261 35.3905C38.3205 35.7529 38.0603 36.0771 37.7725 36.2627C37.4368 36.5017 37.0465 36.6458 36.6663 36.7934C36.264 37.0526 36.0051 37.4829 35.8497 37.926C36.0631 38.2201 36.3265 38.4807 36.6157 38.701C37.45 38.1809 38.1832 37.5166 38.9114 36.8602C39.4286 36.3666 39.9697 35.884 40.3856 35.2986C40.4784 35.0737 40.6478 34.8472 40.6298 34.5967C40.4035 34.0621 39.8828 33.7444 39.4242 33.4278C38.8525 33.0506 37.6909 32.3161 37.3297 31.6919C37.2092 31.5447 37.2812 31.05 37.167 31.0406ZM23.757 31.9048C23.3556 31.9485 23.0363 32.2748 22.7262 32.5135C21.5464 33.5333 20.0665 34.9614 18.9464 36.0467C18.6708 36.2843 18.46 36.6617 18.5995 37.0291C18.834 37.7213 19.3307 38.2818 19.7801 38.8435C20.5921 39.8199 21.4778 40.7304 22.3694 41.6336C22.8544 41.6271 23.3402 41.6238 23.8261 41.6237C24.0199 41.624 24.2137 41.6249 24.4074 41.6263C24.1239 41.4987 23.8545 41.3352 23.6055 41.1579C22.834 40.5303 22.2434 39.7095 21.728 38.8662C21.4716 38.3951 21.1677 37.8991 21.1767 37.3454C21.2431 36.8644 21.6331 36.5149 21.9718 36.2016C22.5883 35.667 23.3086 35.2696 23.9328 34.7436C24.6196 34.1824 25.3423 33.4117 25.7058 32.5837C25.5171 32.4557 25.4979 32.1056 25.419 32.0933C24.901 32.0129 24.4987 31.9686 23.9341 31.9055C23.8732 31.899 23.8144 31.8992 23.757 31.9055V31.9048Z" fill="white"/>
</g>
<defs>
<linearGradient id="paint0_linear_1123_6130" x1="22.9925" y1="43.1699" x2="22.7469" y2="3.87876" gradientUnits="userSpaceOnUse">
<stop stop-color="#2CA05A"/>
<stop offset="1" stop-color="#BCD35F"/>
</linearGradient>
<linearGradient id="paint1_linear_1123_6130" x1="14.1752" y1="10.494" x2="42.0645" y2="39.8537" gradientUnits="userSpaceOnUse">
<stop stop-color="#BCD35F"/>
<stop offset="1" stop-color="#37A45A"/>
</linearGradient>
<linearGradient id="paint2_linear_1123_6130" x1="30.1092" y1="10.7941" x2="27.0387" y2="39.9698" gradientUnits="userSpaceOnUse">
<stop stop-color="#88AA00"/>
<stop offset="1" stop-color="#35A35A"/>
</linearGradient>
<clipPath id="clip0_1123_6130">
<rect width="48" height="41.9277" fill="white" transform="translate(0 3.03613)"/>
</clipPath>
</defs>
</svg>
