<svg width="48" height="48" viewBox="0 0 48 48" fill="none" xmlns="http://www.w3.org/2000/svg">
<g clip-path="url(#clip0_1123_6099)">
<path d="M24 0C37.2552 0 48 10.7448 48 24V40.8C48 42.7096 47.2414 44.5409 45.8912 45.8912C44.5409 47.2414 42.7096 48 40.8 48H25.2V37.4712C25.2 35.0688 25.3464 32.58 26.6064 30.5352C27.5085 29.0698 28.7152 27.8156 30.1447 26.8575C31.5741 25.8995 33.1929 25.2602 34.8912 24.9828L35.3508 24.9084C35.5403 24.8436 35.7048 24.7212 35.8212 24.5584C35.9377 24.3955 36.0003 24.2002 36.0003 24C36.0003 23.7998 35.9377 23.6045 35.8212 23.4416C35.7048 23.2788 35.5403 23.1564 35.3508 23.0916L34.8912 23.0172C32.4098 22.6119 30.1184 21.4373 28.3406 19.6595C26.5627 17.8816 25.3882 15.5902 24.9828 13.1088L24.9084 12.6492C24.8436 12.4597 24.7213 12.2952 24.5584 12.1788C24.3955 12.0623 24.2002 11.9997 24 11.9997C23.7998 11.9997 23.6045 12.0623 23.4417 12.1788C23.2788 12.2952 23.1564 12.4597 23.0916 12.6492L23.0172 13.1088C22.7399 14.8071 22.1006 16.4259 21.1426 17.8554C20.1845 19.2849 18.9303 20.4916 17.4648 21.3936C15.42 22.6536 12.9312 22.8 10.5288 22.8H0.0288086C0.656409 10.1028 11.148 0 24 0Z" fill="#F06225"/>
<path d="M0 25.2H10.5288C12.9312 25.2 15.42 25.3464 17.4648 26.6064C19.0632 27.5913 20.4087 28.9368 21.3936 30.5352C22.6536 32.58 22.8 35.0688 22.8 37.4712V48H7.2C5.29044 48 3.45909 47.2414 2.10883 45.8912C0.758569 44.5409 0 42.7096 0 40.8L0 25.2ZM48 2.4C48 3.03652 47.7471 3.64697 47.2971 4.09706C46.847 4.54714 46.2365 4.8 45.6 4.8C44.9635 4.8 44.353 4.54714 43.9029 4.09706C43.4529 3.64697 43.2 3.03652 43.2 2.4C43.2 1.76348 43.4529 1.15303 43.9029 0.702944C44.353 0.252856 44.9635 0 45.6 0C46.2365 0 46.847 0.252856 47.2971 0.702944C47.7471 1.15303 48 1.76348 48 2.4Z" fill="#F06225"/>
</g>
<defs>
<clipPath id="clip0_1123_6099">
<rect width="48" height="48" fill="white"/>
</clipPath>
</defs>
</svg>
