<svg width="48" height="48" viewBox="0 0 48 48" fill="none" xmlns="http://www.w3.org/2000/svg">
<g clip-path="url(#clip0_1123_6094)">
<path d="M42.9276 26.4393C45.0305 26.4393 46.7236 28.338 46.7236 30.6964V31.0901C46.7236 33.4484 45.0305 35.3469 42.9276 35.3469C40.8246 35.3469 39.1315 33.4484 39.1315 31.0901V30.6964C39.1315 28.338 40.8246 26.4393 42.9276 26.4393Z" fill="white"/>
<path d="M42.9273 25.1636C40.0567 25.1636 37.8566 27.7269 37.8566 30.6957V31.0892C37.8566 34.0579 40.0567 36.6233 42.9273 36.6233C45.7979 36.6233 48 34.0579 48 31.0892V30.6957C48 27.7269 45.7979 25.1636 42.9273 25.1636ZM42.9273 27.715C44.2627 27.715 45.4486 28.9477 45.4486 30.6957V31.0892C45.4486 32.8371 44.2627 34.0718 42.9273 34.0718C41.592 34.0718 40.4061 32.8371 40.4061 31.0892V30.6957C40.4061 28.9477 41.592 27.715 42.9273 27.715Z" fill="#1A1A1A"/>
<path d="M5.07164 26.4393C7.17456 26.4393 8.86765 28.338 8.86765 30.6964V31.0901C8.86765 33.4484 7.17456 35.3469 5.07164 35.3469C2.96863 35.3469 1.27551 33.4484 1.27551 31.0901V30.6964C1.27551 28.338 2.96863 26.4393 5.07164 26.4393Z" fill="white"/>
<path d="M5.07076 25.1636C2.20006 25.1636 0 27.7269 0 30.6957V31.0892C0 34.0579 2.20006 36.6233 5.07076 36.6233C7.94127 36.6233 10.1434 34.0579 10.1434 31.0892V30.6957C10.1434 27.7269 7.94127 25.1636 5.07076 25.1636ZM5.07076 27.715C6.406 27.715 7.59202 28.9477 7.59202 30.6957V31.0892C7.59202 32.8371 6.406 34.0718 5.07076 34.0718C3.73534 34.0718 2.55139 32.8371 2.55139 31.0892V30.6957C2.55139 28.9477 3.73534 27.715 5.07076 27.715Z" fill="#1A1A1A"/>
<path d="M22.7234 9.62549V21.0586H25.2748V9.62549H22.7234Z" fill="#1A1A1A"/>
<path d="M27.4629 9.62615C27.4629 11.5445 25.9123 13.0997 23.9996 13.0997C22.0869 13.0997 20.5363 11.5445 20.5363 9.62615C20.5363 7.70775 22.0869 6.15259 23.9996 6.15259C25.9123 6.15259 27.4629 7.70775 27.4629 9.62615Z" fill="white"/>
<path d="M24 4.87683C21.3959 4.87683 19.2606 7.01993 19.2606 9.62561C19.2607 12.2312 21.396 14.3743 24 14.3743C26.4263 14.3743 28.3715 12.49 28.6358 10.1282C28.7034 9.9693 28.738 9.79832 28.7375 9.62561C28.7376 9.45553 28.7036 9.28706 28.6377 9.13028C28.3768 6.76504 26.4289 4.87683 24 4.87683ZM24 7.42822C25.2215 7.42822 26.188 8.3944 26.188 9.62561C26.1879 10.8567 25.2215 11.8248 24 11.8248C22.7786 11.8248 21.812 10.8567 21.812 9.62561C21.812 8.3944 22.7786 7.42822 24 7.42822Z" fill="#1A1A1A"/>
<path d="M12.6545 21.0592H35.3446C38.839 21.0592 41.6522 23.8724 41.6522 27.3667V35.5406C41.6522 39.0349 38.839 41.8482 35.3446 41.8482H12.6545C9.16019 41.8482 6.34705 39.0349 6.34705 35.5406V27.3667C6.34705 23.8724 9.16019 21.0592 12.6545 21.0592Z" fill="white"/>
<path d="M12.6553 19.7841C8.47635 19.7841 5.0708 23.1877 5.0708 27.3665V35.5404C5.0708 39.7192 8.47635 43.123 12.6553 43.123H35.3447C39.5237 43.123 42.9274 39.7192 42.9274 35.5404V27.3665C42.9274 23.1877 39.5237 19.7841 35.3447 19.7841H12.6553ZM12.6553 22.3353H35.3447C38.1547 22.3353 40.376 24.5567 40.376 27.3665V35.5404C40.376 38.3503 38.1547 40.5735 35.3447 40.5735H12.6553C9.84542 40.5735 7.62228 38.3503 7.62219 35.5404V27.3665C7.62219 24.5567 9.84542 22.3353 12.6553 22.3353Z" fill="#1A1A1A"/>
<path d="M31.1525 32.9587C30.287 32.9587 29.5857 33.66 29.5857 34.5251C29.5857 35.3904 30.287 36.092 31.1525 36.092C32.0176 36.092 32.7194 35.3904 32.7194 34.5251C32.7194 33.66 32.0176 32.9587 31.1525 32.9587Z" fill="#FF2AD4"/>
<path d="M34.2238 29.8868C33.3584 29.8868 32.657 30.5883 32.657 31.4536C32.657 32.3189 33.3584 33.0204 34.2238 33.0204C35.0891 33.0204 35.7907 32.3189 35.7907 31.4536C35.7907 30.5882 35.0891 29.8868 34.2238 29.8868Z" fill="#FFCC00"/>
<path d="M28.0607 29.8868C27.1954 29.8868 26.4939 30.5883 26.4939 31.4536C26.4939 32.3189 27.1954 33.0204 28.0607 33.0204C28.9262 33.0204 29.6276 32.3189 29.6276 31.4536C29.6276 30.5882 28.9262 29.8868 28.0607 29.8868Z" fill="#00AAD4"/>
<path d="M15.0018 27.2924V30.0852H12.2085V32.8217H15.0018V35.6151H17.7385V32.8217H20.5313V30.0852H17.7385V27.2924H15.0018Z" fill="#1A1A1A"/>
<path d="M31.1525 26.8154C30.287 26.8154 29.5857 27.5164 29.5857 28.3817C29.5857 29.2471 30.287 29.9486 31.1525 29.9486C32.0176 29.9486 32.7194 29.2471 32.7194 28.3817C32.7194 27.5164 32.0176 26.8154 31.1525 26.8154Z" fill="#00AA00"/>
</g>
<defs>
<clipPath id="clip0_1123_6094">
<rect width="48" height="38.2462" fill="white" transform="translate(0 4.87683)"/>
</clipPath>
</defs>
</svg>
