<svg width="48" height="48" viewBox="0 0 48 48" fill="none" xmlns="http://www.w3.org/2000/svg">
<g clip-path="url(#clip0_1123_6096)">
<path d="M33.2387 0.582153H15.0306C10.7025 0.582153 7.19385 4.09078 7.19385 8.41889V39.7608C7.19385 44.0889 10.7025 47.5976 15.0306 47.5976H33.2387C37.5669 47.5976 41.0755 44.0889 41.0755 39.7608V8.41889C41.0755 4.09078 37.5669 0.582153 33.2387 0.582153Z" fill="#4A3AFF"/>
<path d="M24.135 42.1452C26.184 42.1452 27.845 40.4842 27.845 38.4352C27.845 36.3862 26.184 34.7252 24.135 34.7252C22.0861 34.7252 20.425 36.3862 20.425 38.4352C20.425 40.4842 22.0861 42.1452 24.135 42.1452Z" fill="white"/>
</g>
<defs>
<clipPath id="clip0_1123_6096">
<rect width="35.2653" height="48" fill="white" transform="translate(6.36731)"/>
</clipPath>
</defs>
</svg>
