<svg width="48" height="48" viewBox="0 0 48 48" fill="none" xmlns="http://www.w3.org/2000/svg">
<g clip-path="url(#clip0_1123_6129)">
<path fill-rule="evenodd" clip-rule="evenodd" d="M12 0C18.6274 0 24 5.37258 24 12V0H36C42.6274 0 48 5.37258 48 12C48 18.6274 42.6274 24 36 24C42.6274 24 48 29.3726 48 36C48 39.2908 46.6753 42.2722 44.5302 44.4401L44.4853 44.4853L44.4455 44.5249C42.2771 46.6732 39.2935 48 36 48C32.7289 48 29.7635 46.6912 27.5988 44.5686C27.5707 44.541 27.5426 44.5132 27.5147 44.4853C27.4884 44.459 27.4622 44.4326 27.4362 44.4061C25.3109 42.2411 24 39.2736 24 36C24 42.6274 18.6274 48 12 48C5.37258 48 0 42.6274 0 36V24H12C5.37258 24 0 18.6274 0 12C0 5.37258 5.37258 0 12 0ZM21.6 12C21.6 17.302 17.302 21.6 12 21.6V2.4C17.302 2.4 21.6 6.69806 21.6 12ZM45.6 36C45.6 30.698 41.302 26.4 36 26.4C30.698 26.4 26.4 30.698 26.4 36H45.6ZM2.4 26.4V36C2.4 41.302 6.69806 45.6 12 45.6C17.302 45.6 21.6 41.302 21.6 36V26.4H2.4ZM26.4 21.6V2.4H36C41.302 2.4 45.6 6.69806 45.6 12C45.6 17.302 41.302 21.6 36 21.6H26.4Z" fill="#5417D7"/>
</g>
<defs>
<clipPath id="clip0_1123_6129">
<rect width="48" height="48" fill="white"/>
</clipPath>
</defs>
</svg>
