<svg width="48" height="48" viewBox="0 0 48 48" fill="none" xmlns="http://www.w3.org/2000/svg">
<g clip-path="url(#clip0_1123_6074)">
<path fill-rule="evenodd" clip-rule="evenodd" d="M0.177778 27.1307C0 27.1307 0 27.1307 0 27.1307C3.76782 53.9241 43.8547 53.6606 48 27.1307C47.8222 27.1307 47.8222 27.1307 47.8222 27.1307C46.0445 27.1307 44.4444 27.3085 42.6666 27.6641C38.3211 47.0216 9.45031 47.1824 5.51111 27.4863C3.73333 27.3085 1.95556 27.1307 0.177778 27.1307Z" fill="#5BD0F4"/>
<path fill-rule="evenodd" clip-rule="evenodd" d="M0 20.1973H0.177778C1.95556 20.1973 3.55555 20.0195 5.33334 19.664C9.64195 0.471232 38.3106 0.0614642 42.3111 19.664C43.9111 20.0195 45.6889 20.1973 47.4666 20.1973H47.6444C44.2746 -6.7613 3.74878 -6.46066 0 20.1973Z" fill="#5BD0F4"/>
<path fill-rule="evenodd" clip-rule="evenodd" d="M43.7332 23.5752C35.911 22.5085 28.7999 18.4197 23.9999 12.0197C19.1999 18.4197 12.0888 22.5085 4.2666 23.5752C12.0888 24.6419 19.3777 28.9086 23.9999 35.3086C28.7999 28.9086 35.911 24.6419 43.7332 23.5752Z" fill="#283D74"/>
</g>
<defs>
<clipPath id="clip0_1123_6074">
<rect width="48" height="48" fill="white"/>
</clipPath>
</defs>
</svg>
