<svg width="48" height="48" viewBox="0 0 48 48" fill="none" xmlns="http://www.w3.org/2000/svg">
<path d="M7.5792 24C7.58414 19.8381 9.16788 15.833 12.0107 12.7933C14.8535 9.7536 18.7437 7.9056 22.896 7.6224L26.9136 2.5968C21.5727 1.86704 16.1519 3.1607 11.7162 6.22365C7.28035 9.2866 4.15015 13.8975 2.94041 19.1505C1.73067 24.4034 2.52883 29.9191 5.1781 34.6138C7.82738 39.3082 12.1363 42.8426 17.2584 44.5224L18.7896 39.5688C15.527 38.473 12.6904 36.3811 10.6793 33.5882C8.66815 30.7951 7.58388 27.4416 7.5792 24Z" fill="black"/>
<path d="M30.6216 3.43677L29.1048 8.39997C32.7427 9.58852 35.8512 12.0108 37.8924 15.248C39.9338 18.4852 40.7801 22.334 40.2847 26.129C39.7894 29.9239 37.9836 33.4265 35.1797 36.0314C32.3758 38.6361 28.7501 40.1794 24.9288 40.3944L20.9473 45.3864C26.3098 46.1611 31.7674 44.8925 36.2381 41.8317C40.7088 38.771 43.866 34.1419 45.0838 28.8624C46.3013 23.5828 45.4901 18.0386 42.8114 13.329C40.1326 8.6195 35.7818 5.08866 30.6216 3.43677Z" fill="black"/>
<path d="M30.2976 19.9704L24.576 19.2672L30.4656 0L13.6296 21.0528L17.7024 27.78L23.424 28.4832L17.3904 48L34.3704 26.7L30.2976 19.9704Z" fill="#FF6022"/>
</svg>
