<svg width="48" height="48" viewBox="0 0 48 48" fill="none" xmlns="http://www.w3.org/2000/svg">
<g clip-path="url(#clip0_1123_6069)">
<path d="M32.3975 9.11145H15.3463C11.9257 9.11145 9.15277 11.9299 9.15277 15.4065V32.7372C9.15277 36.2139 11.9257 39.0323 15.3463 39.0323H32.3975C35.8181 39.0323 38.591 36.2139 38.591 32.7372V15.4065C38.591 11.9299 35.8181 9.11145 32.3975 9.11145Z" fill="#4A3AFF"/>
<path d="M19.6723 2.59457C19.6723 1.33371 18.6666 0.311584 17.4261 0.311584C16.1856 0.311584 15.1799 1.33371 15.1799 2.59457V5.06879C15.1799 6.32965 16.1856 7.35178 17.4261 7.35178C18.6666 7.35178 19.6723 6.32965 19.6723 5.06879V2.59457Z" fill="#702DFF"/>
<path d="M26.1184 2.59457C26.1184 1.33371 25.1127 0.311584 23.8722 0.311584C22.6317 0.311584 21.626 1.33371 21.626 2.59457V5.06879C21.626 6.32965 22.6317 7.35178 23.8722 7.35178C25.1127 7.35178 26.1184 6.32965 26.1184 5.06879V2.59457Z" fill="#702DFF"/>
<path d="M32.5659 2.59457C32.5659 1.33371 31.5602 0.311584 30.3197 0.311584C29.0792 0.311584 28.0735 1.33371 28.0735 2.59457V5.06879C28.0735 6.32965 29.0792 7.35178 30.3197 7.35178C31.5602 7.35178 32.5659 6.32965 32.5659 5.06879V2.59457Z" fill="#702DFF"/>
<path d="M2.7406 28.3414C1.50008 28.3414 0.494446 29.3636 0.494446 30.6244C0.494446 31.8853 1.50008 32.9074 2.7406 32.9074H5.17493C6.41545 32.9074 7.42108 31.8853 7.42108 30.6244C7.42108 29.3636 6.41545 28.3414 5.17493 28.3414H2.7406Z" fill="#702DFF"/>
<path d="M2.74061 21.789C1.50009 21.789 0.494446 22.8111 0.494446 24.0719C0.494446 25.3328 1.50009 26.3549 2.74061 26.3549H5.17493C6.41545 26.3549 7.42109 25.3328 7.42109 24.0719C7.42109 22.8111 6.41545 21.789 5.17493 21.789H2.74061Z" fill="#702DFF"/>
<path d="M2.7406 15.2372C1.50009 15.2372 0.494446 16.2593 0.494446 17.5202C0.494446 18.781 1.50009 19.8032 2.7406 19.8032H5.17493C6.41545 19.8032 7.42109 18.781 7.42109 17.5202C7.42109 16.2593 6.41545 15.2372 5.17493 15.2372H2.7406Z" fill="#702DFF"/>
<path d="M42.5693 28.3414C41.3288 28.3414 40.3231 29.3636 40.3231 30.6244C40.3231 31.8853 41.3288 32.9074 42.5693 32.9074H45.0036C46.2441 32.9074 47.2498 31.8853 47.2498 30.6244C47.2498 29.3636 46.2441 28.3414 45.0036 28.3414H42.5693Z" fill="#702DFF"/>
<path d="M42.5693 21.789C41.3288 21.789 40.3231 22.8111 40.3231 24.0719C40.3231 25.3328 41.3288 26.3549 42.5693 26.3549H45.0036C46.2441 26.3549 47.2498 25.3328 47.2498 24.0719C47.2498 22.8111 46.2441 21.789 45.0036 21.789H42.5693Z" fill="#702DFF"/>
<path d="M42.5693 15.2372C41.3288 15.2372 40.3231 16.2593 40.3231 17.5202C40.3231 18.781 41.3288 19.8032 42.5693 19.8032H45.0036C46.2441 19.8032 47.2498 18.781 47.2498 17.5202C47.2498 16.2593 46.2441 15.2372 45.0036 15.2372H42.5693Z" fill="#702DFF"/>
<path d="M19.6723 43.0758C19.6723 41.8149 18.6666 40.7928 17.4261 40.7928C16.1856 40.7928 15.1799 41.8149 15.1799 43.0758V45.55C15.1799 46.8109 16.1856 47.833 17.4261 47.833C18.6666 47.833 19.6723 46.8109 19.6723 45.55V43.0758Z" fill="#702DFF"/>
<path d="M26.1184 43.0758C26.1184 41.8149 25.1127 40.7928 23.8722 40.7928C22.6317 40.7928 21.626 41.8149 21.626 43.0758V45.55C21.626 46.8109 22.6317 47.833 23.8722 47.833C25.1127 47.833 26.1184 46.8109 26.1184 45.55V43.0758Z" fill="#702DFF"/>
<path d="M32.5659 43.0758C32.5659 41.8149 31.5602 40.7928 30.3197 40.7928C29.0792 40.7928 28.0735 41.8149 28.0735 43.0758V45.55C28.0735 46.8109 29.0792 47.833 30.3197 47.833C31.5602 47.833 32.5659 46.8109 32.5659 45.55V43.0758Z" fill="#702DFF"/>
</g>
<defs>
<clipPath id="clip0_1123_6069">
<rect width="48" height="48" fill="white"/>
</clipPath>
</defs>
</svg>
