<svg width="48" height="48" viewBox="0 0 48 48" fill="none" xmlns="http://www.w3.org/2000/svg">
<g clip-path="url(#clip0_1123_6095)">
<path d="M18.1657 0L17.2541 0.526578L10.5085 4.42057V11.1578L4.6748 14.5258V23.3673L10.5085 26.737V33.4725L16.3421 36.8417V43.579L23.9999 48L31.6571 43.579V36.8417L37.4912 33.4725V26.7353L43.3248 23.3673V14.5258L37.4912 11.1578V4.42057L29.8336 0L23.9999 3.3675L18.1657 0Z" fill="#3A2318"/>
<path d="M11.4262 12.7323L6.49719 15.5782V22.3151L12.3314 25.6836V32.42L17.2549 35.2628L18.141 34.7513L23.0885 31.8949V26.2106L17.2543 22.8415V16.1051L12.2771 13.2303L11.4262 12.7323Z" fill="#FAB247"/>
<path d="M18.1657 2.10474L12.3314 5.47323V11.1507L13.1922 11.6543L19.0771 15.0518V21.7888L23.9993 24.6303L28.9215 21.7888V15.0518L23.9999 12.2102L28.9228 15.0518L34.8082 11.6543L35.6684 11.1507V5.47323L29.8342 2.10474L23.9999 5.47323L18.1657 2.10474Z" fill="#FAB247"/>
<path d="M36.5743 12.7323L35.7234 13.2303L30.7456 16.1051V22.8415L24.912 26.2106V31.8949L29.8589 34.7513L30.745 35.2628L35.6685 32.42V25.6836L41.5027 22.3151V15.5782L36.5743 12.7323Z" fill="#FAB247"/>
<path d="M24.0004 33.4725L19.051 36.3309L18.1658 36.8418V42.5255L23.9999 45.8939L29.8345 42.5255V36.8418L28.9493 36.3309L24.0004 33.4725Z" fill="#FAB247"/>
</g>
<defs>
<clipPath id="clip0_1123_6095">
<rect width="38.65" height="48" fill="white" transform="translate(4.67493)"/>
</clipPath>
</defs>
</svg>
