<svg width="48" height="48" viewBox="0 0 48 48" fill="none" xmlns="http://www.w3.org/2000/svg">
<g clip-path="url(#clip0_1123_6039)">
<path d="M35.5769 5.36258H12.9961C7.31546 5.36258 2.71039 9.96765 2.71039 15.6483V32.5097C2.71039 38.1903 7.31546 42.7954 12.9961 42.7954H35.5769C41.2576 42.7954 45.8626 38.1903 45.8626 32.5097V15.6483C45.8626 9.96765 41.2576 5.36258 35.5769 5.36258Z" fill="#4A3AFF" stroke="#4A3AFF" stroke-width="5" stroke-miterlimit="10" stroke-linecap="round" stroke-linejoin="round"/>
<path d="M48.0021 17.2216H30.6454C26.8583 17.2216 23.7882 20.2916 23.7882 24.0787C23.7882 27.8658 26.8583 30.9358 30.6454 30.9358H48.0021V17.2216Z" fill="#4CBFFF"/>
<path d="M30.4152 27.5073C32.3088 27.5073 33.8438 25.9722 33.8438 24.0787C33.8438 22.1851 32.3088 20.6501 30.4152 20.6501C28.5217 20.6501 26.9866 22.1851 26.9866 24.0787C26.9866 25.9722 28.5217 27.5073 30.4152 27.5073Z" fill="white"/>
</g>
<defs>
<clipPath id="clip0_1123_6039">
<rect width="48" height="42" fill="white" transform="translate(0 3)"/>
</clipPath>
</defs>
</svg>
