<svg width="48" height="48" viewBox="0 0 48 48" fill="none" xmlns="http://www.w3.org/2000/svg">
<path d="M30.817 23.6712C30.817 31.842 24.1933 38.4657 16.0225 38.4657C7.8518 38.4657 1.22803 31.842 1.22803 23.6712C1.22803 15.5004 7.8518 8.87671 16.0225 8.87671C24.1933 8.87671 30.817 15.5004 30.817 23.6712Z" fill="#68DBFF"/>
<path d="M46.772 23.6712C46.772 31.842 40.2131 38.4657 32.1225 38.4657C24.0319 38.4657 17.473 31.842 17.473 23.6712C17.473 15.5004 24.0319 8.87671 32.1225 8.87671C40.2131 8.87671 46.772 15.5004 46.772 23.6712Z" fill="#FF7917"/>
<path d="M24.1121 36.0602C28.1497 33.4184 30.8171 28.8564 30.8171 23.6712C30.8171 18.4861 28.1497 13.924 24.1121 11.2823C20.1143 13.924 17.473 18.4861 17.473 23.6712C17.473 28.8564 20.1143 33.4184 24.1121 36.0602Z" fill="#5D2C02"/>
</svg>
