<svg width="48" height="48" viewBox="0 0 48 48" fill="none" xmlns="http://www.w3.org/2000/svg">
<g clip-path="url(#clip0_1123_6085)">
<path d="M8.17022 34.2169C8.17022 39.4822 1.32386e-06 39.4822 1.09371e-06 34.2169L0 4.39563C-2.3016e-07 -0.869667 8.17022 -0.869668 8.17022 4.39563V34.2169Z" fill="#E77B64"/>
<path d="M21.4465 43.9148C21.4465 49.1801 13.2764 49.1801 13.2764 43.9148V14.0935C13.2764 8.82827 21.4465 8.82827 21.4465 14.0935V43.9148Z" fill="#EE6CA5"/>
<path d="M34.7235 34.2169C34.7235 39.4822 26.5533 39.4822 26.5533 34.2169V4.39563C26.5533 -0.869667 34.7235 -0.869668 34.7235 4.39563V34.2169Z" fill="#65B12A"/>
<path d="M47.9999 43.9148C47.9999 49.1802 39.8297 49.1802 39.8297 43.9148V15.0536C39.8297 9.78829 47.9999 9.78829 47.9999 15.0536V43.9148Z" fill="#59ADCD"/>
</g>
<defs>
<clipPath id="clip0_1123_6085">
<rect width="48" height="48" fill="white"/>
</clipPath>
</defs>
</svg>
