<svg width="48" height="48" viewBox="0 0 48 48" fill="none" xmlns="http://www.w3.org/2000/svg">
<g clip-path="url(#clip0_1123_6070)">
<mask id="mask0_1123_6070" style="mask-type:luminance" maskUnits="userSpaceOnUse" x="0" y="0" width="48" height="48">
<path d="M48 0H0V48H48V0Z" fill="white"/>
</mask>
<g mask="url(#mask0_1123_6070)">
<path d="M15.6818 18.8856C14.9809 17.4293 14.6684 15.8165 14.7747 14.2038C14.881 12.5911 15.4024 11.0332 16.2883 9.68148C17.1742 8.32973 18.3946 7.23 19.831 6.48903C21.2673 5.74805 22.8708 5.39101 24.4858 5.45257C26.101 5.51413 27.6725 5.9922 29.0484 6.84036C30.4241 7.68852 31.5571 8.87796 32.3376 10.2932C33.1181 11.7085 33.5196 13.3015 33.5028 14.9176C33.486 16.5337 33.0516 18.1181 32.2418 19.5168L24.677 32.64L26.945 36.5688L35.6522 21.4872C37.3709 18.4346 37.8158 14.8273 36.8909 11.4484C35.9659 8.06957 33.7457 5.19195 30.7118 3.44026C27.678 1.68858 24.0758 1.20424 20.6871 2.09239C17.2984 2.98054 14.3968 5.16949 12.6122 8.18401C11.6645 9.80355 11.0743 11.6072 10.8814 13.4737C10.6885 15.3403 10.8973 17.2265 11.4938 19.0056C12.1005 18.9297 12.7112 18.8912 13.3226 18.8904L15.6818 18.8856Z" fill="url(#paint0_linear_1123_6070)"/>
<path d="M46.1979 26.5176C45.2576 24.8671 43.9709 23.4397 42.4265 22.3339C40.8819 21.2281 39.1162 20.4701 37.2507 20.112C37.0138 20.678 36.7421 21.2286 36.4371 21.7608L35.2515 23.8128C36.8696 23.9122 38.4341 24.4296 39.7925 25.3142C41.1509 26.1989 42.2568 27.421 43.002 28.8605C43.7472 30.3002 44.1063 31.9087 44.0441 33.5287C43.982 35.1485 43.501 36.7248 42.6478 38.1031C41.7946 39.4817 40.5984 40.6152 39.1764 41.3935C37.7542 42.1716 36.1546 42.5676 34.5336 42.5429C32.9127 42.5182 31.3258 42.0734 29.928 41.2524C28.5303 40.4311 27.3694 39.2614 26.5587 37.8576L19.0058 24.7776H14.4722L23.1554 39.8208C23.454 40.3342 23.7851 40.8281 24.1467 41.2992L24.2187 41.3928C25.4554 42.9847 27.0416 44.2706 28.855 45.1512C30.6682 46.032 32.6597 46.4834 34.6755 46.4712C37.0104 46.471 39.3041 45.8561 41.3261 44.6885C43.3481 43.5209 45.0274 41.8416 46.1948 39.8196C47.3624 37.7974 47.977 35.5037 47.977 33.1687C47.9772 30.8338 47.3626 28.5398 46.1955 26.5176H46.1979Z" fill="url(#paint1_linear_1123_6070)"/>
<path d="M21.1561 38.3184C20.2779 39.6554 19.0722 40.7453 17.6537 41.4845C16.2352 42.2234 14.6511 42.5873 13.0523 42.5412C11.4534 42.4949 9.89298 42.0403 8.51951 41.2205C7.14604 40.4006 6.00524 39.2431 5.20571 37.8576C4.38318 36.4325 3.95017 34.8161 3.95015 33.1704C3.95015 31.525 4.38313 29.9086 5.20564 28.4834C6.02816 27.0581 7.2112 25.8746 8.63598 25.0514C10.0607 24.2282 11.677 23.7944 13.3225 23.7936H28.4592L30.72 19.8672H13.3225C11.5606 19.8436 9.81162 20.1702 8.17698 20.828C6.54236 21.4859 5.05472 22.4619 3.80044 23.6995C2.54615 24.937 1.55021 26.4115 0.870447 28.037C0.190682 29.6628 -0.159363 31.4071 -0.159363 33.1692C-0.159363 34.9313 0.190682 36.6758 0.870447 38.3014C1.55021 39.9271 2.54615 41.4014 3.80044 42.6389C5.05472 43.8766 6.54236 44.8526 8.17698 45.5105C9.81162 46.1683 11.5606 46.495 13.3225 46.4712C15.2282 46.4825 17.1135 46.079 18.8479 45.2892C20.5822 44.4994 22.124 43.3418 23.3665 41.8968C22.9783 41.3954 22.6239 40.8686 22.3057 40.32L21.1561 38.3184Z" fill="url(#paint2_linear_1123_6070)"/>
</g>
</g>
<defs>
<linearGradient id="paint0_linear_1123_6070" x1="15.5258" y1="3.6024" x2="34.949" y2="27.3648" gradientUnits="userSpaceOnUse">
<stop stop-color="#B03B83"/>
<stop offset="0.56" stop-color="#E72E6C"/>
<stop offset="1" stop-color="#FFC400"/>
</linearGradient>
<linearGradient id="paint1_linear_1123_6070" x1="24.1563" y1="21.7656" x2="45.0963" y2="44.4624" gradientUnits="userSpaceOnUse">
<stop stop-color="#D83B83"/>
<stop offset="1" stop-color="#6F4A9E"/>
</linearGradient>
<linearGradient id="paint2_linear_1123_6070" x1="2.18892" y1="38.1072" x2="30.1824" y2="25.692" gradientUnits="userSpaceOnUse">
<stop stop-color="#9C2383"/>
<stop offset="1" stop-color="#E72E6C"/>
</linearGradient>
<clipPath id="clip0_1123_6070">
<rect width="48" height="48" fill="white"/>
</clipPath>
</defs>
</svg>
