<svg width="48" height="48" viewBox="0 0 48 48" fill="none" xmlns="http://www.w3.org/2000/svg">
<g clip-path="url(#clip0_1123_6101)">
<path d="M8.9873 3.66553V11.227H11.9497V7.05291H36.0503V11.227H39.0133V3.66553H38.6354H8.9873ZM22.7007 30.1767L22.6166 30.9276C22.5833 31.1236 22.6164 31.1045 22.3247 31.1852C22.0314 31.2662 21.403 31.2931 20.4717 31.2122C19.411 31.1217 18.4926 31.377 17.8699 31.9116C17.2472 32.4463 16.9534 33.2185 16.9534 34.0255V34.891H19.8076V34.0255C19.8076 33.908 19.8283 33.8436 19.8378 33.8236C19.8537 33.8046 19.8372 33.8062 19.8996 33.7744C20.0297 33.711 20.5401 33.6134 21.5265 33.7032C22.6034 33.8015 23.3936 33.4792 24.0052 33.0684C24.6132 33.4811 25.4055 33.8015 26.4805 33.7032C27.4671 33.6127 27.9742 33.7189 28.1032 33.7744C28.1682 33.8062 28.1538 33.8046 28.1649 33.8236C28.1824 33.8427 28.1952 33.9093 28.1952 34.0255V34.891H28.8535H31.0501V34.0255C31.0501 33.2185 30.7563 32.4463 30.1336 31.9116C29.5108 31.377 28.5925 31.1206 27.5318 31.2122C26.6009 31.2947 25.9722 31.2662 25.6788 31.1852C25.3854 31.1043 25.4234 31.1233 25.3902 30.9276L25.3028 30.1767H22.7007Z" fill="black"/>
<path d="M39.1008 23.8711C38.1231 24.2943 37.1414 24.6728 36.1573 25.0109C35.8855 35.7223 30.0136 41.0791 24.3855 41.3375C21.5077 41.4692 18.6083 40.3078 16.2566 37.5657C14.0115 34.9475 12.289 30.839 11.879 25.0427C10.8751 24.7 9.87898 24.3155 8.8927 23.8883C8.85145 24.0391 8.83402 24.196 8.84196 24.3524C9.16246 31.0926 11.1045 36.1438 13.9896 39.5082C16.8746 42.8722 20.7264 44.4962 24.5241 44.3218C32.1196 43.9728 39.1461 36.5883 39.1575 24.2835C39.1578 24.1438 39.1389 24.0052 39.1008 23.8711Z" fill="black"/>
<path d="M46.2616 12.4233C31.3812 23.3478 15.2867 22.5197 1.75712 12.4233L0 14.779C14.3839 25.507 32.229 26.3662 47.9999 14.7948L46.2616 12.4233Z" fill="black"/>
<path d="M27.2358 14.8764C27.1402 14.8764 27.0506 14.9018 26.9731 14.9461L26.1572 13.5148L26.9731 12.0835C27.0506 12.1278 27.1402 12.1532 27.2358 12.1532C27.5288 12.1532 27.7663 11.9157 27.7663 11.6227C27.7663 11.3297 27.5288 11.0922 27.2358 11.0922C26.9428 11.0922 26.7053 11.3297 26.7053 11.6227H25.0785L24.2625 10.1914C24.4224 10.1 24.5303 9.92795 24.5303 9.73057C24.5303 9.43759 24.2928 9.20007 23.9998 9.20007C23.7068 9.20007 23.4693 9.43759 23.4693 9.73057C23.4693 9.92795 23.5772 10.1 23.7371 10.1914L22.9211 11.6227H21.2943C21.2943 11.3297 21.0568 11.0922 20.7638 11.0922C20.4708 11.0922 20.2333 11.3297 20.2333 11.6227C20.2333 11.9157 20.4708 12.1532 20.7638 12.1532C20.8594 12.1532 20.949 12.1277 21.0265 12.0835L21.8425 13.5148L21.0265 14.9461C20.949 14.9018 20.8594 14.8764 20.7638 14.8764C20.4708 14.8764 20.2333 15.1139 20.2333 15.4069C20.2333 15.6999 20.4708 15.9374 20.7638 15.9374C21.0568 15.9374 21.2943 15.6999 21.2943 15.4069H22.9211L23.768 16.8925C23.5912 16.9785 23.4693 17.1599 23.4693 17.3697C23.4693 17.6627 23.7068 17.9002 23.9998 17.9002C24.2928 17.9002 24.5303 17.6627 24.5303 17.3697C24.5303 17.1599 24.4084 16.9785 24.2316 16.8925L25.0785 15.4069H26.7053C26.7053 15.6999 26.9428 15.9374 27.2358 15.9374C27.5288 15.9374 27.7663 15.6999 27.7663 15.4069C27.7663 15.1139 27.5288 14.8764 27.2358 14.8764Z" fill="#FFE352"/>
<path d="M23.9998 15.1417C24.8788 15.1417 25.5913 14.4292 25.5913 13.5502C25.5913 12.6713 24.8788 11.9587 23.9998 11.9587C23.1209 11.9587 22.4083 12.6713 22.4083 13.5502C22.4083 14.4292 23.1209 15.1417 23.9998 15.1417Z" fill="#FFE352"/>
</g>
<defs>
<clipPath id="clip0_1123_6101">
<rect width="48" height="40.6691" fill="white" transform="translate(0 3.66553)"/>
</clipPath>
</defs>
</svg>
