<svg width="48" height="48" viewBox="0 0 48 48" fill="none" xmlns="http://www.w3.org/2000/svg">
<g clip-path="url(#clip0_1123_6087)">
<mask id="mask0_1123_6087" style="mask-type:alpha" maskUnits="userSpaceOnUse" x="0" y="0" width="48" height="48">
<path d="M19.3776 1.78041C22.1371 0.334753 25.5369 0.33475 28.2964 1.78041L42.8913 9.42656C45.6508 10.8723 47.3506 13.5439 47.3506 16.4353V31.7275C47.3506 34.6189 45.6508 37.2906 42.8913 38.7363L28.2964 46.3824C25.5369 47.8281 22.1371 47.8281 19.3776 46.3824L4.78272 38.7363C2.02326 37.2906 0.323364 34.6189 0.323364 31.7275V16.4353C0.323364 13.5439 2.02326 10.8723 4.78272 9.42656L19.3776 1.78041Z" fill="#C4C4C4"/>
</mask>
<g mask="url(#mask0_1123_6087)">
<path d="M49.6117 12.5455L23.8374 -0.957458L-1.93694 12.5455L23.8374 26.0485L49.6117 12.5455Z" fill="#4A3AFF"/>
<path d="M23.8366 25.1655L0.120605 12.7409L0.120605 37.5901L23.8366 50.0148L23.8366 25.1655Z" fill="#4CBFFF"/>
<path d="M47.5534 12.7442L23.8374 25.1688L23.8374 50.0181L47.5534 37.5934L47.5534 12.7442Z" fill="#9328FF"/>
</g>
</g>
<defs>
<clipPath id="clip0_1123_6087">
<rect width="48" height="48" fill="white"/>
</clipPath>
</defs>
</svg>
