<svg width="48" height="48" viewBox="0 0 48 48" fill="none" xmlns="http://www.w3.org/2000/svg">
<g clip-path="url(#clip0_1123_6073)">
<path d="M16.8 11.52C16.8 10.4596 17.6596 9.59998 18.72 9.59998H29.28C30.3405 9.59998 31.2 10.4596 31.2 11.52V36.48C31.2 37.5404 30.3405 38.4 29.28 38.4H18.72C17.6596 38.4 16.8 37.5404 16.8 36.48V11.52Z" fill="#FF715B"/>
<path fill-rule="evenodd" clip-rule="evenodd" d="M4.8 0H43.2C45.8509 0 48 2.14904 48 4.8V43.2C48 45.8509 45.8509 48 43.2 48H4.8C2.14904 48 0 45.8509 0 43.2V4.8C0 2.14904 2.14904 0 4.8 0ZM24 45.12C35.6643 45.12 45.12 35.6643 45.12 24C45.12 12.3357 35.6643 2.88 24 2.88C12.3357 2.88 2.88 12.3357 2.88 24C2.88 35.6643 12.3357 45.12 24 45.12Z" fill="#FF715B"/>
</g>
<defs>
<clipPath id="clip0_1123_6073">
<rect width="48" height="48" fill="white"/>
</clipPath>
</defs>
</svg>
