<svg width="48" height="48" viewBox="0 0 48 48" fill="none" xmlns="http://www.w3.org/2000/svg">
<g clip-path="url(#clip0_1123_6113)">
<path d="M0 25.5682C0.0753843 26.6222 0.220181 27.6701 0.433421 28.705H47.5795C47.7781 27.6691 47.9082 26.6213 47.9692 25.5682H0ZM1.34234 32.0011C1.71759 33.0774 2.16889 34.1257 2.69285 35.1379H45.2927C45.818 34.1258 46.2707 33.0775 46.6473 32.0011H1.34234ZM4.78642 38.432C5.63606 39.5586 6.58322 40.6082 7.61694 41.5688H40.3911C41.4167 40.6072 42.3561 39.5576 43.1983 38.432H4.78642ZM12.0725 44.8632C15.4241 46.7732 19.186 47.8491 23.0408 48H25.3504C29.0613 47.7834 32.6715 46.7097 35.8976 44.8632H12.0725Z" fill="#00AAD4"/>
<path d="M24.0487 0C11.3376 0 0.908411 9.92388 0.0978394 22.4313H3.24083C4.04028 11.6259 13.0337 3.1368 24.0487 3.1368C35.0637 3.1368 44.0575 11.6259 44.857 22.4313H48C47.1894 9.92388 36.7599 0 24.0487 0Z" fill="#FFCC00"/>
<path d="M24.0487 6.3197C14.8299 6.3197 7.23365 13.4168 6.43658 22.4313H9.58775C10.3668 15.1226 16.527 9.4566 24.0487 9.4566C31.5705 9.4566 37.7308 15.1226 38.5097 22.4313H41.6609C40.8639 13.4168 33.2676 6.3197 24.0487 6.3197Z" fill="#FFCC00"/>
<path d="M24.0487 12.6644C18.3382 12.6644 13.5916 16.9271 12.8231 22.4313H15.9988C16.7257 18.6419 20.0384 15.8012 24.0487 15.8012C28.0591 15.8012 31.3718 18.6419 32.0987 22.4313H35.2744C34.5059 16.9271 29.7593 12.6644 24.0487 12.6644Z" fill="#FFCC00"/>
<path d="M24.0487 19.0862C21.9011 19.0862 20.0562 20.4957 19.3947 22.4318H23.4834C23.6591 22.3709 23.8487 22.3363 24.0487 22.3363C24.2488 22.3363 24.4383 22.371 24.6141 22.4318H28.7016C28.0404 20.4957 26.1964 19.0862 24.0487 19.0862Z" fill="#FFCC00"/>
</g>
<defs>
<clipPath id="clip0_1123_6113">
<rect width="48" height="48" fill="white"/>
</clipPath>
</defs>
</svg>
