<svg width="48" height="48" viewBox="0 0 48 48" fill="none" xmlns="http://www.w3.org/2000/svg">
<g clip-path="url(#clip0_1123_6088)">
<mask id="mask0_1123_6088" style="mask-type:luminance" maskUnits="userSpaceOnUse" x="0" y="0" width="48" height="48">
<path d="M48 0H0V48H48V0Z" fill="white"/>
</mask>
<g mask="url(#mask0_1123_6088)">
<path d="M33.9672 37.512C31.4654 39.36 28.5 40.4772 25.4006 40.7395C22.3015 41.0016 19.1905 40.3982 16.4139 38.9964C13.6375 37.5948 11.3046 35.4499 9.6751 32.8008C8.04562 30.1514 7.18359 27.102 7.18496 23.9917C7.18635 20.8815 8.05109 17.8327 9.68292 15.1849C11.3147 12.5371 13.6495 10.3943 16.4273 8.99512C19.205 7.59595 22.3166 6.99532 25.4155 7.26019C28.5146 7.52503 31.4791 8.64494 33.9792 10.4952L38.6328 4.97519C35.0808 2.24293 30.8349 0.55967 26.3757 0.115985C21.9166 -0.327699 17.4223 0.485918 13.4016 2.46472C9.381 4.44352 5.99468 7.50847 3.62607 11.3125C1.25747 15.1166 0.00120904 19.5078 -0.000486563 23.989C-0.00218216 28.4702 1.25076 32.8622 3.61649 36.6682C5.9822 40.4741 9.3662 43.5415 13.3853 45.5234C17.4045 47.5051 21.8982 48.3223 26.3577 47.8819C30.8172 47.4415 35.0645 45.7615 38.6184 43.032L33.9672 37.512Z" fill="black"/>
<path d="M35.6184 36.1176L40.2696 41.6376C42.7066 39.391 44.6518 36.6641 45.9826 33.6286C47.3134 30.593 48.001 27.3146 48.0019 24.0002C48.0031 20.6858 47.3177 17.407 45.989 14.3706C44.6602 11.3341 42.7169 8.60585 40.2816 6.3576L35.6256 11.8776C37.2641 13.4425 38.5685 15.3233 39.4596 17.4065C40.3505 19.4896 40.8101 21.7319 40.8101 23.9976C40.8101 26.2634 40.3505 28.5055 39.4596 30.5887C38.5685 32.6719 37.2641 34.5528 35.6256 36.1176H35.6184Z" fill="#FF9900"/>
</g>
</g>
<defs>
<clipPath id="clip0_1123_6088">
<rect width="48" height="48" fill="white"/>
</clipPath>
</defs>
</svg>
