<svg width="48" height="48" viewBox="0 0 48 48" fill="none" xmlns="http://www.w3.org/2000/svg">
<g clip-path="url(#clip0_1123_6062)">
<path d="M24.0002 0.000244141L22.4253 1.91508L20.85 3.8294H22.7805V9.0449L11.6584 15.4664L7.14164 12.8589L8.10691 11.1867L5.66156 11.5941L3.2157 12.0005L4.08672 14.3217L4.95673 16.6429L5.922 14.9713L10.4514 17.5859V30.4146L5.922 33.0297L4.95673 31.3576L4.08672 33.6788L3.2157 36.0005L5.66156 36.4069L8.10691 36.8138L7.14164 35.1422L11.6584 32.5341L22.7805 38.9556V44.1711H20.85L22.4253 46.0854L24.0002 48.0003L25.575 46.0854L27.1503 44.1711H25.2198V38.985L36.3678 32.5488L40.8587 35.1422L39.8934 36.8138L42.3388 36.4069L44.7846 36.0005L43.9136 33.6793L43.0436 31.3576L42.0783 33.0297L37.6001 30.444V17.5565L42.0783 14.9713L43.0436 16.6429L43.9136 14.3217L44.7846 12.0005L42.3388 11.5941L39.8934 11.1867L40.8587 12.8589L36.3678 15.4517L25.2198 9.01551V3.8294H27.1503L25.575 1.91508L24.0002 0.000244141Z" fill="#440055"/>
<path d="M23.8911 11.1016L13.9055 16.8666L18.4167 19.4716L23.8856 22.5327L33.7874 16.8161L23.8911 11.1016Z" fill="#F6D5FF"/>
<path d="M35.0927 19.0079L25.1318 24.8158V25.5745L25.268 36.1315L34.948 30.5444L35.1395 30.4338L35.0927 19.0079Z" fill="#AA00D4"/>
</g>
<defs>
<clipPath id="clip0_1123_6062">
<rect width="41.5689" height="48" fill="white" transform="translate(3.21552)"/>
</clipPath>
</defs>
</svg>
