<svg width="48" height="48" viewBox="0 0 48 48" fill="none" xmlns="http://www.w3.org/2000/svg">
<g clip-path="url(#clip0_1123_6124)">
<path d="M17.4929 4.24243e-05C16.8373 4.24243e-05 16.1813 0.251227 15.679 0.753682L10.6908 5.74214C9.68607 6.74713 9.68607 8.36507 10.6908 9.36998L22.1839 20.8633C22.4367 21.1159 22.728 21.3051 23.0385 21.4306V14.6278C22.5062 14.4314 22.0468 14.0767 21.7221 13.6114C21.3974 13.1461 21.2229 12.5926 21.2222 12.0252C21.2222 11.6604 21.2941 11.2992 21.4337 10.9622C21.5733 10.6252 21.7779 10.319 22.0358 10.0611C22.2938 9.80316 22.6 9.59857 22.937 9.45899C23.274 9.3194 23.6352 9.24756 23.9999 9.24757C24.7366 9.24762 25.443 9.54027 25.9639 10.0612C26.4848 10.5821 26.7774 11.2885 26.7774 12.0252C26.777 12.5927 26.6028 13.1465 26.2781 13.6121C25.9535 14.0776 25.4941 14.4325 24.9616 14.6291V21.4306C25.2724 21.3052 25.5636 21.1159 25.8161 20.8633L37.3094 9.36998C38.3145 8.36507 38.3145 6.74713 37.3094 5.74214L32.3209 0.753682C31.3162 -0.251227 29.6982 -0.251227 28.6933 0.753682L24.0002 5.44659L19.3073 0.753682C18.8046 0.251227 18.1489 4.24243e-05 17.4929 4.24243e-05ZM7.55625 9.93682C6.9006 9.93682 6.24445 10.1881 5.74216 10.6905L0.754035 15.679C-0.250882 16.684 -0.250882 18.3019 0.754035 19.3068L5.44695 23.9998L0.753688 28.6929C-0.251229 29.6978 -0.251229 31.3158 0.753688 32.3207L5.74216 37.3092C6.74707 38.3141 8.36501 38.3141 9.37 37.3092L20.8632 25.816C21.1155 25.5636 21.3046 25.2725 21.43 24.9621H14.6271C14.4306 25.4942 14.076 25.9533 13.6108 26.2778C13.1456 26.6024 12.5923 26.7767 12.0251 26.7774C11.2885 26.7774 10.582 26.4848 10.0611 25.9639C9.54015 25.443 9.24751 24.7365 9.24751 23.9998C9.2475 23.6351 9.31934 23.2739 9.45892 22.9369C9.5985 22.5999 9.8031 22.2937 10.061 22.0357C10.3189 21.7778 10.6252 21.5732 10.9622 21.4336C11.2992 21.294 11.6603 21.2221 12.0251 21.2221C12.5926 21.2226 13.1463 21.3969 13.6117 21.7215C14.0772 22.0461 14.4321 22.5054 14.6286 23.0378H21.43C21.3061 22.7273 21.116 22.4363 20.8635 22.1838L9.37041 10.6905C8.86771 10.1881 8.21206 9.93682 7.55625 9.93682ZM40.4441 9.93682C39.7884 9.93682 39.1324 10.1881 38.63 10.6905L27.1367 22.1838C26.8844 22.4363 26.6954 22.7273 26.5697 23.0378H33.3725C33.569 22.5057 33.9236 22.0464 34.3888 21.7218C34.854 21.3972 35.4074 21.2229 35.9747 21.2221C36.7113 21.2222 37.4178 21.5149 37.9386 22.0358C38.4595 22.5567 38.7521 23.2632 38.752 23.9998C38.752 24.7365 38.4594 25.4429 37.9386 25.9638C37.4177 26.4847 36.7113 26.7774 35.9747 26.7774C35.4072 26.7771 34.8535 26.6029 34.388 26.2783C33.9225 25.9538 33.5675 25.4944 33.371 24.9621H26.57C26.6939 25.2725 26.8844 25.5636 27.1367 25.816L38.63 37.3092C39.635 38.3141 41.2531 38.3141 42.2578 37.3092L47.2463 32.3207C48.2512 31.3158 48.2512 29.6978 47.2463 28.6929L42.5531 24.0001L47.2463 19.3068C48.2512 18.3019 48.2512 16.684 47.2463 15.679L42.2578 10.6905C41.7555 10.1881 41.0999 9.93682 40.4441 9.93682ZM24.9616 26.5691V33.3723C25.4938 33.5688 25.9531 33.9234 26.2777 34.3887C26.6023 34.8539 26.7767 35.4073 26.7774 35.9746C26.7774 36.7112 26.4848 37.4177 25.9639 37.9386C25.443 38.4595 24.7366 38.7521 23.9999 38.7522C23.6352 38.7522 23.274 38.6804 22.937 38.5408C22.6 38.4012 22.2938 38.1966 22.0358 37.9387C21.7779 37.6807 21.5733 37.3745 21.4337 37.0375C21.2941 36.7005 21.2222 36.3393 21.2222 35.9746C21.2227 35.407 21.397 34.8531 21.7217 34.3876C22.0464 33.922 22.506 33.5671 23.0385 33.3707V26.5695C22.7278 26.6949 22.4364 26.8839 22.1839 27.1366L10.6906 38.6298C9.68549 39.6347 9.68549 41.253 10.6906 42.2579L15.679 47.2462C16.6839 48.251 18.3018 48.251 19.3069 47.2462L23.9999 42.5529L28.6933 47.2462C29.6982 48.251 31.3162 48.251 32.3209 47.2462L37.3094 42.2579C38.3145 41.253 38.3145 39.6347 37.3094 38.6298L25.8161 27.1366C25.5636 26.8839 25.2724 26.6948 24.9616 26.5691Z" fill="#677821"/>
</g>
<defs>
<clipPath id="clip0_1123_6124">
<rect width="48" height="47.9998" fill="white"/>
</clipPath>
</defs>
</svg>
