<svg width="48" height="48" viewBox="0 0 48 48" fill="none" xmlns="http://www.w3.org/2000/svg">
<g clip-path="url(#clip0_1123_6107)">
<mask id="mask0_1123_6107" style="mask-type:luminance" maskUnits="userSpaceOnUse" x="0" y="0" width="48" height="48">
<path d="M48 0H0V48H48V0Z" fill="white"/>
</mask>
<g mask="url(#mask0_1123_6107)">
<path d="M40.0296 9.38638L13.5457 14.904C12.0548 15.2125 10.7158 16.0253 9.75406 17.2056C8.79233 18.3859 8.26673 19.8615 8.26575 21.384V40.6848C8.26608 41.6688 8.48573 42.6403 8.90873 43.5288C9.33171 44.4173 9.9474 45.2004 10.711 45.821C11.4746 46.4417 12.367 46.8842 13.3231 47.1168C14.2793 47.3491 15.2752 47.3657 16.2385 47.1648L42.7201 41.6448C44.2112 41.3364 45.5501 40.5235 46.5118 39.3432C47.4735 38.1629 47.9991 36.6874 48.0001 35.1648V15.8688C48.0001 14.8848 47.7807 13.9132 47.358 13.0247C46.9354 12.1361 46.3201 11.3529 45.5566 10.7321C44.7932 10.1112 43.9011 9.66831 42.9449 9.43553C41.989 9.20273 40.993 9.18596 40.0296 9.38638Z" fill="#FBB03B"/>
<path d="M31.752 0.830424L5.28 6.34802C3.7891 6.6565 2.45002 7.46933 1.4883 8.6496C0.526586 9.8299 0.000980767 11.3055 0 12.828V32.1288C0.00041173 33.1126 0.220022 34.0839 0.642869 34.9721C1.06571 35.8603 1.68117 36.6432 2.4445 37.2639C3.20782 37.8845 4.09985 38.3273 5.0557 38.5599C6.01157 38.7924 7.00726 38.8092 7.9704 38.6088L34.4544 33.0888C35.9453 32.7804 37.2845 31.9675 38.2462 30.7872C39.2078 29.6069 39.7334 28.1314 39.7344 26.6088V7.31282C39.7346 6.3276 39.5153 5.35474 39.0917 4.46513C38.6683 3.57552 38.0518 2.79161 37.2871 2.17053C36.5222 1.54945 35.6285 1.10686 34.6709 0.875025C33.7135 0.64319 32.7161 0.627953 31.752 0.830424Z" fill="#5C47C4"/>
<path d="M14.3207 27.7776L15.6695 27.4848V32.7096L14.3207 33.0024V32.3856C14.1257 32.6772 13.8749 32.9273 13.5829 33.1217C13.2909 33.3161 12.9634 33.451 12.6191 33.5184C12.3104 33.6022 11.9859 33.6096 11.6736 33.5402C11.3613 33.4709 11.0705 33.3266 10.8263 33.12C10.5731 32.8944 10.3745 32.6143 10.2452 32.3009C10.1159 31.9874 10.0594 31.6488 10.0799 31.3104C10.0798 30.5388 10.3431 29.7902 10.8263 29.1888C11.2595 28.5854 11.8963 28.1594 12.6191 27.9888C13.3511 27.8304 13.9175 27.96 14.3207 28.3824V27.7776ZM11.8343 31.9896C11.981 32.0976 12.1504 32.1708 12.3296 32.2037C12.5089 32.2366 12.6932 32.2282 12.8687 32.1792C13.2835 32.0957 13.6556 31.8689 13.9199 31.5384C14.191 31.217 14.3375 30.809 14.3327 30.3888C14.3447 30.2076 14.3135 30.0262 14.2417 29.8591C14.17 29.6923 14.0597 29.5447 13.9199 29.4288C13.7724 29.3203 13.6021 29.2471 13.422 29.2147C13.2419 29.1823 13.0567 29.1914 12.8807 29.2416C12.4726 29.3294 12.107 29.5548 11.8449 29.8798C11.5828 30.2047 11.4401 30.6098 11.4407 31.0272C11.4274 31.2072 11.4561 31.3877 11.5243 31.5547C11.5926 31.7218 11.6987 31.8706 11.8343 31.9896Z" fill="white"/>
<path d="M20.0879 27.8208L18.9095 28.08V30.24C18.9005 30.3079 18.908 30.3771 18.9314 30.4414C18.9548 30.5057 18.9934 30.5633 19.0439 30.6096C19.165 30.6778 19.3077 30.6967 19.4423 30.6624C19.6602 30.6264 19.8758 30.5775 20.0879 30.516V31.74C19.1639 32.0448 18.5087 32.1 18.1295 31.9032C17.7503 31.7064 17.5607 31.2504 17.5607 30.5328V28.3608L16.6511 28.5576V27.2616L17.5607 27.0648V26.0088L18.9095 25.3104V26.772L20.0879 26.5152V27.8208Z" fill="white"/>
<path d="M21.9169 25.5024C21.8177 25.5281 21.714 25.5308 21.6137 25.5099C21.5134 25.4892 21.4192 25.4456 21.3385 25.3824C21.2595 25.3198 21.1965 25.2392 21.1548 25.1475C21.1131 25.0556 21.0938 24.9552 21.0985 24.8544C21.1129 24.6204 21.2003 24.397 21.3484 24.2153C21.4965 24.0336 21.6978 23.9029 21.9241 23.8416C22.0252 23.8141 22.1314 23.8108 22.234 23.8321C22.3366 23.8533 22.4327 23.8986 22.5145 23.964C22.5934 24.0274 22.6562 24.1083 22.6979 24.2004C22.7396 24.2926 22.759 24.3934 22.7545 24.4944C22.7516 24.7272 22.6666 24.9516 22.5145 25.128C22.3651 25.3188 22.1537 25.4513 21.9169 25.5024ZM21.2497 31.5024V26.2728L22.5961 25.98V31.2L21.2497 31.5024Z" fill="white"/>
<path d="M26.5248 30.4993C25.7376 30.6704 25.081 30.548 24.5544 30.1321C24.2902 29.917 24.0802 29.6427 23.9422 29.3309C23.8041 29.0194 23.7417 28.6796 23.7601 28.3393C23.7609 27.5564 24.0399 26.7994 24.5472 26.2033C25.0419 25.579 25.7388 25.147 26.5176 24.9817C26.9775 24.8686 27.4601 24.8912 27.9072 25.0465C28.3092 25.1828 28.6495 25.4576 28.8672 25.8217L27.708 26.7529C27.6043 26.5621 27.4332 26.4166 27.228 26.3449C26.9967 26.2635 26.7463 26.2517 26.508 26.3113C26.1113 26.3945 25.7561 26.6146 25.5048 26.9329C25.2435 27.2446 25.1021 27.6397 25.1064 28.0465C25.0949 28.2224 25.1247 28.3988 25.194 28.561C25.2631 28.7233 25.3697 28.8668 25.5048 28.9801C25.6464 29.0864 25.8108 29.1584 25.9851 29.1901C26.1591 29.2217 26.3383 29.2121 26.508 29.1625C26.7713 29.1075 27.0178 28.9916 27.228 28.8241C27.4375 28.6642 27.6029 28.4535 27.708 28.2121L28.8792 28.6273C28.6491 29.0914 28.3217 29.5006 27.9192 29.8273C27.5141 30.1582 27.0363 30.3884 26.5248 30.4993Z" fill="white"/>
<path d="M33.6912 23.5728L35.04 23.28V28.5048L33.6912 28.8V28.1832C33.496 28.4748 33.2452 28.7249 32.9532 28.9193C32.6613 29.1137 32.3337 29.2486 31.9896 29.316C31.6797 29.3981 31.3548 29.4036 31.0425 29.3321C30.73 29.2608 30.4399 29.1144 30.1968 28.9056C29.9452 28.6815 29.7475 28.4033 29.6181 28.092C29.489 27.7808 29.4316 27.4445 29.4504 27.108C29.4501 26.3364 29.7134 25.5879 30.1968 24.9864C30.6319 24.3876 31.2684 23.9659 31.9896 23.7984C32.7216 23.64 33.288 23.7696 33.6912 24.192V23.5728ZM31.2 27.7848C31.3466 27.8928 31.516 27.966 31.6953 27.9989C31.8744 28.0318 32.0587 28.0234 32.2344 27.9744C32.645 27.8887 33.0127 27.6622 33.2736 27.3336C33.5445 27.0123 33.6912 26.6043 33.6864 26.184C33.6981 26.0028 33.6669 25.8214 33.5952 25.6543C33.5236 25.4875 33.4132 25.3399 33.2736 25.224C33.126 25.1155 32.9558 25.0423 32.7756 25.0099C32.5956 24.9775 32.4103 24.9867 32.2344 25.0368C31.8261 25.1247 31.4606 25.35 31.1985 25.675C30.9364 25.9999 30.7936 26.4048 30.7944 26.8224C30.7824 27.0034 30.8128 27.1846 30.8834 27.3516C30.9537 27.5187 31.0622 27.667 31.2 27.7848Z" fill="white"/>
</g>
</g>
<defs>
<clipPath id="clip0_1123_6107">
<rect width="48" height="48" fill="white"/>
</clipPath>
</defs>
</svg>
