<svg width="48" height="48" viewBox="0 0 48 48" fill="none" xmlns="http://www.w3.org/2000/svg">
<g clip-path="url(#clip0_1123_6131)">
<path d="M21.6719 7.47393C21.2509 7.48051 20.8265 7.59872 20.4441 7.83895L1.11089 20.0161C4.45906e-05 20.7176 -0.333478 22.1858 0.365384 23.2984L7.97605 35.3817C8.67757 36.4925 10.1458 36.8259 11.2584 36.1271L11.6611 35.8734L14.4517 40.3038C14.6778 40.6626 15.2246 40.569 15.3186 40.1556L17.064 32.4704L22.6812 29.7728L21.1215 29.6051C20.4942 29.5369 19.9195 29.2226 19.5236 28.7313C19.1277 28.24 18.9428 27.6117 19.0095 26.9843L20.5362 12.7859C20.6044 12.1586 20.9187 11.5839 21.41 11.188C21.9013 10.7921 22.5296 10.6072 23.1571 10.6739L26.1695 10.9978L23.7264 8.58448C23.266 7.85552 22.4754 7.46129 21.6719 7.47393Z" fill="#61CE70"/>
<path d="M26.1696 10.9978L35.8258 20.536C36.5246 21.6486 36.1912 23.1168 35.0804 23.8184L22.6813 29.7728L37.0171 31.3145L41.9619 37.4509C42.021 37.5242 42.1005 37.5783 42.1903 37.6065C42.2801 37.6346 42.3763 37.6355 42.4666 37.609C42.557 37.5824 42.6374 37.5298 42.6978 37.4575C42.7581 37.3853 42.7957 37.2968 42.8058 37.2032L43.3657 31.997L43.8389 32.0479C44.4664 32.1146 45.0947 31.9298 45.5861 31.5338C46.0775 31.1379 46.3917 30.5632 46.4599 29.9359L47.9867 15.7375C48.0534 15.1101 47.8685 14.4817 47.4726 13.9904C47.0766 13.4991 46.502 13.1849 45.8747 13.1167L26.1696 10.9978Z" fill="#532CDB"/>
</g>
<defs>
<clipPath id="clip0_1123_6131">
<rect width="48" height="33.0527" fill="white" transform="translate(0 7.47363)"/>
</clipPath>
</defs>
</svg>
