<svg width="48" height="48" viewBox="0 0 48 48" fill="none" xmlns="http://www.w3.org/2000/svg">
<g clip-path="url(#clip0_1123_6072)">
<mask id="mask0_1123_6072" style="mask-type:luminance" maskUnits="userSpaceOnUse" x="0" y="0" width="48" height="48">
<path d="M48 0H0V48H48V0Z" fill="white"/>
</mask>
<g mask="url(#mask0_1123_6072)">
<path d="M6.71989 20.3712C6.50617 20.2825 6.28539 20.2118 6.05989 20.16C5.62069 20.0568 5.18149 19.9488 4.73749 19.8576C4.29349 19.7664 3.85429 19.68 3.40789 19.6032C2.96149 19.5264 2.51989 19.4616 2.0711 19.416C1.86296 19.3873 1.65196 19.4425 1.48453 19.5695C1.31709 19.6964 1.20694 19.8846 1.1783 20.0928C1.14965 20.3009 1.20487 20.5119 1.33179 20.6793C1.45872 20.8468 1.64696 20.9569 1.8551 20.9856C2.2967 21.0624 2.74549 21.12 3.19429 21.168C3.64309 21.216 4.08949 21.2544 4.54069 21.2808C4.99189 21.3072 5.44549 21.3288 5.89669 21.3504C6.12495 21.3627 6.35386 21.3546 6.58069 21.3264C6.82196 21.3042 7.05925 21.2501 7.28629 21.1656C7.33191 21.1479 7.37175 21.118 7.40149 21.0792C7.44188 21.0239 7.45897 20.9549 7.44908 20.8872C7.43922 20.8194 7.40317 20.7582 7.34869 20.7168C7.15484 20.575 6.9435 20.4588 6.71989 20.3712Z" fill="url(#paint0_linear_1123_6072)"/>
<path d="M11.04 12.324C11.0792 12.2882 11.1027 12.2384 11.1054 12.1854C11.1081 12.1323 11.0898 12.0804 11.0544 12.0408C10.6677 11.6208 10.2489 11.2316 9.80161 10.8768C9.3616 10.5248 8.91841 10.1792 8.47201 9.84C8.02561 9.4944 7.57201 9.1656 7.11841 8.832C6.66481 8.4984 6.20881 8.1792 5.74561 7.872L5.68321 7.8336C5.57766 7.77104 5.46071 7.73014 5.3392 7.71324C5.21766 7.69637 5.09401 7.70388 4.9754 7.7353C4.85682 7.76672 4.74565 7.82146 4.64845 7.89629C4.55123 7.97115 4.46989 8.06458 4.40917 8.17121C4.34845 8.27782 4.30957 8.39544 4.29481 8.51724C4.28003 8.63904 4.28968 8.76257 4.32316 8.8806C4.35664 8.99864 4.41328 9.10882 4.48979 9.20472C4.5663 9.30063 4.66115 9.38033 4.76881 9.4392C5.24881 9.7176 5.74321 9.9912 6.24241 10.248C6.74161 10.5048 7.23601 10.7712 7.74001 11.0208C8.24401 11.2704 8.74561 11.52 9.25681 11.76C9.77164 12.0049 10.3044 12.2103 10.8504 12.3744C10.8837 12.382 10.9184 12.3813 10.9514 12.3726C10.9844 12.3638 11.0148 12.3471 11.04 12.324Z" fill="url(#paint1_linear_1123_6072)"/>
<path d="M16.2552 3.9408C16.512 4.3656 16.7808 4.7832 17.052 5.2008C17.3407 5.62886 17.689 6.01353 18.0864 6.3432C18.1365 6.38177 18.1983 6.40207 18.2616 6.4008C18.2969 6.39989 18.3316 6.39199 18.3639 6.37761C18.3962 6.36324 18.4253 6.34265 18.4496 6.31701C18.4739 6.29138 18.4929 6.26121 18.5055 6.22824C18.5181 6.19526 18.5241 6.1601 18.5232 6.1248C18.5028 5.60894 18.4074 5.09877 18.24 4.6104C18.072 4.1424 17.8992 3.6744 17.7144 3.2136C17.3565 2.29015 16.9479 1.38717 16.4904 0.508807C16.3745 0.301152 16.183 0.146172 15.9558 0.0761095C15.7285 0.00604686 15.483 0.0262965 15.2703 0.132646C15.0576 0.238994 14.8941 0.423254 14.8138 0.64709C14.7335 0.870926 14.7426 1.1171 14.8392 1.33441C15.2628 2.22861 15.7356 3.09873 16.2552 3.9408Z" fill="url(#paint2_linear_1123_6072)"/>
<path d="M29.0687 6.34318C29.403 5.96041 29.7162 5.55982 30.0071 5.14318C30.2975 4.73518 30.5711 4.31758 30.8375 3.89758C31.1039 3.47758 31.3607 3.05518 31.6127 2.62798C31.8647 2.20078 32.0927 1.76638 32.3327 1.32478C32.4422 1.1055 32.4602 0.851705 32.3824 0.619236C32.3049 0.386765 32.1381 0.194658 31.9187 0.0851772C31.6994 -0.0243041 31.4457 -0.0421925 31.2131 0.0354475C30.9808 0.113088 30.7886 0.279897 30.6791 0.499178C30.4583 0.943178 30.2615 1.39678 30.0671 1.85278C29.8727 2.30878 29.6951 2.77198 29.5223 3.23758C29.3495 3.70318 29.1767 4.17118 29.0279 4.64878C28.8734 5.13027 28.7452 5.6198 28.6439 6.11518C28.6334 6.1586 28.6353 6.20405 28.6494 6.24644C28.6634 6.28885 28.6888 6.3265 28.7231 6.35518C28.7464 6.37765 28.7738 6.39522 28.804 6.40681C28.834 6.4184 28.8662 6.4238 28.8986 6.42269C28.9307 6.42157 28.9624 6.41396 28.9917 6.40028C29.021 6.38662 29.0471 6.36721 29.0687 6.34318Z" fill="url(#paint3_linear_1123_6072)"/>
<path d="M41.7144 9.13923C41.8075 9.06154 41.8846 8.96621 41.9412 8.85874C41.9976 8.75127 42.0324 8.63371 42.0434 8.51283C42.0545 8.39191 42.0415 8.27002 42.0055 8.1541C41.9693 8.03818 41.9107 7.93051 41.8332 7.83723C41.7554 7.74391 41.6602 7.66685 41.5526 7.6104C41.4451 7.55393 41.3275 7.5192 41.2068 7.50816C41.0858 7.49712 40.9639 7.51001 40.848 7.54611C40.7321 7.58218 40.6243 7.64071 40.5312 7.71843C40.1376 8.04723 39.7464 8.38563 39.3624 8.72883C38.9784 9.07203 38.5992 9.42483 38.2224 9.78003C37.8456 10.1352 37.4712 10.5 37.104 10.8552C36.7274 11.2255 36.383 11.6269 36.0744 12.0552C36.0557 12.0823 36.0439 12.1134 36.0396 12.1459C36.0355 12.1785 36.0391 12.2116 36.0504 12.2424C36.0691 12.2924 36.107 12.3329 36.1553 12.3553C36.2038 12.3778 36.2592 12.3803 36.3096 12.3624C36.8021 12.1765 37.2782 11.9492 37.7328 11.6832C38.1792 11.4216 38.6232 11.1528 39.0624 10.8816C39.5016 10.6104 39.9408 10.3344 40.3728 10.0536C40.8048 9.77283 41.232 9.48483 41.6544 9.18963L41.7144 9.13923Z" fill="url(#paint4_linear_1123_6072)"/>
<path d="M46.7566 19.404C46.7232 19.3054 46.6704 19.2145 46.6018 19.1363C46.5331 19.0582 46.4496 18.9943 46.3562 18.9484C46.2629 18.9025 46.1614 18.8754 46.0574 18.8687C45.9538 18.8621 45.8496 18.876 45.751 18.9096C45.2998 19.0656 44.8558 19.2408 44.4142 19.4256C43.9726 19.6104 43.5358 19.8 43.1014 20.0016C42.667 20.2032 42.235 20.412 41.803 20.6208C41.5841 20.7248 41.3738 20.8459 41.1742 20.9832C40.9627 21.1193 40.7686 21.2805 40.5958 21.4632C40.5566 21.5034 40.5329 21.556 40.5286 21.612C40.5247 21.6468 40.5278 21.682 40.5379 21.7156C40.5478 21.7492 40.5646 21.7804 40.5871 21.8073C40.6094 21.8342 40.637 21.8563 40.6682 21.8722C40.6994 21.8882 40.7338 21.8976 40.7686 21.9C41.0213 21.9239 41.2759 21.9175 41.527 21.8808C41.7703 21.8493 42.011 21.7995 42.247 21.732C42.7078 21.6 43.171 21.4728 43.627 21.3312C44.083 21.1896 44.539 21.0432 44.9902 20.8872C45.4414 20.7312 45.8734 20.5752 46.3198 20.4C46.506 20.3211 46.655 20.174 46.7362 19.9888C46.8175 19.8036 46.8247 19.5944 46.7566 19.404Z" fill="url(#paint5_linear_1123_6072)"/>
<path d="M32.1261 10.9464C31.4805 10.5278 30.8023 10.1619 30.0981 9.85195C29.3968 9.55231 28.6749 9.30288 27.9381 9.10555C27.2054 8.91924 26.4614 8.77978 25.7109 8.68795C25.3389 8.65435 24.9645 8.60635 24.5925 8.59675L24.0333 8.57275H23.4526C21.9128 8.61521 20.389 8.89699 18.9358 9.40795C17.4736 9.92374 16.104 10.6717 14.8798 11.6232C13.6463 12.5873 12.6037 13.7732 11.8054 15.12C11.4128 15.7947 11.0849 16.505 10.8262 17.2416C10.5799 17.9735 10.396 18.725 10.2766 19.488C10.0473 20.9925 10.0619 22.5241 10.3198 24.024C10.593 25.5136 11.1372 26.9404 11.9254 28.2336C12.6927 29.4907 13.6663 30.6096 14.8054 31.5432C15.924 32.4679 17.1971 33.1876 18.5662 33.6696C19.8513 34.0968 21.2146 34.2369 22.5598 34.08C23.1494 34.0269 23.7318 33.9117 24.2973 33.7368C25.3838 33.3604 26.3937 32.7914 27.2781 32.0568C28.1709 31.3257 28.9435 30.4591 29.5677 29.4888C30.2171 28.4923 30.6633 27.3772 30.8805 26.208C30.9899 25.5984 31.0142 24.9763 30.9525 24.36C30.8899 23.7296 30.7279 23.1132 30.4725 22.5336C30.2145 21.9576 29.8715 21.4237 29.4549 20.9496C29.0061 20.4251 28.4359 20.0182 27.7941 19.764C27.1257 19.5137 26.3975 19.4694 25.7037 19.6368C25.1661 19.7702 24.6561 19.9969 24.1965 20.3064C23.8273 19.8823 23.3931 19.5193 22.9102 19.2312C22.6239 19.0657 22.3162 18.9406 21.9958 18.8592C21.6824 18.7749 21.3602 18.7282 21.0358 18.72C20.3812 18.6964 19.7313 18.8393 19.147 19.1352C18.5534 19.4337 18.0584 19.897 17.7214 20.4696C17.3905 21.0342 17.2242 21.6801 17.2414 22.3344C17.2603 22.9525 17.4082 23.5599 17.6758 24.1176C17.9391 24.6549 18.294 25.1421 18.7246 25.5576C19.1316 25.9452 19.5708 26.2977 20.0374 26.6112C20.4886 26.9208 20.947 27.204 21.3694 27.516C21.7982 27.8083 22.1666 28.1808 22.4542 28.6128C22.5881 28.834 22.68 29.0781 22.7254 29.3328C22.7614 29.598 22.7614 29.8668 22.7254 30.132C22.809 29.8696 22.8519 29.596 22.8526 29.3208C22.8466 29.0373 22.788 28.7572 22.6798 28.4952C22.442 27.9806 22.0986 27.5217 21.6718 27.1488C20.8702 26.3832 19.9918 25.7544 19.3414 24.9888C19.0232 24.618 18.773 24.1939 18.6022 23.736C18.4411 23.2985 18.3669 22.8338 18.3838 22.368C18.4088 21.9221 18.553 21.4911 18.8014 21.12C19.0386 20.7712 19.3652 20.4927 19.747 20.3136C20.1383 20.1364 20.5659 20.0542 20.995 20.0736C21.4248 20.0917 21.8446 20.2092 22.2214 20.4168C22.5636 20.6277 22.8767 20.8827 23.1526 21.1752C22.9811 21.3573 22.8208 21.5496 22.6726 21.7512C22.2919 22.2506 22.0048 22.8149 21.8254 23.4168C21.7242 23.7623 21.6948 24.125 21.739 24.4824C21.7686 24.6924 21.8369 24.8949 21.9406 25.08C22.0518 25.2688 22.2014 25.4325 22.3798 25.56C22.6928 25.792 23.0662 25.9286 23.455 25.9536C23.8583 25.9704 24.2563 25.8549 24.5877 25.6248C24.8867 25.4143 25.1332 25.1373 25.3077 24.816C25.4755 24.5116 25.5844 24.1788 25.6293 23.8344C25.6744 23.4935 25.6591 23.1474 25.5837 22.812C25.5129 22.5054 25.4123 22.2064 25.2837 21.9192C25.2309 21.804 25.1733 21.6792 25.1133 21.5784C25.4051 21.4301 25.7186 21.3296 26.0421 21.2808C26.4119 21.2249 26.7899 21.2757 27.1317 21.4272C27.4881 21.5934 27.8011 21.8398 28.0461 22.1472C28.3343 22.491 28.5765 22.871 28.7661 23.2776C29.1477 24.1096 29.297 25.0293 29.1981 25.9392C29.0779 26.91 28.7757 27.8496 28.3077 28.7088C26.5437 32.1144 22.579 34.008 19.1062 32.3232C17.9833 31.7652 16.9702 31.0089 16.1158 30.0912C15.273 29.1943 14.575 28.1716 14.047 27.06C13.5459 25.98 13.245 24.8179 13.159 23.6304C13.1022 22.4614 13.2269 21.2907 13.5286 20.16C13.8279 19.054 14.2975 18.0014 14.9206 17.04C15.5309 16.086 16.2911 15.2367 17.1718 14.5248C18.073 13.8094 19.0824 13.2423 20.1622 12.8448C21.2511 12.452 22.3942 12.2301 23.551 12.1872H23.983L24.4317 12.1992C24.7317 12.1992 25.0269 12.2352 25.3269 12.252C25.9147 12.3134 26.4981 12.4104 27.0741 12.5424C29.3637 13.0439 31.4078 14.3249 32.8576 16.1665C34.3075 18.0081 35.0728 20.2959 35.0229 22.6392C34.9931 25.0461 34.2035 27.382 32.7669 29.3136C32.0431 30.2899 31.1932 31.1661 30.2397 31.92C29.7551 32.3073 29.2495 32.668 28.7253 33C28.1997 33.3319 27.6556 33.634 27.0957 33.9048C25.9039 34.4347 24.6818 34.894 23.4358 35.28C22.1566 35.712 20.839 36.12 19.5262 36.7944C18.7997 37.1376 18.1525 37.6279 17.6254 38.2344C17.3215 38.5992 17.1106 39.0324 17.011 39.4968C16.9521 39.7648 16.9432 40.0413 16.9846 40.3128C17.0322 40.6003 17.1419 40.8736 17.3062 41.1144C17.4863 41.3668 17.7097 41.5855 17.9662 41.76C17.8228 42.0952 17.7564 42.4581 17.7718 42.8224C17.7872 43.1868 17.8839 43.5429 18.055 43.8648C18.243 44.2168 18.4806 44.5401 18.7606 44.8248C18.8931 44.9644 19.0342 45.096 19.183 45.2184C19.2886 45.3024 19.4014 45.3768 19.5142 45.4584C19.4046 45.6084 19.3105 45.7692 19.2334 45.9384C19.0646 46.3005 19.024 46.7092 19.1182 47.0976C19.1719 47.2776 19.2528 47.4484 19.3582 47.604C19.4572 47.7499 19.5741 47.8831 19.7062 48C19.5598 47.7093 19.4888 47.3868 19.4998 47.0616C19.5227 46.7748 19.6371 46.5031 19.8262 46.2864C19.9512 46.1337 20.0965 45.9988 20.2582 45.8856C20.7096 46.1128 21.1823 46.2955 21.6694 46.4304C22.3626 46.6204 23.0735 46.7388 23.791 46.7832C24.5179 46.8367 25.2482 46.8052 25.9677 46.6896C26.1525 46.656 26.3397 46.6152 26.5365 46.56C26.7566 46.4983 26.9685 46.4104 27.1677 46.2984C27.3321 46.206 27.4751 46.08 27.5877 45.9288C27.6914 45.7879 27.7567 45.6225 27.7773 45.4488C27.7876 45.3403 27.7795 45.2306 27.7533 45.1248C27.749 45.1003 27.7427 45.076 27.7341 45.0528L27.7197 45.0072C27.6407 44.76 27.5207 44.5279 27.3645 44.3208C27.0628 43.9485 26.6666 43.6644 26.2173 43.4976C25.8326 43.3519 25.4279 43.2655 25.0173 43.2408C24.2678 43.1901 23.5149 43.2655 22.7902 43.464C22.08 43.6488 21.4014 43.9384 20.7766 44.3232C20.6206 44.4216 20.467 44.5296 20.3182 44.6448L20.2702 44.616C20.0333 44.4468 19.8131 44.2555 19.6126 44.0448C19.4285 43.841 19.2778 43.6094 19.1662 43.3584C19.0903 43.2016 19.0509 43.0298 19.0509 42.8556C19.0509 42.6813 19.0903 42.5095 19.1662 42.3528C19.2814 42.3912 19.4062 42.4272 19.5142 42.4608C20.2208 42.6542 20.9439 42.7812 21.6742 42.84C23.0991 42.9628 24.5342 42.8894 25.9389 42.6216C26.6973 42.491 27.4339 42.256 28.1277 41.9232C28.3475 41.8123 28.5537 41.6762 28.7421 41.5176C28.8004 41.4679 28.8556 41.4151 28.9077 41.3592C28.9696 41.2948 29.0267 41.2257 29.0781 41.1528C29.14 41.0685 29.194 40.9785 29.2389 40.884C29.3342 40.678 29.3827 40.4534 29.3805 40.2264C29.387 40.1464 29.387 40.0663 29.3805 39.9864C29.3615 39.8076 29.3155 39.6328 29.2437 39.468C29.1098 39.1579 28.8983 38.8876 28.6293 38.6832C28.4191 38.5238 28.186 38.3966 27.9381 38.3064C27.7307 38.2293 27.5171 38.17 27.2997 38.1288C26.9111 38.056 26.5166 38.02 26.1213 38.0208C25.3886 38.0212 24.6575 38.0959 23.9398 38.244C22.5183 38.5106 21.154 39.022 19.9078 39.756C19.5808 39.9573 19.271 40.1853 18.9814 40.4376C18.8755 40.3761 18.7826 40.2945 18.7078 40.1976C18.6526 40.0944 18.643 40.0608 18.679 39.8808C18.727 39.6784 18.8234 39.4905 18.9598 39.3336C19.3511 38.9517 19.8167 38.6544 20.3278 38.46C21.5397 38.0025 22.7819 37.6296 24.0453 37.344C25.4032 37.0279 26.7415 36.6328 28.0533 36.1608C28.7282 35.8934 29.3853 35.584 30.0213 35.2344C30.6604 34.8878 31.2763 34.5 31.8645 34.0728C33.0602 33.2083 34.1291 32.1808 35.0397 31.02C35.9625 29.8399 36.6991 28.5254 37.2237 27.1224C37.7483 25.7076 38.0464 24.2188 38.1069 22.7112C38.2439 19.627 37.3209 16.5888 35.4909 14.1024C34.5681 12.8567 33.4283 11.7876 32.1261 10.9464ZM24.3957 23.7024C24.3871 23.8882 24.3386 24.07 24.2539 24.2356C24.1689 24.4012 24.0496 24.5467 23.9038 24.6624C23.7833 24.7488 23.6366 24.7908 23.4887 24.7812C23.3408 24.7713 23.2008 24.7108 23.0926 24.6096C23.0518 24.5743 23.0187 24.5308 22.9956 24.4821C22.9724 24.4334 22.9597 24.3804 22.9582 24.3264C22.9482 24.1428 22.976 23.9589 23.0398 23.7864C23.2019 23.3596 23.4466 22.9689 23.7598 22.6368C23.8461 22.5385 23.9374 22.4448 24.0333 22.356C24.0573 22.3992 24.0837 22.4424 24.1053 22.4856C24.2061 22.6875 24.2865 22.899 24.3453 23.1168C24.3979 23.3072 24.4149 23.5057 24.3957 23.7024ZM26.3661 44.988C26.3997 44.964 26.3829 44.9808 26.3661 44.988ZM24.8733 44.7792C25.1349 44.8092 25.3919 44.8704 25.6389 44.9616C25.7639 45.0088 25.8813 45.0744 25.9869 45.156C25.8861 45.192 25.7781 45.2232 25.6677 45.252C24.4487 45.5404 23.1811 45.5568 21.955 45.3C21.8374 45.2736 21.715 45.2424 21.6094 45.2088C22.6544 44.8348 23.7672 44.6884 24.8733 44.7792ZM27.4005 40.2024C27.4269 40.2336 27.4005 40.2312 27.4005 40.2024ZM24.2205 39.9456C24.8294 39.8608 25.445 39.8328 26.0589 39.8616C26.3373 39.875 26.6135 39.9146 26.8845 39.9792C26.9949 40.0053 27.1024 40.0416 27.2061 40.0872C26.9579 40.2028 26.7002 40.2967 26.4357 40.368C26.1525 40.4496 25.8525 40.5216 25.5477 40.5816C24.304 40.818 23.0409 40.9368 21.775 40.9368C21.4822 40.9368 21.1894 40.9368 20.9038 40.9008C21.954 40.4145 23.0726 40.0924 24.2205 39.9456Z" fill="url(#paint6_linear_1123_6072)"/>
</g>
</g>
<defs>
<linearGradient id="paint0_linear_1123_6072" x1="4.32709" y1="-0.0696247" x2="4.32709" y2="41.712" gradientUnits="userSpaceOnUse">
<stop stop-color="#FF8A11"/>
<stop offset="1" stop-color="#E81894"/>
</linearGradient>
<linearGradient id="paint1_linear_1123_6072" x1="7.70401" y1="-0.0696065" x2="7.70401" y2="41.712" gradientUnits="userSpaceOnUse">
<stop stop-color="#FF8A11"/>
<stop offset="1" stop-color="#E81894"/>
</linearGradient>
<linearGradient id="paint2_linear_1123_6072" x1="16.6368" y1="-0.0695931" x2="16.6368" y2="41.712" gradientUnits="userSpaceOnUse">
<stop stop-color="#FF8A11"/>
<stop offset="1" stop-color="#E81894"/>
</linearGradient>
<linearGradient id="paint3_linear_1123_6072" x1="30.5255" y1="-0.0696228" x2="30.5255" y2="41.712" gradientUnits="userSpaceOnUse">
<stop stop-color="#FF8A11"/>
<stop offset="1" stop-color="#E81894"/>
</linearGradient>
<linearGradient id="paint4_linear_1123_6072" x1="39.0432" y1="-0.0695844" x2="39.0432" y2="41.712" gradientUnits="userSpaceOnUse">
<stop stop-color="#FF8A11"/>
<stop offset="1" stop-color="#E81894"/>
</linearGradient>
<linearGradient id="paint5_linear_1123_6072" x1="43.663" y1="-0.0696265" x2="43.663" y2="41.712" gradientUnits="userSpaceOnUse">
<stop stop-color="#FF8A11"/>
<stop offset="1" stop-color="#E81894"/>
</linearGradient>
<linearGradient id="paint6_linear_1123_6072" x1="24.1125" y1="-0.0696527" x2="24.1125" y2="41.712" gradientUnits="userSpaceOnUse">
<stop stop-color="#FF8A11"/>
<stop offset="1" stop-color="#E81894"/>
</linearGradient>
<clipPath id="clip0_1123_6072">
<rect width="48" height="48" fill="white"/>
</clipPath>
</defs>
</svg>
