<svg width="48" height="48" viewBox="0 0 48 48" fill="none" xmlns="http://www.w3.org/2000/svg">
<g clip-path="url(#clip0_1123_6091)">
<path d="M23.3616 19.0152C22.7132 18.9944 22.0675 19.1077 21.465 19.3481C20.8624 19.5885 20.316 19.9507 19.86 20.412C18.94 21.3432 18.48 22.5392 18.48 24C18.48 25.4609 18.9392 26.6609 19.8576 27.6C20.3133 28.0618 20.8596 28.4244 21.4622 28.6646C22.0649 28.9051 22.7107 29.0182 23.3592 28.9968C24.0103 29.017 24.6588 28.9034 25.2643 28.6632C25.8698 28.423 26.4197 28.061 26.88 27.6C27.8095 26.6705 28.2744 25.4705 28.2744 24C28.2744 22.5296 27.8095 21.3296 26.88 20.4C26.4187 19.9419 25.8686 19.5827 25.2636 19.3446C24.6588 19.1065 24.0115 18.9944 23.3616 19.0152Z" fill="#0084FF"/>
<path fill-rule="evenodd" clip-rule="evenodd" d="M24 8.40002C20.9146 8.40002 17.8986 9.31495 15.3331 11.0291C12.7677 12.7433 10.7682 15.1796 9.58752 18.0302C8.40679 20.8807 8.09784 24.0173 8.69979 27.0435C9.30171 30.0696 10.7875 32.8493 12.9692 35.0309C15.1509 37.2125 17.9305 38.6983 20.9566 39.3003C23.9827 39.9022 27.1193 39.5933 29.9698 38.4125C32.8205 37.2317 35.2567 35.2323 36.9711 32.6669C38.6851 30.1015 39.6 27.0855 39.6 24C39.595 19.8642 37.9498 15.8992 35.0254 12.9748C32.1007 10.0503 28.1359 8.40511 24 8.40002ZM32.8368 32.8392H28.2768V30.7536C26.9119 32.4751 24.9919 33.3353 22.5168 33.3336C20.16 33.3336 18.1384 32.4319 16.452 30.6288C14.7656 28.8257 13.9216 26.616 13.92 24C13.92 21.384 14.7624 19.1744 16.4472 17.3712C18.132 15.568 20.1536 14.6664 22.512 14.6664C24.9871 14.6664 26.9071 15.5264 28.272 17.2464V15.1608H32.832L32.8368 32.8392Z" fill="#0084FF"/>
<path fill-rule="evenodd" clip-rule="evenodd" d="M46.9639 21.0761C47.4794 22.0218 48 22.9769 48 24C48 25.0231 47.4794 25.9783 46.9639 26.9239C46.5809 27.6264 46.2007 28.3238 46.0392 29.04C45.871 29.7806 45.9127 30.588 45.954 31.3929C46.0092 32.4609 46.0639 33.5251 45.6288 34.4256C45.1932 35.327 44.3198 35.9529 43.4482 36.5779C42.7925 37.0478 42.138 37.5173 41.6712 38.1024C41.2039 38.6885 40.8886 39.4341 40.5732 40.1801C40.1551 41.1691 39.737 42.1581 38.964 42.7752C38.1886 43.3941 37.1227 43.5847 36.0614 43.7743C35.2668 43.9161 34.4746 44.0577 33.8088 44.3784C33.1452 44.6978 32.5481 45.2258 31.9476 45.7567C31.1412 46.4697 30.3288 47.1878 29.3424 47.412C28.3992 47.6265 27.3845 47.3419 26.3585 47.0544C25.5701 46.8333 24.7747 46.6104 24 46.6104C23.2259 46.6104 22.4337 46.8329 21.6475 47.0537C20.6227 47.3417 19.6083 47.6265 18.6576 47.412C17.6747 47.1871 16.8727 46.4777 16.0714 45.7687C15.4697 45.2366 14.8684 44.7045 14.1912 44.3784C13.5127 44.0515 12.7174 43.9106 11.9226 43.77C10.8675 43.5833 9.81355 43.3968 9.036 42.7752C8.25559 42.1514 7.83466 41.1557 7.41518 40.1633C7.10194 39.4221 6.7895 38.6832 6.3288 38.1024C5.86339 37.5156 5.20145 37.0382 4.53922 36.5606C3.66816 35.9323 2.7966 35.3037 2.3712 34.4256C1.94561 33.5472 1.9976 32.4842 2.04994 31.4138C2.08969 30.6009 2.12966 29.7837 1.9608 29.04C1.79916 28.3238 1.41905 27.6264 1.03608 26.9239C0.52062 25.9783 0 25.0231 0 24C0 22.9769 0.52062 22.0218 1.03608 21.0761C1.41905 20.3735 1.79916 19.6761 1.9608 18.96C2.1289 18.2237 2.08739 17.42 2.04593 16.6171C1.9909 15.5515 1.93594 14.4873 2.3712 13.584C2.80711 12.6792 3.68153 12.0532 4.55388 11.4287C5.20882 10.9598 5.86258 10.4918 6.3288 9.90718C6.7962 9.32113 7.11146 8.5754 7.42673 7.82957C7.84483 6.84058 8.26296 5.85145 9.036 5.23438C9.81053 4.61612 10.8748 4.42618 11.9349 4.23699C12.7308 4.09494 13.5243 3.95331 14.1912 3.63118C14.8541 3.31102 15.4506 2.78377 16.0502 2.25381C16.8575 1.54037 17.6702 0.822055 18.6576 0.597588C19.6008 0.38315 20.6155 0.667591 21.6416 0.95525C22.43 1.17627 23.2252 1.39919 24 1.39919C24.7742 1.39919 25.5662 1.17666 26.3525 0.955826C27.3773 0.66797 28.3918 0.383006 29.3424 0.597588C30.3252 0.822403 31.1273 1.53188 31.9286 2.24078C32.5303 2.77302 33.1315 3.30493 33.8088 3.63118C34.487 3.95794 35.2834 4.09875 36.079 4.23939C37.1354 4.42623 38.1905 4.61273 38.964 5.23438C39.7394 5.85757 40.1611 6.84896 40.5814 7.83766C40.896 8.57763 41.2099 9.31611 41.6712 9.89758C42.1366 10.4843 42.7985 10.9617 43.4609 11.4394C44.3318 12.0677 45.2035 12.6963 45.6288 13.5744C46.0543 14.4529 46.0025 15.5158 45.9502 16.5862C45.9103 17.399 45.8702 18.2162 46.0392 18.96C46.2007 19.6761 46.5809 20.3735 46.9639 21.0761ZM14.7998 37.769C17.523 39.5887 20.7247 40.56 24 40.56C28.3906 40.5554 32.6002 38.8094 35.7048 35.7048C38.8094 32.6001 40.5554 28.3905 40.56 24C40.56 20.7247 39.5887 17.523 37.769 14.7998C35.9496 12.0765 33.3631 9.95394 30.3372 8.70054C27.3113 7.44716 23.9816 7.11922 20.7693 7.75818C17.557 8.39715 14.6063 9.97434 12.2903 12.2903C9.97435 14.6063 8.39717 17.557 7.75819 20.7693C7.11922 23.9816 7.44718 27.3113 8.70055 30.3372C9.95395 33.3631 12.0765 35.9496 14.7998 37.769Z" fill="#0084FF"/>
</g>
<defs>
<clipPath id="clip0_1123_6091">
<rect width="48" height="48" fill="white"/>
</clipPath>
</defs>
</svg>
