<svg width="48" height="48" viewBox="0 0 48 48" fill="none" xmlns="http://www.w3.org/2000/svg">
<g clip-path="url(#clip0_1123_6105)">
<path d="M23.4295 33.3302L15.8799 40.3433L23.4295 47.9999V33.3302Z" fill="#F2672A"/>
<path d="M24.0003 -0.00012207L16.0847 8.88573H24.0003H31.9154L24.0003 -0.00012207ZM16.0847 10.0262L24.0003 18.9121L23.9997 10.0262H16.0847ZM24.0003 18.9121L31.9154 10.0262H23.9997L24.0003 18.9121ZM16.0847 11.7436V25.5669L22.9436 19.4812L16.0847 11.7436ZM31.9154 11.7436L25.0565 19.4812L31.9154 25.5669V11.7436ZM24.0003 20.0514L12.1401 30.6164H35.8599L24.0003 20.0514ZM12.1401 31.7563V42.3206L23.4295 31.7563H12.1401ZM24.57 31.7563L35.8599 42.3206V31.7563H24.57Z" fill="#145094"/>
<path d="M24.5703 33.3302L32.1199 40.3434L24.5703 48V33.3302Z" fill="#F2672A"/>
</g>
<defs>
<clipPath id="clip0_1123_6105">
<rect width="23.7198" height="48" fill="white" transform="translate(12.1401)"/>
</clipPath>
</defs>
</svg>
