<svg width="48" height="48" viewBox="0 0 48 48" fill="none" xmlns="http://www.w3.org/2000/svg">
<g clip-path="url(#clip0_1123_6117)">
<path d="M18.5645 5.43542C8.35716 5.43542 0 13.7926 0 24C0 34.2074 8.35716 42.5645 18.5645 42.5646C23.487 42.5646 28.2135 40.6072 31.694 37.1264L34.4089 34.4085L28.9761 28.9757L26.2582 31.6936C24.217 33.735 21.4514 34.8791 18.5645 34.8791C12.511 34.8791 7.68762 30.0535 7.68762 24C7.68762 17.9465 12.511 13.1231 18.5645 13.1231C21.451 13.1231 24.217 14.2684 26.2582 16.3093L28.9731 19.0242L34.4089 13.5915L31.691 10.8735C28.2106 7.39341 23.4864 5.43542 18.5645 5.43542ZM34.4089 13.5915L37.1261 16.3093C39.1675 18.3506 40.3146 21.1131 40.3146 24C40.3146 26.8864 39.17 29.6524 37.1291 31.6936L34.4112 34.4115L39.847 39.8444L42.5649 37.1264C46.045 33.646 48 28.9218 48 24C48 19.0775 46.0428 14.354 42.5619 10.8735L39.844 8.15563L34.4089 13.5915Z" fill="#2C5AA0"/>
</g>
<defs>
<clipPath id="clip0_1123_6117">
<rect width="48" height="37.1291" fill="white" transform="translate(0 5.43542)"/>
</clipPath>
</defs>
</svg>
