<svg width="48" height="48" viewBox="0 0 48 48" fill="none" xmlns="http://www.w3.org/2000/svg">
<g clip-path="url(#clip0_1123_6061)">
<path d="M41.1339 25.392L43.8383 23.8305L41.1328 22.2685L38.4301 23.8296L41.1339 25.392Z" fill="#0044AA"/>
<path d="M4.16211 23.8306L6.86671 25.3922L9.56965 23.8306L6.86588 22.2695L4.16211 23.8306Z" fill="#0044AA"/>
<path d="M4.16211 23.8306L6.86671 25.3922L9.56965 23.8306L6.86588 22.2695L4.16211 23.8306Z" fill="#0044AA"/>
<path d="M12.3653 12.9289C12.3499 12.9289 12.3346 12.9291 12.3193 12.9297C12.1022 12.9403 11.8909 13.0032 11.7033 13.1129L6.86604 15.9037L4.15977 17.4657L0.67616 19.4759C0.470571 19.5946 0.299847 19.7654 0.181144 19.9709C0.0624409 20.1765 6.10352e-05 20.4097 6.10352e-05 20.647C6.10352e-05 20.8844 0.0624409 21.1176 0.181144 21.3231C0.299847 21.5287 0.470571 21.6993 0.67616 21.8179L23.3226 34.894C23.5284 35.0131 23.7619 35.0759 23.9997 35.0759C24.2375 35.0759 24.4712 35.0131 24.677 34.894L47.3234 21.8179C47.529 21.6993 47.6997 21.5287 47.8185 21.3231C47.9372 21.1176 47.9997 20.8844 47.9997 20.647C47.9997 20.4097 47.9372 20.1765 47.8185 19.9709C47.6997 19.7654 47.529 19.5946 47.3234 19.4759L43.8373 17.464L41.1317 19.0262L43.9402 20.6474L23.9984 32.1627L4.05582 20.6474L6.86334 19.0262L9.56794 17.464L12.3792 15.8401L23.3226 22.1639C23.5284 22.283 23.7619 22.3458 23.9997 22.3458C24.2375 22.3458 24.4712 22.283 24.677 22.1639L35.6206 15.8436L38.4279 17.4649L41.1327 15.9037L36.2963 13.1129C36.0909 12.9944 35.8579 12.932 35.6208 12.932C35.3837 12.932 35.1507 12.9944 34.9453 13.1129L23.9984 19.4293L13.054 13.1129C12.845 12.991 12.6073 12.9274 12.3653 12.9289Z" fill="#FF5599"/>
<path d="M12.3654 6.56255C12.3506 6.5623 12.335 6.5623 12.3203 6.56255C12.1035 6.57208 11.8922 6.63356 11.7042 6.74197L0.677308 13.1086C0.471679 13.2272 0.300815 13.398 0.182084 13.6036C0.0633539 13.8091 0.000793457 14.0423 0.000793457 14.2797C0.000793457 14.5171 0.0633539 14.7504 0.182084 14.956C0.300815 15.1616 0.471679 15.3322 0.677308 15.4508L4.16071 17.4618L6.86719 15.8997L4.0603 14.2795L12.3801 9.47297L23.3235 15.7932C23.5293 15.9123 23.7628 15.9749 24.0006 15.9749C24.2384 15.9749 24.4721 15.9123 24.678 15.7932L35.6215 9.47297L43.9447 14.2768L41.1337 15.8997L43.8383 17.46L47.3244 15.4473C47.5292 15.3284 47.6991 15.1579 47.8173 14.9527C47.9355 14.7474 47.9978 14.5148 47.9978 14.278C47.9978 14.0412 47.9355 13.8086 47.8173 13.6034C47.6991 13.3982 47.5292 13.2274 47.3244 13.1086L36.2974 6.74197C36.092 6.62347 35.8591 6.56109 35.622 6.56109C35.3848 6.56109 35.1517 6.62347 34.9463 6.74197L23.9994 13.0622L13.0552 6.74197C12.8456 6.62083 12.6072 6.55828 12.3652 6.56067L12.3654 6.56255ZM41.133 15.9034L38.4282 17.4645L23.9988 25.7958L9.56825 17.4637L6.86365 19.0259L23.3229 28.5268C23.5287 28.6459 23.7622 28.7087 24 28.7087C24.2378 28.7087 24.4715 28.6459 24.6774 28.5268L41.132 19.0259L43.8376 17.4637L41.133 15.9034Z" fill="#55D400"/>
<path d="M13.0148 19.4539L23.9987 25.796L13.0543 19.4758C13.0414 19.4682 13.028 19.4611 13.0148 19.4539ZM38.3245 20.6473L35.6217 22.2076L38.4301 23.8297L41.133 22.2685L38.3245 20.6473ZM9.67302 20.6481L6.8653 22.2694L9.56907 23.8307L12.3768 22.2087L9.67302 20.6481Z" fill="#0088AA"/>
<path d="M4.1618 23.8306L0.676526 25.8427C0.470977 25.9614 0.300394 26.1322 0.181718 26.3377C0.0630424 26.5433 0.000427246 26.7763 0.000427246 27.0136C0.000427246 27.251 0.0630424 27.4842 0.181718 27.6897C0.300394 27.8952 0.470977 28.0659 0.676526 28.1845L23.3229 41.2572C23.5287 41.3763 23.7624 41.4391 24.0003 41.4391C24.2381 41.4391 24.4716 41.3763 24.6774 41.2572L47.324 28.1845C47.5296 28.0659 47.7001 27.8952 47.8188 27.6897C47.9375 27.4842 47.9999 27.251 47.9999 27.0136C47.9999 26.7763 47.9375 26.5433 47.8188 26.3377C47.7001 26.1322 47.5296 25.9614 47.324 25.8427L43.8385 23.8306L41.1341 25.3922L43.9406 27.0132L23.999 38.526L4.05972 27.0132L6.8664 25.3922L4.1618 23.8306Z" fill="#0088AA"/>
<path d="M41.1339 25.392L43.8383 23.8305L41.1328 22.2685L38.4301 23.8296L41.1339 25.392Z" fill="#0088AA"/>
</g>
<defs>
<clipPath id="clip0_1123_6061">
<rect width="48" height="34.8784" fill="white" transform="translate(0 6.56079)"/>
</clipPath>
</defs>
</svg>
