<svg width="48" height="48" viewBox="0 0 48 48" fill="none" xmlns="http://www.w3.org/2000/svg">
<g clip-path="url(#clip0_1123_6066)">
<path d="M35.4508 23.6985H12.3036V37.0246H35.4508V23.6985Z" fill="#4A3AFF"/>
<path d="M36.8738 35.4096V25.7206C36.8738 23.9443 31.0974 22.491 23.8769 22.491C16.6564 22.491 10.88 23.9443 10.88 25.7206V35.4096" stroke="#4A3AFF" stroke-width="4.5" stroke-miterlimit="10" stroke-linecap="round" stroke-linejoin="round"/>
<path d="M36.8742 26.2052L45.4973 23.032C46.0832 22.8163 46.1538 22.0161 45.6146 21.7012L25.3669 9.87582C24.4466 9.33827 23.308 9.33827 22.3875 9.87582L2.13992 21.7012C1.60082 22.0161 1.67142 22.8163 2.25732 23.032L10.8804 26.2052M1.9868 21.9669V31.4385M23.8772 31.9316C16.7001 31.9316 10.8804 33.3768 10.8804 35.1613C10.8804 36.9456 16.7001 38.3909 23.8772 38.3909C31.0544 38.3909 36.8742 36.9456 36.8742 35.1613C36.8742 33.3768 31.0544 31.9316 23.8772 31.9316Z" stroke="#4A3AFF" stroke-width="4.5" stroke-miterlimit="10" stroke-linecap="round" stroke-linejoin="round"/>
<path fill-rule="evenodd" clip-rule="evenodd" d="M21.5496 8.4411C22.9877 7.60118 24.7668 7.60118 26.2049 8.4411L46.4419 20.2603C48.1999 21.287 47.9616 23.8985 46.0469 24.5901L39.0008 27.135L37.8719 24.0096L43.0624 22.1348L24.529 11.3106C24.1263 11.0754 23.6282 11.0754 23.2255 11.3106L4.67244 22.1464L9.85679 24.0481L8.71247 27.1678L3.64833 25.3103V33.1H0.32525V23.3297C-0.141352 22.2831 0.155902 20.9359 1.30378 20.2655L21.5496 8.4411Z" fill="#9328FF"/>
</g>
<defs>
<clipPath id="clip0_1123_6066">
<rect width="48" height="32.4923" fill="white" transform="translate(0 7.75385)"/>
</clipPath>
</defs>
</svg>
