<svg width="48" height="48" viewBox="0 0 48 48" fill="none" xmlns="http://www.w3.org/2000/svg">
<g clip-path="url(#clip0_1123_6046)">
<path fill-rule="evenodd" clip-rule="evenodd" d="M16.4575 0.604248C13.7498 0.604248 11.1532 1.65362 9.23857 3.52151L0 12.5347V16.6604C0 19.5751 1.28333 22.1974 3.32881 24.0189C1.28333 25.8403 0 28.4626 0 31.3774V35.503L9.23857 44.5163C11.1532 46.3842 13.7498 47.4335 16.4575 47.4335C19.4452 47.4335 22.133 46.1815 24 44.1859C25.867 46.1815 28.5548 47.4335 31.5425 47.4335C34.2502 47.4335 36.8468 46.3842 38.7614 44.5163L48 35.503V31.3774C48 28.4626 46.7167 25.8403 44.6712 24.0189C46.7167 22.1974 48 19.5751 48 16.6604V12.5347L38.7614 3.52151C36.8468 1.65362 34.2502 0.604248 31.5425 0.604248C28.5548 0.604248 25.867 1.85627 24 3.85187C22.133 1.85627 19.4452 0.604248 16.4575 0.604248ZM30.9106 24.0189C30.7955 23.9164 30.6826 23.8112 30.5719 23.7032L24 17.2916L17.4281 23.7032C17.3174 23.8112 17.2045 23.9164 17.0894 24.0189C17.2045 24.1213 17.3174 24.2266 17.4281 24.3345L24 30.7461L30.5719 24.3345C30.6826 24.2266 30.7955 24.1213 30.9106 24.0189ZM26.6666 35.503V37.4734C26.6666 40.1005 28.8497 42.2303 31.5425 42.2303C32.8356 42.2303 34.0758 41.7291 34.9902 40.837L42.6667 33.3477V31.3774C42.6667 28.7503 40.4837 26.6205 37.7909 26.6205C36.4978 26.6205 35.2576 27.1217 34.3432 28.0138L26.6666 35.503ZM21.3334 35.503L13.6568 28.0138C12.7424 27.1217 11.5023 26.6205 10.2091 26.6205C7.51631 26.6205 5.33333 28.7503 5.33333 31.3774V33.3477L13.0098 40.837C13.9242 41.7291 15.1644 42.2303 16.4575 42.2303C19.1503 42.2303 21.3334 40.1005 21.3334 37.4734V35.503ZM21.3334 10.5644V12.5347L13.6568 20.024C12.7424 20.9161 11.5023 21.4173 10.2091 21.4173C7.51631 21.4173 5.33333 19.2875 5.33333 16.6604V14.69L13.0098 7.20076C13.9242 6.30867 15.1644 5.8075 16.4575 5.8075C19.1503 5.8075 21.3334 7.93723 21.3334 10.5644ZM34.3432 20.024L26.6666 12.5347V10.5644C26.6666 7.93723 28.8497 5.8075 31.5425 5.8075C32.8356 5.8075 34.0758 6.30867 34.9902 7.20076L42.6667 14.69V16.6604C42.6667 19.2875 40.4837 21.4173 37.7909 21.4173C36.4978 21.4173 35.2576 20.9161 34.3432 20.024Z" fill="#FF630B"/>
</g>
<defs>
<clipPath id="clip0_1123_6046">
<rect width="48" height="48" fill="white"/>
</clipPath>
</defs>
</svg>
