<svg width="48" height="48" viewBox="0 0 48 48" fill="none" xmlns="http://www.w3.org/2000/svg">
<g clip-path="url(#clip0_1123_6127)">
<mask id="mask0_1123_6127" style="mask-type:luminance" maskUnits="userSpaceOnUse" x="0" y="0" width="48" height="48">
<path d="M48 0H0V48H48V0Z" fill="white"/>
</mask>
<g mask="url(#mask0_1123_6127)">
<path fill-rule="evenodd" clip-rule="evenodd" d="M44.4024 36.6391C46.7513 32.8476 48 28.471 48 24C48 17.6348 45.4714 11.5303 40.9706 7.02943C36.4697 2.52857 30.3653 0 24 0C19.2533 0 14.6131 1.40758 10.6663 4.04472C6.71954 6.68189 3.64342 10.4302 1.8269 14.8156C0.0103991 19.201 -0.464882 24.0266 0.461165 28.6822C1.38721 33.3377 3.67298 37.614 7.02946 40.9706C10.3859 44.327 14.6623 46.6128 19.3178 47.539C23.9734 48.4649 28.799 47.9897 33.1843 46.1731C37.5698 44.3566 41.3182 41.2805 43.9553 37.3337C44.105 37.1093 44.251 36.8827 44.393 36.6542L44.4 36.6552C44.4007 36.6497 44.4014 36.6444 44.4024 36.6391ZM24.3996 2.88377C21.3227 8.7697 19.1286 9.94236 17.4983 10.8C16.0415 11.5752 15.0815 12.0864 13.6439 18.3168C12.346 23.9412 8.67845 28.063 3.65818 29.6801C4.25597 31.8209 5.19115 33.8654 6.43937 35.7336C6.50933 35.8382 6.58015 35.9424 6.65186 36.0456C8.30527 32.2075 13.03 28.8422 19.9776 26.7048C24.1752 25.4112 24.024 23.28 23.28 18.5832C22.9824 16.6992 22.6464 14.5608 22.8 12.3768C22.9488 10.2792 23.928 8.05682 25.4856 6.28322C26.4907 5.13742 27.709 4.20444 29.0986 3.50465C27.5674 3.12374 25.9915 2.91389 24.3996 2.88377ZM12.2279 41.5349C11.0244 40.727 9.90708 39.797 8.8937 38.76C9.21715 34.5156 15.2084 31.1849 20.8272 29.4552C27.5928 27.3744 26.8176 22.4544 26.1336 18.1344C25.8456 16.3176 25.548 14.4384 25.68 12.5832C25.9997 8.06882 30.3343 5.68538 33.4116 5.09292C34.2103 5.49058 34.9862 5.9399 35.7336 6.43937C35.8354 6.50736 35.9366 6.57619 36.037 6.64586C33.7973 8.36443 30.5438 12.0344 30.72 18.7488C30.7702 20.6866 31.391 22.5261 32.0482 24.4733L32.0496 24.4776L32.0498 24.4783C33.4512 28.6397 34.9006 32.9426 31.3776 39.3792C29.7511 42.3595 28.3346 43.5334 26.2534 44.9995C25.3075 45.101 24.3578 45.1382 23.4113 45.1118C25.7126 42.9943 28.4002 39.8926 28.1088 37.1544C27.996 36.1104 27.4464 34.68 25.2984 33.7248C23.1504 32.7696 21.0432 32.7384 19.032 33.6312C15.6218 35.148 13.3675 39.0516 12.2279 41.5349ZM33.6 18.6816C33.4363 12.5067 36.7529 9.57583 38.3671 8.51957C39.947 9.98602 41.2946 11.6869 42.3612 13.5635C40.2538 14.717 37.92 16.9786 37.92 20.64C37.92 23.2296 38.988 25.5192 40.032 27.7296C41.1067 30.035 42.1301 32.231 42.132 34.8298C41.244 36.3166 40.1717 37.6963 38.934 38.934C36.983 40.885 34.679 42.425 32.1588 43.4806C32.7403 42.725 33.3156 41.8426 33.9024 40.7712C38.0191 33.2551 36.2302 27.9065 34.7926 23.6081L34.7784 23.5656C34.1664 21.7536 33.6384 20.1888 33.6 18.6816ZM43.9303 30.9886C43.4772 29.471 42.8309 28.0795 42.2201 26.7646L42.1968 26.7144C41.232 24.6504 40.32 22.6992 40.32 20.64C40.32 17.9546 42.0773 16.463 43.4275 15.716C43.4561 15.7831 43.4844 15.8503 43.5122 15.9177C45.1109 19.7769 45.5292 24.0235 44.7142 28.1203C44.5198 29.0976 44.2574 30.0557 43.9303 30.9886ZM14.7307 42.9773C15.12 43.1674 15.5158 43.3459 15.9177 43.5122C17.0859 43.9963 18.2896 44.3719 19.5138 44.6381C22.1505 42.5693 25.4378 39.2074 25.2504 37.4592L25.2502 37.4578C25.231 37.2816 25.1803 36.8196 24.1344 36.3552C22.7448 35.7384 21.4608 35.7072 20.208 36.264C17.6845 37.3831 15.7495 40.6963 14.7307 42.9773ZM3.07212 26.8421C7.00332 25.4758 9.78727 22.2244 10.8359 17.676C12.4799 10.5312 13.9199 9.44402 16.1447 8.26562C17.3668 7.61998 18.8239 6.83952 20.9971 3.09768C16.5084 3.74688 12.3176 5.82828 9.07294 9.07291C5.11354 13.0323 2.88636 18.4006 2.88 24C2.88 24.9542 2.94466 25.9037 3.07212 26.8421Z" fill="url(#paint0_linear_1123_6127)"/>
</g>
</g>
<defs>
<linearGradient id="paint0_linear_1123_6127" x1="51.8832" y1="37.9416" x2="28.0824" y2="1.28398" gradientUnits="userSpaceOnUse">
<stop stop-color="#019C85"/>
<stop offset="1" stop-color="#BEDC7C"/>
</linearGradient>
<clipPath id="clip0_1123_6127">
<rect width="48" height="48" fill="white"/>
</clipPath>
</defs>
</svg>
