<svg width="48" height="48" viewBox="0 0 48 48" fill="none" xmlns="http://www.w3.org/2000/svg">
<g clip-path="url(#clip0_1123_6089)">
<mask id="mask0_1123_6089" style="mask-type:luminance" maskUnits="userSpaceOnUse" x="0" y="0" width="48" height="48">
<path d="M48 0H0V48H48V0Z" fill="white"/>
</mask>
<g mask="url(#mask0_1123_6089)">
<path d="M48 15.072V22.0632C48 36.3864 37.2552 48 24 48C10.7448 48 0 36.3864 0 22.0632V15.072L25.0512 40.9776L48 15.072Z" fill="url(#paint0_linear_1123_6089)"/>
<path d="M1.0512 15.0408C0.7488 15.0408 0.4488 15.0408 0.1512 15.0648C0.0510454 15.9461 0.000565615 16.8323 0 17.7192C0 30.9192 10.7448 41.628 24 41.628C24.3024 41.628 24.6 41.628 24.9 41.6064C24.9989 40.7251 25.0495 39.8388 25.0512 38.952C25.0512 25.7472 14.3064 15.0408 1.0512 15.0408Z" fill="url(#paint1_linear_1123_6089)"/>
<path d="M47.8512 15.072C35.1528 15.696 25.0512 26.148 25.0512 38.952C25.0512 25.752 14.3064 15.0408 1.0512 15.0408C0.7488 15.0408 0.4488 15.0408 0.1512 15.0648C0.0510454 15.9461 0.000565615 16.8323 0 17.7192C0 30.9192 10.7448 41.628 24 41.628C24.3024 41.628 24.6 41.628 24.9 41.6064C25.0008 41.6064 25.1016 41.6064 25.2 41.6064C37.8984 40.9824 48 30.5304 48 17.7264C47.9993 16.8395 47.9496 15.9534 47.8512 15.072Z" fill="url(#paint2_linear_1123_6089)"/>
<path d="M24 17.28C28.7717 17.28 32.64 13.4118 32.64 8.64C32.64 3.86825 28.7717 0 24 0C19.2282 0 15.36 3.86825 15.36 8.64C15.36 13.4118 19.2282 17.28 24 17.28Z" fill="#6F4A9E"/>
</g>
</g>
<defs>
<linearGradient id="paint0_linear_1123_6089" x1="24" y1="50.2608" x2="24" y2="34.4808" gradientUnits="userSpaceOnUse">
<stop stop-color="#FF8A11"/>
<stop offset="1" stop-color="#E81894"/>
</linearGradient>
<linearGradient id="paint1_linear_1123_6089" x1="27.5304" y1="45.9096" x2="7.884" y2="22.9008" gradientUnits="userSpaceOnUse">
<stop stop-color="#B03B83"/>
<stop offset="1" stop-color="#6F4A9E"/>
</linearGradient>
<linearGradient id="paint2_linear_1123_6089" x1="24" y1="36.8544" x2="24" y2="19.524" gradientUnits="userSpaceOnUse">
<stop stop-color="#FF8A11"/>
<stop offset="1" stop-color="#E81894"/>
</linearGradient>
<clipPath id="clip0_1123_6089">
<rect width="48" height="48" fill="white"/>
</clipPath>
</defs>
</svg>
