<svg width="48" height="48" viewBox="0 0 48 48" fill="none" xmlns="http://www.w3.org/2000/svg">
<g clip-path="url(#clip0_1123_6098)">
<path d="M24 0.00012207L22.8957 1.10442L19.3556 4.64449L15.5406 8.45948C14.126 9.87409 13.4967 11.7881 13.6493 13.6482C11.7892 13.4957 9.87511 14.125 8.4605 15.5396L4.64436 19.3558L-1.85484e-06 24.0001L1.10429 25.1044L8.4605 32.4606C9.875 33.8751 11.789 34.5047 13.649 34.3523C13.4963 36.2119 14.1251 38.1252 15.5395 39.5396L24 48.0001L25.1043 46.8958L28.6444 43.3558L32.4605 39.5396C33.8751 38.125 34.5048 36.2112 34.3522 34.3512C36.2123 34.5038 38.126 33.8741 39.5406 32.4595L43.3556 28.6445L48 24.0001L46.8957 22.8958L39.5395 15.5396C38.1251 14.1252 36.212 13.4961 34.3525 13.6488C34.5049 11.7888 33.875 9.87513 32.4605 8.46063L24 0.00012207Z" fill="#333333"/>
<path d="M24.0001 4.41724L30.252 10.6692C31.6205 12.0376 31.6205 14.1723 30.252 15.5407L26.437 19.3557L24.0013 21.7915L17.7494 15.5396C16.3809 14.1711 16.3809 12.0364 17.7494 10.668L21.5643 6.85301L24.0001 4.41724Z" fill="#FF5555"/>
<path d="M37.331 17.7481L43.5829 24L41.1471 26.4358L37.3321 30.2508C35.9637 31.6192 33.829 31.6192 32.4606 30.2508L26.2098 24L28.6456 21.5642L32.4606 17.7493C33.829 16.3808 35.9626 16.3797 37.331 17.7481Z" fill="#FFDD55"/>
<path d="M15.5408 17.7482L21.7927 24.0001L19.3569 26.4358L15.5408 30.252C14.1723 31.6204 12.0376 31.6204 10.6692 30.252L4.41729 24.0001L6.85306 21.5643L10.6692 17.7482C12.0376 16.3797 14.1723 16.3797 15.5408 17.7482Z" fill="#80FFB3"/>
<path d="M24.0012 26.2086L30.252 32.4594C31.6204 33.8278 31.6204 35.9625 30.252 37.3309L26.4358 41.1471L24.0001 43.5829L17.7482 37.3309C16.3798 35.9625 16.3809 33.829 17.7493 32.4605L21.5654 28.6444L24.0012 26.2086Z" fill="#5F5FD3"/>
</g>
<defs>
<clipPath id="clip0_1123_6098">
<rect width="48" height="48" fill="white"/>
</clipPath>
</defs>
</svg>
