<svg width="48" height="48" viewBox="0 0 48 48" fill="none" xmlns="http://www.w3.org/2000/svg">
<g clip-path="url(#clip0_1123_6093)">
<path d="M17.3398 19.4141L9.96795 23.6699L9.9628 23.6665L9.95221 23.6851L24.019 31.8075L38.0485 23.708L38.0434 23.6992V23.6764L30.6796 19.4248L24.0191 23.2702L17.3398 19.4141Z" fill="#F9D626"/>
<path d="M9.95668 23.6882V32.202L9.95154 32.2108L24.0184 40.3331L38.0479 32.2337L38.0427 32.2242V23.7111L24.0181 31.8077L9.95668 23.6882Z" fill="#FAAF40"/>
<path d="M9.95667 32.2136V39.8921L23.9999 48L38.0431 39.8921V32.2365L24.0186 40.3332L9.95667 32.2136Z" fill="#F49722"/>
<path d="M30.6797 19.4247L24.0192 23.2701V31.8071L38.0483 23.708L38.0432 23.6992V23.6763L30.6797 19.4247Z" fill="#F8D008"/>
<path d="M38.0434 23.7111L24.0192 31.8074V40.3328L38.0483 32.2337L38.0432 32.2241L38.0434 23.7111Z" fill="#F79606"/>
<path d="M38.0431 32.2366L24.0192 40.3329V47.9888L38.0431 39.8922V32.2366Z" fill="#EA880C"/>
<path d="M34.6601 10.6409L24.0192 0L13.3783 10.6409L24.0192 21.2818L34.6601 10.6409Z" fill="#0B9347"/>
<path d="M24.019 0.00012207V21.2816L34.6599 10.6407L24.019 0.00012207Z" fill="#0B6F39"/>
</g>
<defs>
<clipPath id="clip0_1123_6093">
<rect width="28.097" height="48" fill="white" transform="translate(9.95148)"/>
</clipPath>
</defs>
</svg>
