<svg width="48" height="48" viewBox="0 0 48 48" fill="none" xmlns="http://www.w3.org/2000/svg">
<path d="M24 12.75C24 18.9632 19.066 24 12.9796 24H1.95923V12.75C1.95923 6.53679 6.89323 1.5 12.9796 1.5C19.066 1.5 24 6.53679 24 12.75Z" fill="#17CF97"/>
<path d="M24 35.25C24 29.0368 28.934 24 35.0204 24H46.0408V35.25C46.0408 41.4632 41.1068 46.5 35.0204 46.5C28.934 46.5 24 41.4632 24 35.25Z" fill="#17CF97"/>
<path d="M1.95923 35.25C1.95923 41.4632 6.89323 46.5 12.9796 46.5H24V35.25C24 29.0368 19.066 24 12.9796 24C6.89323 24 1.95923 29.0368 1.95923 35.25Z" fill="#17CF97"/>
<path d="M46.0408 12.75C46.0408 6.53679 41.1068 1.5 35.0204 1.5H24V12.75C24 18.9632 28.934 24 35.0204 24C41.1068 24 46.0408 18.9632 46.0408 12.75Z" fill="#17CF97"/>
</svg>
