<svg width="48" height="48" viewBox="0 0 48 48" fill="none" xmlns="http://www.w3.org/2000/svg">
<g clip-path="url(#clip0_1123_6086)">
<path d="M18.24 21.6C19.8306 21.6 21.12 20.3106 21.12 18.72C21.12 17.1295 19.8306 15.84 18.24 15.84C16.6494 15.84 15.36 17.1295 15.36 18.72C15.36 20.3106 16.6494 21.6 18.24 21.6Z" fill="#02BB36"/>
<path d="M17.76 38.4C19.3506 38.4 20.64 37.1105 20.64 35.52C20.64 33.9295 19.3506 32.64 17.76 32.64C16.1694 32.64 14.88 33.9295 14.88 35.52C14.88 37.1105 16.1694 38.4 17.76 38.4Z" fill="#02BB36"/>
<path d="M15.36 13.92C15.8902 13.92 16.32 13.4902 16.32 12.96C16.32 12.4298 15.8902 12 15.36 12C14.8298 12 14.4 12.4298 14.4 12.96C14.4 13.4902 14.8298 13.92 15.36 13.92Z" fill="#02BB36"/>
<path d="M14.16 27.36C14.5577 27.36 14.88 27.0377 14.88 26.64C14.88 26.2423 14.5577 25.92 14.16 25.92C13.7623 25.92 13.44 26.2423 13.44 26.64C13.44 27.0377 13.7623 27.36 14.16 27.36Z" fill="#02BB36"/>
<path d="M32.64 28.08C33.0377 28.08 33.36 27.7577 33.36 27.36C33.36 26.9623 33.0377 26.64 32.64 26.64C32.2423 26.64 31.92 26.9623 31.92 27.36C31.92 27.7577 32.2423 28.08 32.64 28.08Z" fill="#02BB36"/>
<path d="M25.68 38.88C26.0777 38.88 26.4 38.5577 26.4 38.16C26.4 37.7623 26.0777 37.44 25.68 37.44C25.2823 37.44 24.96 37.7623 24.96 38.16C24.96 38.5577 25.2823 38.88 25.68 38.88Z" fill="#02BB36"/>
<path d="M24 24C24.5301 24 24.96 23.5702 24.96 23.04C24.96 22.5098 24.5301 22.08 24 22.08C23.4698 22.08 23.04 22.5098 23.04 23.04C23.04 23.5702 23.4698 24 24 24Z" fill="#02BB36"/>
<path d="M20.4 29.28C21.3278 29.28 22.08 28.5278 22.08 27.6C22.08 26.6721 21.3278 25.92 20.4 25.92C19.4721 25.92 18.72 26.6721 18.72 27.6C18.72 28.5278 19.4721 29.28 20.4 29.28Z" fill="#02BB36"/>
<path d="M30.72 12.96C31.5154 12.96 32.16 12.3153 32.16 11.52C32.16 10.7247 31.5154 10.08 30.72 10.08C29.9247 10.08 29.28 10.7247 29.28 11.52C29.28 12.3153 29.9247 12.96 30.72 12.96Z" fill="#02BB36"/>
<path d="M30.12 23.76C32.3071 23.76 34.08 21.9871 34.08 19.8C34.08 17.613 32.3071 15.84 30.12 15.84C27.9329 15.84 26.16 17.613 26.16 19.8C26.16 21.9871 27.9329 23.76 30.12 23.76Z" fill="#02BB36"/>
<path d="M23.28 14.88C24.473 14.88 25.44 13.9129 25.44 12.72C25.44 11.5271 24.473 10.56 23.28 10.56C22.0871 10.56 21.12 11.5271 21.12 12.72C21.12 13.9129 22.0871 14.88 23.28 14.88Z" fill="#02BB36"/>
<path d="M28.56 35.52C30.5482 35.52 32.16 33.9082 32.16 31.92C32.16 29.9318 30.5482 28.32 28.56 28.32C26.5719 28.32 24.96 29.9318 24.96 31.92C24.96 33.9082 26.5719 35.52 28.56 35.52Z" fill="#02BB36"/>
<path d="M7.9824 44.4C7.10561 44.4197 6.23069 44.3105 5.3856 44.076C4.78351 43.9061 4.23972 43.5739 3.8136 43.116C3.36266 42.5959 3.04258 41.9753 2.88 41.3064C2.64302 40.3293 2.53332 39.3259 2.5536 38.3208V30.4008C2.5536 28.9272 2.3256 27.8544 1.8576 27.1248C1.41544 26.4705 0.758251 25.9917 0 25.7712V21.7704C1.2792 21.3408 2.5608 20.2464 2.5608 17.592V9.67198C2.5608 7.42078 2.976 5.83198 3.792 4.92238C4.608 4.01278 6.0456 3.59998 8.1072 3.59998H10.8V7.55038H10.7088C10.1769 7.5443 9.64529 7.57478 9.1176 7.64158C8.64036 7.69385 8.19101 7.89254 7.8312 8.21038C7.4941 8.54818 7.27306 8.98438 7.2 9.45598C7.11233 9.972 7.07297 10.4951 7.0824 11.0184V18.012C7.08938 18.7108 7.04849 19.4092 6.96 20.1024C6.90283 20.5479 6.77904 20.9824 6.5928 21.3912C6.42034 21.7529 6.18091 22.0786 5.8872 22.3512C5.47574 22.7286 5.03959 23.0782 4.5816 23.3976L3.6864 24.0312L4.6008 24.636C5.04931 24.9218 5.46396 25.2576 5.8368 25.6368C6.1362 25.9512 6.38405 26.3107 6.5712 26.7024C6.76805 27.1265 6.89916 27.5781 6.96 28.0416C7.04467 28.6908 7.08475 29.3453 7.08 30V36.9936C7.07158 37.5033 7.11096 38.0129 7.1976 38.5152C7.26749 38.9741 7.47504 39.4008 7.7928 39.7392C8.13204 40.0629 8.56279 40.2739 9.0264 40.344C9.56897 40.4323 10.1184 40.4717 10.668 40.4616H10.8V44.4H7.9824Z" fill="black"/>
<path d="M40.0176 44.4C40.8943 44.4197 41.7694 44.3105 42.6144 44.076C43.2166 43.9061 43.7604 43.5739 44.1864 43.116C44.634 42.5964 44.9515 41.9779 45.1128 41.3112C45.3497 40.3341 45.4596 39.3307 45.4392 38.3256V30.4056C45.4392 28.932 45.6672 27.8592 46.1352 27.1296C46.578 26.4713 47.238 25.9896 48 25.7688V21.7704C46.7208 21.3408 45.4392 20.2464 45.4392 17.592V9.67197C45.4392 7.42077 45.024 5.83197 44.208 4.92237C43.392 4.01277 41.9544 3.59277 39.888 3.59277H37.2V7.55037H37.2912C37.8231 7.5443 38.3547 7.57478 38.8824 7.64157C39.3595 7.69385 39.8091 7.89254 40.1688 8.21037C40.506 8.54817 40.7271 8.98437 40.8 9.45597C40.8876 9.972 40.927 10.4951 40.9176 11.0184V18.012C40.9083 18.7106 40.9467 19.409 41.0328 20.1024C41.0899 20.5479 41.2138 20.9824 41.4 21.3912C41.5726 21.7529 41.8119 22.0786 42.1056 22.3512C42.517 22.7286 42.9533 23.0782 43.4112 23.3976L44.3064 24.0312L43.392 24.636C42.9435 24.9218 42.529 25.2576 42.156 25.6368C41.8567 25.9512 41.6088 26.3107 41.4216 26.7024C41.2239 27.1293 41.0928 27.5844 41.0328 28.0512C40.9503 28.6965 40.9119 29.3469 40.9176 29.9976V36.9912C40.926 37.5009 40.8867 38.0105 40.8 38.5128C40.7427 38.9779 40.5315 39.4104 40.2 39.7416C39.8688 40.073 39.4363 40.2842 38.9712 40.3416C38.4286 40.4299 37.8792 40.4693 37.3296 40.4592H37.2V44.4H40.0176Z" fill="black"/>
</g>
<defs>
<clipPath id="clip0_1123_6086">
<rect width="48" height="48" fill="white"/>
</clipPath>
</defs>
</svg>
