<svg width="48" height="48" viewBox="0 0 48 48" fill="none" xmlns="http://www.w3.org/2000/svg">
<g clip-path="url(#clip0_1123_6112)">
<path d="M27.899 -0.00012207L27.9043 0.00350638C27.0207 0.164723 24.4538 5.11902 24.6837 5.0485C24.4598 5.30565 25.3768 0.680872 25.4478 0.123245C24.1417 0.24961 22.8649 0.481231 21.6263 0.804667C21.0196 0.961389 18.9587 4.59712 18.9587 4.59712C18.8197 4.81745 18.4366 2.37387 18.3818 1.89683C15.7784 2.98009 13.3993 4.49465 11.3332 6.35111C11.157 6.51218 11.2309 8.63848 11.2309 8.63848C11.1284 8.78889 10.3465 7.32638 10.2541 7.38014C9.55995 8.08315 8.90763 8.82667 8.30126 9.60801C7.98388 10.0176 8.23014 14.6472 8.23014 14.6472C8.09954 14.8083 6.69408 11.8779 6.57121 12.1472C4.36787 15.8524 3.10242 20.1802 3.10242 24.8039C3.10242 30.0733 4.80142 35.2023 7.92317 39.4476C7.97092 39.5277 8.01617 39.6084 8.0625 39.6878C8.25586 39.9216 8.48184 40.2564 8.70329 40.505C8.34392 37.3194 7.75206 34.0735 7.73159 30.9092C7.73159 28.3483 8.22825 25.8983 9.12927 23.6515C9.2135 23.441 7.17063 19.5877 7.17063 19.5877C7.17063 19.5877 9.6386 22.4878 9.77005 22.2234C10.9585 19.8368 12.6212 17.7242 14.6387 16.0129C14.8592 15.826 14.3782 9.61889 14.3782 9.61889C14.3782 9.61889 15.6983 15.1738 15.897 15.0311C16.3217 14.7271 16.7591 14.4385 17.2084 14.1682C17.339 14.091 17.0952 11.1733 17.0952 11.1733C17.0952 11.1733 17.8579 13.7937 17.9892 13.7227C20.288 12.4806 22.8681 11.6849 25.6169 11.4534C25.8232 11.4211 26.2403 11.4113 26.2403 11.4113C30.5387 6.40251 35.0227 3.93375 39.614 2.90046C35.8981 0.737277 31.181 0.12606 27.8992 0.00132931L27.899 -0.00012207Z" fill="#9C0124"/>
<path d="M36.4928 16.2748L29.5632 18.9489C29.5632 18.9489 31.1361 17.2894 30.8346 17.2501C24.995 16.8156 21.0302 18.463 17.5864 21.3684C16.1047 22.7694 15.1796 24.3311 14.5596 26.4787C13.9568 28.568 14.1631 33.153 15.0138 36.5636C15.3589 37.9471 15.719 39.6437 15.8201 40.3336L15.9993 41.5883L16.397 40.8365C17.1087 39.4909 17.4572 37.3761 17.4572 34.3002C17.4714 27.1059 18.9812 24.107 23.6974 21.9083C32.6699 19.2552 35.9898 24.9106 39.3752 32.036C39.3752 31.7899 39.3034 26.0883 39.3034 26.0883C37.93 22.6348 37.1566 22.9782 36.4928 16.2748ZM26.2591 25.9061C25.8175 25.9102 25.3998 25.9273 25.0167 25.9555L27.479 26.9272C28.3783 28.968 28.7187 30.6712 30.8455 30.6725C30.9435 30.6799 32.7031 33.663 32.807 33.663C32.9472 33.6716 31.6486 30.716 31.7983 30.716C32.4738 30.6472 33.4318 30.716 33.4318 30.716C35.7498 34.87 36.7939 37.7164 38.6292 42.6848C34.7494 41.0881 31.732 40.1575 25.2664 39.9722L24.2461 32.9439C23.45 36.1355 22.8106 39.76 21.2511 43.2494C32.9924 43.3197 40.5468 46.5684 44.8977 47.9997C42.2877 43.4996 37.8248 32.0614 35.2033 27.9069C33.6049 26.4513 29.3504 25.8775 26.2591 25.9076V25.9061Z" fill="#87795C"/>
<path d="M4.56024 29.7589C4.5125 29.8067 4.48304 29.8613 4.47461 29.92C4.47461 29.8596 4.51532 29.8064 4.56024 29.7589Z" fill="black"/>
</g>
<defs>
<clipPath id="clip0_1123_6112">
<rect width="41.7952" height="48" fill="white" transform="translate(3.10242)"/>
</clipPath>
</defs>
</svg>
