<svg width="48" height="48" viewBox="0 0 48 48" fill="none" xmlns="http://www.w3.org/2000/svg">
<path d="M32.996 33.5968H12.5353V39.8548H32.996V33.5968Z" fill="#4A3AFF"/>
<path d="M12.5351 39.8548C19.4397 39.8548 25.037 34.2575 25.037 27.3529C25.037 20.4482 19.4397 14.851 12.5351 14.851C5.6305 14.851 0.0332031 20.4482 0.0332031 27.3529C0.0332031 34.2575 5.6305 39.8548 12.5351 39.8548Z" fill="#4A3AFF"/>
<path d="M31.9451 39.8547C40.6662 39.8547 47.7361 32.7849 47.7361 24.0638C47.7361 15.3427 40.6662 8.27283 31.9451 8.27283C23.224 8.27283 16.1542 15.3427 16.1542 24.0638C16.1542 32.7849 23.224 39.8547 31.9451 39.8547Z" fill="#9328FF"/>
</svg>
