<svg width="48" height="48" viewBox="0 0 48 48" fill="none" xmlns="http://www.w3.org/2000/svg">
<g clip-path="url(#clip0_1123_6053)">
<path d="M6.56758 35.1153C8.32778 36.3431 11.1816 36.3431 12.9419 35.1153C14.702 33.8875 14.702 31.8969 12.9419 30.6691C11.1816 29.4413 8.32778 29.4413 6.56758 30.6691C4.80739 31.8969 4.80739 33.8875 6.56758 35.1153Z" fill="#25CAAC"/>
<path d="M24.8368 18.4424C27.4771 20.284 31.7578 20.284 34.3982 18.4424C37.0384 16.6007 37.0384 13.6148 34.3982 11.7732C31.7578 9.93156 27.4771 9.93156 24.8368 11.7732C22.1966 13.6148 22.1966 16.6007 24.8368 18.4424Z" fill="#25CAAC"/>
<path d="M15.1388 26.7789C17.339 28.3135 20.9063 28.3135 23.1065 26.7789C25.3068 25.2441 25.3068 22.7559 23.1065 21.2212C20.9063 19.6865 17.339 19.6865 15.1388 21.2212C12.9385 22.7559 12.9385 25.2441 15.1388 26.7789Z" fill="#25CAAC"/>
<path d="M0.990108 25.6673C2.31025 26.5881 4.45063 26.5881 5.77078 25.6673C7.09091 24.7465 7.09091 23.2536 5.77078 22.3327C4.45063 21.4119 2.31025 21.4119 0.990108 22.3327C-0.330037 23.2536 -0.330036 24.7465 0.990108 25.6673Z" fill="#25CAAC"/>
<path d="M15.1388 8.99437C17.339 10.5291 20.9063 10.5291 23.1065 8.99437C25.3068 7.45967 25.3068 4.97143 23.1065 3.43673C20.9063 1.90203 17.339 1.90203 15.1388 3.43673C12.9385 4.97143 12.9385 7.45967 15.1388 8.99437Z" fill="#25CAAC"/>
<path d="M6.56758 17.3309C8.32777 18.5586 11.1816 18.5586 12.9419 17.3309C14.702 16.1031 14.702 14.1125 12.9419 12.8847C11.1816 11.657 8.32777 11.657 6.56758 12.8847C4.80738 14.1125 4.8074 16.1031 6.56758 17.3309Z" fill="#25CAAC"/>
<path d="M15.1388 44.5633C17.339 46.0979 20.9063 46.0979 23.1065 44.5633C25.3068 43.0286 25.3068 40.5403 23.1065 39.0056C20.9063 37.471 17.339 37.471 15.1388 39.0056C12.9385 40.5403 12.9385 43.0286 15.1388 44.5633Z" fill="#25CAAC"/>
<path d="M36.4584 27.3346C39.0987 29.1762 43.3795 29.1762 46.0198 27.3346C48.6601 25.493 48.6601 22.5071 46.0198 20.6655C43.3795 18.8238 39.0987 18.8238 36.4584 20.6655C33.8182 22.5071 33.8182 25.493 36.4584 27.3346Z" fill="#25CAAC"/>
<path d="M24.8368 36.2267C27.4771 38.0684 31.7578 38.0684 34.3982 36.2267C37.0384 34.3851 37.0384 31.3993 34.3982 29.5576C31.7578 27.716 27.4771 27.716 24.8368 29.5576C22.1966 31.3993 22.1966 34.3851 24.8368 36.2267Z" fill="#25CAAC"/>
</g>
<defs>
<clipPath id="clip0_1123_6053">
<rect width="48" height="43.4286" fill="white" transform="translate(0 2.28571)"/>
</clipPath>
</defs>
</svg>
