<svg width="48" height="48" viewBox="0 0 48 48" fill="none" xmlns="http://www.w3.org/2000/svg">
<path d="M26.2047 7.18786C26.2047 4.92241 29.0975 3.80587 30.7536 5.43214L46.0129 20.4171C47.0178 21.404 47.5798 22.7247 47.5798 24.0995V41.4445C47.5798 43.71 44.687 44.8265 43.0309 43.2002L27.7717 28.2152C26.7667 27.2284 26.2047 25.9076 26.2047 24.5328V7.18786Z" fill="#9328FF"/>
<path d="M12.9579 6.69531C12.9579 4.42986 15.8507 3.31331 17.5068 4.93958L32.5408 19.7034C33.6902 20.8321 34.333 22.3427 34.333 23.915V40.9519C34.333 43.2174 31.4402 44.334 29.7841 42.7077L14.5248 27.7227C13.5199 26.7358 12.9579 25.415 12.9579 24.0403V6.69531Z" fill="#4CBFFF"/>
<path d="M0.154663 7.18786C0.154663 4.92241 3.0475 3.80587 4.70355 5.43214L19.9629 20.4171C20.9678 21.404 21.5298 22.7247 21.5298 24.0995V41.4445C21.5298 43.71 18.637 44.8265 16.9809 43.2002L1.72165 28.2152C0.716689 27.2284 0.154663 25.9076 0.154663 24.5328V7.18786Z" fill="#4A3AFF"/>
</svg>
